<?xml version="1.0" encoding="UTF-8"?>
<svg id="Layer_1" data-name="Layer 1" xmlns="http://www.w3.org/2000/svg" viewBox="0 0 300 326">
  <defs>
    <style>
      .cls-1 {
        fill: none;
      }

      .cls-2 {
        fill: #a6917e;
      }

      .cls-3 {
        fill: #e5dbd1;
      }

      .cls-4 {
        fill: #fffaf0;
      }
    </style>
  </defs>
  <rect class="cls-1" width="300" height="326"/>
  <g>
    <path class="cls-4" d="M39.27,277.321l-15.087-19.995v14.804c0,1.227.06,2.035.181,2.423s.464.745,1.03,1.07,1.416.488,2.549.488v.724h-7.96v-.724c1.017-.073,1.793-.26,2.328-.558s.852-.621.952-.968.149-1.164.149-2.454v-11.311c0-1.636-.076-2.732-.228-3.288s-.393-.912-.724-1.07-1.067-.236-2.21-.236v-.724h6.293l12.633,16.692v-12.759c0-.944-.097-1.605-.291-1.982s-.59-.676-1.188-.897-1.316-.33-2.155-.33v-.724h7.74v.724c-.902.073-1.613.246-2.132.519s-.85.6-.991.983-.212,1.03-.212,1.943v17.651h-.676Z"/>
    <path class="cls-4" d="M57.275,272.186h.529l-.32,4.647h-12.367v-.507h.308c.742,0,1.221-.099,1.438-.298.216-.198.354-.45.413-.754.058-.305.088-1.081.088-2.33v-7.323c0-1.138-.031-1.887-.094-2.246-.062-.359-.205-.611-.429-.754-.224-.143-.695-.214-1.415-.214v-.507h10.672l.352,3.722h-.517c-.235-1.042-.523-1.782-.865-2.219-.342-.437-.747-.712-1.217-.826-.469-.113-1.226-.17-2.268-.17h-2.071v6.266h1.586c.727,0,1.236-.062,1.525-.187.29-.125.481-.313.573-.567.092-.253.138-.747.138-1.481h.517v5.11h-.517c0-.83-.07-1.386-.209-1.668-.14-.283-.343-.467-.612-.551-.268-.085-.721-.127-1.36-.127h-1.641v3.535c0,1.769.114,2.81.342,3.122s.84.468,1.839.468h1.112c.786,0,1.432-.101,1.938-.303s.989-.617,1.448-1.244c.459-.628.821-1.493,1.085-2.594Z"/>
    <path class="cls-4" d="M68.413,277.185h-.682l-5.154-11.871c-.095-.213-.246-.58-.451-1.101-.286-.705-.588-1.179-.903-1.42-.316-.243-.826-.371-1.531-.385v-.507h6.431v.507c-.8,0-1.338.059-1.613.176s-.413.341-.413.671c0,.213.172.713.517,1.498l4.295,9.911,3.447-8.248c.579-1.38.87-2.28.87-2.698,0-.844-.598-1.281-1.795-1.31v-.507h4.559v.507c-.463.014-.87.18-1.223.496-.353.315-.657.778-.914,1.388l-1.002,2.345-4.438,10.55Z"/>
    <path class="cls-4" d="M84.223,271.327h-5.671l-.385.947c-.572,1.373-.859,2.268-.859,2.687,0,.448.152.787.457,1.019s.695.347,1.173.347v.507h-4.438v-.507c.661-.103,1.152-.336,1.476-.699.323-.363.712-1.129,1.167-2.296.037-.11.213-.536.528-1.277l4.339-10.363h.43l4.988,11.86.683,1.564c.154.353.361.629.622.831.26.203.652.329,1.173.38v.507h-5.869v-.507c.719,0,1.205-.053,1.459-.16.253-.106.38-.317.38-.633,0-.161-.169-.642-.507-1.442l-1.145-2.764ZM84.036,270.831l-2.643-6.366-2.632,6.366h5.275Z"/>
    <path class="cls-4" d="M115.501,273.152l7.772-17.651h6.544v.724h-.787c-1.049,0-1.736.087-2.061.26s-.543.496-.653.968-.165,1.594-.165,3.367v10.462c0,1.678.042,2.777.126,3.296s.296.905.637,1.156.994.378,1.959.378h.944v.724h-10.194v-.724h.755c.902,0,1.529-.115,1.88-.346s.577-.59.676-1.078.149-1.623.149-3.406v-13.577l-8.448,19.13h-.739l-8.511-19.13v12.491c0,1.71.052,2.874.157,3.492s.43,1.162.975,1.628,1.311.732,2.297.794v.724h-7.63v-.724c.912-.052,1.654-.302,2.226-.747s.92-.994,1.046-1.644.189-1.856.189-3.618v-9.282c0-1.699-.05-2.795-.149-3.288s-.309-.834-.629-1.023-1.02-.283-2.1-.283h-.582v-.724h6.497l7.819,17.651Z"/>
    <path class="cls-4" d="M141.776,271.327h-5.671l-.385.947c-.572,1.373-.859,2.268-.859,2.687,0,.448.152.787.457,1.019s.695.347,1.173.347v.507h-4.438v-.507c.661-.103,1.152-.336,1.476-.699.323-.363.712-1.129,1.167-2.296.037-.11.213-.536.528-1.277l4.339-10.363h.43l4.988,11.86.683,1.564c.154.353.361.629.622.831.26.203.652.329,1.173.38v.507h-5.869v-.507c.719,0,1.205-.053,1.459-.16.253-.106.38-.317.38-.633,0-.161-.169-.642-.507-1.442l-1.145-2.764ZM141.589,270.831l-2.643-6.366-2.632,6.366h5.275Z"/>
    <path class="cls-4" d="M149.742,276.679v-4.802h.551c.624,3.127,2.103,4.691,4.438,4.691,1.049,0,1.863-.3,2.439-.898.576-.598.865-1.268.865-2.01,0-.749-.254-1.377-.76-1.883-.507-.499-1.432-1.036-2.775-1.608-1.197-.514-2.1-.964-2.709-1.349s-1.085-.887-1.426-1.503c-.342-.617-.513-1.274-.513-1.972,0-1.064.369-1.951,1.107-2.659.737-.709,1.672-1.063,2.802-1.063.632,0,1.226.103,1.784.308.558.206,1.131.632,1.718,1.278.338-.404.528-.84.572-1.31h.485v3.909h-.485c-.279-1.138-.772-2.033-1.481-2.687s-1.529-.98-2.461-.98c-.888,0-1.54.241-1.955.721-.415.481-.622,1.008-.622,1.58,0,.69.26,1.274.782,1.751.513.484,1.442,1.028,2.786,1.63,1.285.573,2.219,1.034,2.803,1.382.583.349,1.051.831,1.404,1.448.352.617.528,1.329.528,2.136,0,1.278-.426,2.317-1.278,3.117-.851.8-1.989,1.2-3.414,1.2-1.637,0-3.003-.628-4.096-1.883-.243.345-.423.83-.54,1.454h-.551Z"/>
    <path class="cls-4" d="M172.202,277.053c-.345.037-.716.055-1.112.055-2.4,0-4.359-.714-5.875-2.142-1.516-1.428-2.274-3.327-2.274-5.699,0-2.298.769-4.146,2.307-5.545,1.538-1.398,3.463-2.098,5.776-2.098,1.424,0,2.801.31,4.13.931,1.329.62,2.335,1.538,3.017,2.753.683,1.215,1.025,2.56,1.025,4.036,0,1.718-.446,3.238-1.338,4.559-.892,1.321-2.183,2.246-3.871,2.775l-3.293,1.817c.227-.022.426-.033.595-.033,1.63,0,3.506.367,5.627,1.101,1.63.565,2.922.848,3.877.848,1.321,0,2.107-.499,2.357-1.498h.463c-.125,1.013-.547,1.835-1.266,2.467-.72.631-1.649.947-2.787.947-.749,0-1.43-.121-2.043-.363-.613-.243-1.411-.676-2.395-1.3-1.762-1.123-3.23-1.685-4.405-1.685-.705,0-1.388.279-2.048.837-.44.366-.745.551-.914.551-.265,0-.397-.121-.397-.364,0-.184.158-.372.473-.567.316-.195.91-.505,1.784-.931.184-.088.367-.184.551-.286l2.037-1.167ZM165.462,269.345c0,2.4.479,4.203,1.438,5.407.958,1.204,2.395,1.806,4.311,1.806,1.681,0,3.01-.602,3.986-1.806.977-1.204,1.465-3,1.465-5.386,0-2.32-.481-4.098-1.443-5.335s-2.357-1.856-4.185-1.856c-1.799,0-3.177.604-4.135,1.812-.958,1.207-1.438,2.994-1.438,5.357Z"/>
    <path class="cls-4" d="M192.546,261.9h4.988v.507c-.661.044-1.154.193-1.481.446-.326.254-.526.538-.6.853-.073.316-.11.929-.11,1.839v4.967c0,1.27-.05,2.213-.149,2.83s-.385,1.223-.859,1.817c-.474.595-1.14,1.068-1.999,1.42-.859.353-1.85.529-2.973.529-1.329,0-2.454-.226-3.375-.677-.921-.452-1.578-1.036-1.971-1.751s-.589-1.675-.589-2.88l.011-1.531v-4.647c0-1.189-.035-1.956-.105-2.301-.069-.345-.216-.583-.44-.716-.224-.132-.714-.198-1.47-.198h-.342v-.507h6.817v.507h-.298c-.734,0-1.215.06-1.442.182-.228.121-.38.347-.458.677-.077.33-.115,1.116-.115,2.357v4.703c0,1.63.075,2.786.225,3.469.151.683.575,1.28,1.272,1.79.697.511,1.626.766,2.786.766.91,0,1.738-.171,2.484-.513.745-.341,1.299-.767,1.662-1.277.364-.511.585-1.036.667-1.575.081-.539.121-1.389.121-2.549v-5.088c0-.844-.048-1.435-.144-1.772-.095-.338-.301-.606-.617-.804-.315-.198-.815-.319-1.497-.363v-.507Z"/>
    <path class="cls-4" d="M212.019,272.186h.529l-.32,4.647h-12.367v-.507h.308c.742,0,1.221-.099,1.438-.298.216-.198.354-.45.413-.754.058-.305.088-1.081.088-2.33v-7.323c0-1.138-.031-1.887-.094-2.246-.062-.359-.205-.611-.429-.754-.224-.143-.695-.214-1.415-.214v-.507h10.672l.352,3.722h-.517c-.235-1.042-.523-1.782-.865-2.219-.342-.437-.747-.712-1.217-.826-.469-.113-1.226-.17-2.268-.17h-2.071v6.266h1.586c.727,0,1.236-.062,1.525-.187.29-.125.481-.313.573-.567.092-.253.138-.747.138-1.481h.517v5.11h-.517c0-.83-.07-1.386-.209-1.668-.14-.283-.343-.467-.612-.551-.268-.085-.721-.127-1.36-.127h-1.641v3.535c0,1.769.114,2.81.342,3.122s.84.468,1.839.468h1.112c.786,0,1.432-.101,1.938-.303s.989-.617,1.448-1.244c.459-.628.821-1.493,1.085-2.594Z"/>
    <path class="cls-4" d="M230.767,276.833h-4.02c-.712-.499-1.802-1.806-3.27-3.921-.47-.675-.958-1.323-1.465-1.944-.507-.621-.855-.998-1.046-1.135-.191-.136-.488-.203-.892-.203h-.595v3.314c0,1.175.028,1.944.083,2.307s.202.633.44.81.695.264,1.371.264h.716v.507h-7.147v-.507h.484c.638,0,1.081-.081,1.327-.243.246-.161.402-.413.468-.754.066-.342.099-1.136.099-2.385v-7.323c0-1.189-.033-1.956-.099-2.301-.066-.345-.213-.583-.44-.716-.227-.132-.72-.198-1.476-.198h-.253v-.507l2.136-.11c1.424-.066,2.554-.099,3.392-.099,1.424,0,2.583.132,3.475.397.891.264,1.613.697,2.164,1.299s.826,1.321.826,2.159c0,.976-.36,1.81-1.08,2.499-.719.69-1.776,1.12-3.171,1.289.624.301,1.63,1.388,3.017,3.26,1.131,1.519,2.019,2.514,2.665,2.984.646.469,1.409.719,2.29.749v.507ZM219.48,269.125c.551-.015,1.12-.037,1.707-.066s1.097-.11,1.531-.243c.433-.132.784-.324,1.052-.578.268-.253.479-.585.633-.996s.231-.918.231-1.519c0-1.05-.263-1.89-.788-2.522-.524-.631-1.668-.947-3.43-.947-.271,0-.583.014-.936.044v6.828Z"/>
    <path class="cls-4" d="M241.673,271.327h-5.671l-.385.947c-.572,1.373-.859,2.268-.859,2.687,0,.448.152.787.457,1.019s.695.347,1.173.347v.507h-4.438v-.507c.661-.103,1.152-.336,1.476-.699.323-.363.712-1.129,1.167-2.296.037-.11.213-.536.528-1.277l4.339-10.363h.43l4.988,11.86.683,1.564c.154.353.361.629.622.831.26.203.652.329,1.173.38v.507h-5.869v-.507c.719,0,1.205-.053,1.459-.16.253-.106.38-.317.38-.633,0-.161-.169-.642-.507-1.442l-1.145-2.764ZM241.487,270.831l-2.643-6.366-2.632,6.366h5.275Z"/>
    <path class="cls-4" d="M248.869,262.022l2.456-.121c2.048-.103,3.428-.154,4.141-.154,2.217,0,3.946.338,5.186,1.013,1.241.676,2.164,1.592,2.77,2.748s.909,2.491.909,4.003c0,1.094-.165,2.094-.496,3.001s-.784,1.659-1.36,2.258c-.577.598-1.245,1.053-2.005,1.365s-1.481.507-2.164.583c-.683.077-1.645.116-2.886.116h-6.618v-.507h.616c.639,0,1.081-.081,1.327-.243.246-.161.404-.413.473-.754.07-.342.105-1.136.105-2.385v-7.202c0-1.189-.035-1.958-.105-2.307-.069-.349-.216-.587-.44-.716s-.714-.193-1.47-.193h-.44v-.507ZM253.472,262.33v9.977c0,1.476.028,2.427.083,2.852.055.426.22.725.496.897.275.173.857.259,1.746.259,1.299,0,2.368-.178,3.204-.534.837-.356,1.536-1.057,2.098-2.103s.842-2.381.842-4.003c0-1.262-.163-2.39-.49-3.381-.326-.991-.794-1.797-1.404-2.417-.609-.621-1.285-1.043-2.026-1.266-.741-.224-1.692-.336-2.852-.336-.558,0-1.124.018-1.696.055Z"/>
    <path class="cls-4" d="M279.488,272.186h.529l-.32,4.647h-12.367v-.507h.308c.742,0,1.221-.099,1.438-.298.216-.198.354-.45.413-.754.058-.305.088-1.081.088-2.33v-7.323c0-1.138-.031-1.887-.094-2.246-.062-.359-.205-.611-.429-.754-.224-.143-.695-.214-1.415-.214v-.507h10.672l.352,3.722h-.517c-.235-1.042-.523-1.782-.865-2.219-.342-.437-.747-.712-1.217-.826-.469-.113-1.226-.17-2.268-.17h-2.071v6.266h1.586c.727,0,1.236-.062,1.525-.187.29-.125.481-.313.573-.567.092-.253.138-.747.138-1.481h.517v5.11h-.517c0-.83-.07-1.386-.209-1.668-.14-.283-.343-.467-.612-.551-.268-.085-.721-.127-1.36-.127h-1.641v3.535c0,1.769.114,2.81.342,3.122s.84.468,1.839.468h1.112c.786,0,1.432-.101,1.938-.303s.989-.617,1.448-1.244c.459-.628.821-1.493,1.085-2.594Z"/>
    <path class="cls-3" d="M47.833,289.727h3.163c2.568,0,3.881,1.127,3.881,2.697,0,1.739-1.611,2.585-3.051,2.786,1.779.112,3.454,1.006,3.454,2.857,0,1.803-1.562,2.931-3.8,2.931h-3.647v-11.271ZM51.23,294.96c1.006-.169,2.029-.91,2.029-2.407,0-1.417-.91-2.303-2.552-2.303h-1.232v4.71h1.755ZM51.842,300.474c1.175-.33,1.715-1.223,1.715-2.423,0-2.117-1.683-2.568-2.826-2.568h-1.256v4.991h2.367Z"/>
    <path class="cls-3" d="M58.513,289.727h3.083c3.422,0,4.243,1.715,4.243,3.043,0,1.683-1.224,2.632-2.286,3.003l2.842,5.225h-1.876l-2.608-4.951c-.636-.032-1.264-.097-1.755-.153v5.104h-1.642v-11.271ZM60.155,295.426c.547.049,1.175.081,1.698.081.242,0,.459-.008.644-.024.668-.258,1.626-.966,1.626-2.608,0-2.391-1.997-2.625-3.083-2.625h-.886v5.176Z"/>
    <path class="cls-3" d="M74.185,297.568h-4.162c-.572,1.707-1.006,3.083-1.095,3.43h-.66l3.896-11.271h1.087l3.816,11.271h-1.731l-1.151-3.43ZM74.007,297.036l-1.883-5.603-1.836,5.369c-.024.081-.056.153-.08.233h3.799Z"/>
    <path class="cls-3" d="M80.285,291.868v3.977c0,1.851.064,4.951.072,5.152h-.596v-11.271h1.143l6.384,9.169v-4.017c0-1.852-.072-4.87-.08-5.152h.604v11.271h-1.151l-6.376-9.129Z"/>
    <path class="cls-3" d="M91.457,289.727h2.777c3.622,0,6.263,2.093,6.263,5.483,0,3.26-2.263,5.788-5.555,5.788h-3.485v-11.271ZM95.442,300.474c2.101-.442,3.333-2.109,3.333-4.918,0-4.018-2.584-5.306-4.524-5.306h-1.151v10.224h2.343Z"/>
    <path class="cls-3" d="M103.854,289.727h1.642v11.271h-1.642v-11.271Z"/>
    <path class="cls-3" d="M109.661,291.868v3.977c0,1.851.064,4.951.072,5.152h-.595v-11.271h1.143l6.384,9.169v-4.017c0-1.852-.072-4.87-.08-5.152h.604v11.271h-1.151l-6.376-9.129Z"/>
    <path class="cls-3" d="M129.173,299.967c-.773.604-2.069,1.256-3.582,1.256-2.986,0-5.289-2.673-5.289-5.829,0-3.108,2.214-5.893,5.233-5.893.805,0,2.278.193,3.308.66l-.499,1.457c-.652-.442-2.592-1.561-3.075-1.618-2.246.241-3.301,1.883-3.301,4.693,0,3.437,1.594,5.844,4.187,5.844.587,0,1.191-.137,1.377-.266v-3.921h1.642v3.615Z"/>
    <path class="cls-3" d="M145.299,300.997l-.877-1.047c-.846.781-1.908,1.272-3.132,1.272-1.948,0-3.639-1.208-3.639-3.051,0-1.344.918-2.415,2.689-3.123-.587-.805-1.111-1.731-1.111-2.777,0-1.61,1.184-2.769,2.979-2.769,1.658,0,2.809,1.006,2.809,2.383,0,1.498-1.392,2.367-2.809,2.931.024.024.065.072.097.113l2.785,3.405c.499-.853.837-1.908.91-3.027l.579.016c-.121,1.216-.523,2.416-1.159,3.414l1.859,2.262h-1.98ZM141.016,295.893c-.121-.145-.25-.298-.37-.459-.99.459-1.441,1.216-1.441,2.246,0,1.561,1.039,2.826,2.632,2.826.861,0,1.634-.37,2.262-.934l-3.083-3.679ZM141.91,294.444c1.046-.499,1.739-1.409,1.739-2.592,0-1.167-.66-1.868-1.683-1.868-.958,0-1.594.636-1.594,1.514,0,.853.636,1.803,1.538,2.946Z"/>
    <path class="cls-3" d="M154.631,289.727h1.739l2.294,8.96,2.495-8.96h1.087l2.383,8.896.877-3.349c.475-1.803,1.329-5.241,1.385-5.547h.636l-2.303,8.751c-.128.467-.442,1.755-.619,2.52h-1.087l-2.416-9.065-1.819,6.505c-.145.524-.491,1.812-.669,2.56h-1.087l-2.898-11.271Z"/>
    <path class="cls-3" d="M170.37,289.727h6.287v.588c-.459-.016-2.568-.065-3.22-.065h-1.425v4.71h.91c.523,0,2.753-.016,3.22-.032v.587c-.467-.016-2.697-.032-3.22-.032h-.91v4.991h1.497c.644,0,2.754-.048,3.22-.064v.588h-6.36v-11.271Z"/>
    <path class="cls-3" d="M180.019,289.727h3.163c2.568,0,3.881,1.127,3.881,2.697,0,1.739-1.611,2.585-3.051,2.786,1.779.112,3.454,1.006,3.454,2.857,0,1.803-1.562,2.931-3.8,2.931h-3.647v-11.271ZM183.416,294.96c1.006-.169,2.029-.91,2.029-2.407,0-1.417-.91-2.303-2.552-2.303h-1.232v4.71h1.755ZM184.028,300.474c1.175-.33,1.715-1.223,1.715-2.423,0-2.117-1.683-2.568-2.826-2.568h-1.256v4.991h2.367Z"/>
    <path class="cls-3" d="M196.161,289.727h2.777c3.622,0,6.263,2.093,6.263,5.483,0,3.26-2.263,5.788-5.555,5.788h-3.485v-11.271ZM200.146,300.474c2.101-.442,3.333-2.109,3.333-4.918,0-4.018-2.584-5.306-4.524-5.306h-1.151v10.224h2.343Z"/>
    <path class="cls-3" d="M208.557,289.727h6.287v.588c-.459-.016-2.568-.065-3.22-.065h-1.425v4.71h.91c.523,0,2.753-.016,3.22-.032v.587c-.467-.016-2.697-.032-3.22-.032h-.91v4.991h1.497c.644,0,2.754-.048,3.22-.064v.588h-6.36v-11.271Z"/>
    <path class="cls-3" d="M223.382,291.088c-.805-.628-1.747-1.055-2.543-1.055-.926,0-1.78.572-1.78,1.658,0,.942.532,1.561,2.271,2.825,2.029,1.474,2.632,2.142,2.632,3.462,0,1.989-1.699,3.245-3.527,3.245-1.063,0-2.028-.443-2.874-1.03l.33-.539c.644.587,1.424,1.014,2.351,1.014,1.328,0,2.238-.861,2.238-2.085,0-1.014-.62-1.626-2.198-2.712-1.626-1.119-2.399-2.142-2.399-3.47,0-1.731,1.288-2.898,2.931-2.898,1.087,0,2.109.507,2.89,1.063l-.323.524Z"/>
    <path class="cls-3" d="M227.324,289.727h1.642v11.271h-1.642v-11.271Z"/>
    <path class="cls-3" d="M241.18,299.967c-.773.604-2.069,1.256-3.582,1.256-2.986,0-5.289-2.673-5.289-5.829,0-3.108,2.214-5.893,5.233-5.893.805,0,2.278.193,3.308.66l-.499,1.457c-.652-.442-2.592-1.561-3.075-1.618-2.246.241-3.301,1.883-3.301,4.693,0,3.437,1.594,5.844,4.187,5.844.587,0,1.191-.137,1.377-.266v-3.921h1.642v3.615Z"/>
    <path class="cls-3" d="M245.019,291.868v3.977c0,1.851.064,4.951.072,5.152h-.595v-11.271h1.143l6.384,9.169v-4.017c0-1.852-.072-4.87-.08-5.152h.604v11.271h-1.151l-6.376-9.129Z"/>
  </g>
  <g>
    <g>
      <polygon class="cls-4" points="108.893 86.096 150.068 153.77 150.174 172.037 113.664 112.329 113.638 170.191 108.893 165.444 108.893 86.096"/>
      <polygon class="cls-4" points="136.283 86.096 164.056 131.97 191.1 85.52 191.1 165.424 186.411 170.115 186.26 112.078 164.028 150.377 136.283 104.978 136.283 86.096"/>
    </g>
    <polygon class="cls-2" points="82.136 94.206 82.136 58.217 218.648 58.216 218.648 94.993 214.704 91.049 214.704 62.162 86.081 62.161 86.08 90.262 82.136 94.206"/>
    <polyline class="cls-2" points="124.181 55.708 149.997 29.874 175.814 55.708 170.237 55.708 149.997 35.461 129.757 55.708"/>
    <polygon class="cls-2" points="82.136 158.64 82.139 194.737 218.634 194.738 218.648 157.847 214.704 161.791 214.704 190.787 86.079 190.787 86.079 162.583 82.136 158.64"/>
    <polyline class="cls-2" points="124.292 197.246 149.997 222.95 175.7 197.246 170.122 197.246 149.999 217.371 129.872 197.246"/>
    <polygon class="cls-2" points="214.704 103.723 214.704 149.117 218.649 145.173 218.648 107.667 214.704 103.723"/>
    <polygon class="cls-2" points="86.077 102.87 86.079 149.93 82.135 145.986 82.132 106.814 86.077 102.87"/>
    <polygon class="cls-2" points="115.219 64.669 120.796 64.669 59.025 126.42 120.886 188.281 115.317 188.281 53.472 126.42 115.219 64.669"/>
    <polygon class="cls-2" points="184.67 188.279 179.091 188.279 240.949 126.42 179.199 64.67 184.777 64.67 246.528 126.42 184.67 188.279"/>
  </g>
</svg>