<?xml version="1.0" encoding="UTF-8"?>
<svg id="Layer_1" data-name="Layer 1" xmlns="http://www.w3.org/2000/svg" viewBox="0 0 693.75 150">
  <defs>
    <style>
      .cls-1 {
        fill: none;
      }

      .cls-2 {
        fill: #a6917e;
      }

      .cls-3 {
        fill: #294759;
      }

      .cls-4 {
        fill: #486a80;
      }
    </style>
  </defs>
  <rect class="cls-1" x="0" width="693.75" height="150"/>
  <g>
    <g>
      <path class="cls-3" d="M196.774,72.94l-29.86-39.575v29.3c0,2.429.119,4.027.358,4.795s.919,1.474,2.039,2.117,2.802.965,5.044.965v1.432h-15.755v-1.432c2.014-.145,3.55-.514,4.608-1.105s1.687-1.23,1.884-1.915.296-2.304.296-4.857v-22.387c0-3.238-.15-5.407-.451-6.508s-.778-1.806-1.432-2.117-2.112-.467-4.375-.467v-1.432h12.455l25.003,33.036v-25.252c0-1.868-.192-3.176-.576-3.923s-1.168-1.339-2.351-1.775-2.605-.654-4.266-.654v-1.432h15.319v1.432c-1.785.145-3.192.488-4.219,1.028s-1.681,1.188-1.962,1.946-.42,2.039-.42,3.845v34.936h-1.339Z"/>
      <path class="cls-3" d="M232.41,62.776h1.047l-.633,9.198h-24.476v-1.003h.61c1.469,0,2.416-.196,2.845-.589.428-.392.701-.89.817-1.492.115-.603.174-2.139.174-4.611v-14.494c0-2.252-.062-3.734-.186-4.446-.123-.711-.406-1.209-.85-1.493-.444-.283-1.377-.424-2.801-.424v-1.003h21.121l.697,7.366h-1.024c-.466-2.063-1.035-3.526-1.711-4.392-.676-.864-1.479-1.409-2.409-1.635-.929-.224-2.426-.337-4.489-.337h-4.098v12.402h3.138c1.439,0,2.446-.123,3.019-.371.575-.247.952-.62,1.134-1.122.182-.501.272-1.478.272-2.931h1.024v10.113h-1.024c0-1.642-.139-2.743-.414-3.302-.276-.559-.68-.924-1.21-1.09-.531-.167-1.427-.252-2.692-.252h-3.247v6.997c0,3.502.226,5.562.676,6.179s1.663.926,3.64.926h2.2c1.556,0,2.833-.2,3.836-.599s1.958-1.221,2.866-2.462c.908-1.243,1.624-2.954,2.147-5.134Z"/>
      <path class="cls-3" d="M254.454,72.671h-1.351l-10.201-23.495c-.188-.422-.487-1.148-.893-2.18-.567-1.395-1.164-2.333-1.788-2.811-.625-.48-1.635-.734-3.029-.763v-1.003h12.729v1.003c-1.584,0-2.648.117-3.193.349s-.817.675-.817,1.329c0,.422.341,1.41,1.024,2.964l8.5,19.616,6.823-16.325c1.147-2.732,1.722-4.512,1.722-5.34,0-1.671-1.185-2.535-3.552-2.593v-1.003h9.023v1.003c-.916.029-1.722.355-2.42.981-.698.624-1.3,1.54-1.809,2.747l-1.984,4.642-8.785,20.88Z"/>
      <path class="cls-3" d="M285.745,61.077h-11.225l-.763,1.875c-1.133,2.717-1.7,4.489-1.7,5.318,0,.886.301,1.558.904,2.016s1.377.686,2.321.686v1.003h-8.783v-1.003c1.308-.204,2.281-.664,2.92-1.384.64-.719,1.409-2.234,2.311-4.545.073-.218.422-1.06,1.046-2.527l8.587-20.51h.851l9.873,23.473,1.352,3.096c.305.698.715,1.245,1.231,1.645.515.401,1.29.651,2.321.752v1.003h-11.617v-1.003c1.423,0,2.386-.105,2.888-.317.501-.21.751-.628.751-1.253,0-.319-.335-1.271-1.003-2.854l-2.267-5.471ZM285.375,60.096l-5.231-12.599-5.21,12.599h10.441Z"/>
      <path class="cls-3" d="M347.652,64.688l15.382-34.936h12.953v1.432h-1.557c-2.076,0-3.435.171-4.079.514s-1.074.981-1.292,1.915-.327,3.155-.327,6.663v20.706c0,3.321.083,5.496.249,6.523s.586,1.79,1.261,2.289,1.967.747,3.877.747h1.868v1.432h-20.177v-1.432h1.495c1.785,0,3.025-.228,3.721-.685s1.142-1.168,1.339-2.133.296-3.212.296-6.741v-26.871l-16.721,37.863h-1.463l-16.845-37.863v24.723c0,3.384.104,5.688.311,6.912s.851,2.299,1.93,3.223,2.595,1.448,4.546,1.572v1.432h-15.101v-1.432c1.806-.104,3.275-.597,4.406-1.479s1.822-1.967,2.071-3.254.374-3.674.374-7.161v-18.371c0-3.363-.099-5.532-.296-6.508s-.612-1.65-1.245-2.024-2.019-.56-4.157-.56h-1.152v-1.432h12.86l15.475,34.936Z"/>
      <path class="cls-3" d="M399.656,61.077h-11.225l-.763,1.875c-1.133,2.717-1.7,4.489-1.7,5.318,0,.886.301,1.558.904,2.016s1.377.686,2.321.686v1.003h-8.783v-1.003c1.308-.204,2.281-.664,2.92-1.384.64-.719,1.409-2.234,2.311-4.545.073-.218.422-1.06,1.046-2.527l8.587-20.51h.851l9.873,23.473,1.352,3.096c.305.698.715,1.245,1.231,1.645.515.401,1.29.651,2.321.752v1.003h-11.617v-1.003c1.423,0,2.386-.105,2.888-.317.501-.21.751-.628.751-1.253,0-.319-.335-1.271-1.003-2.854l-2.267-5.471ZM399.286,60.096l-5.231-12.599-5.21,12.599h10.441Z"/>
      <path class="cls-3" d="M415.423,71.67v-9.503h1.09c1.235,6.19,4.163,9.285,8.785,9.285,2.077,0,3.687-.593,4.828-1.777,1.14-1.183,1.711-2.509,1.711-3.978,0-1.482-.502-2.724-1.504-3.726-1.003-.989-2.833-2.05-5.493-3.182-2.369-1.017-4.155-1.907-5.362-2.67s-2.147-1.755-2.822-2.975c-.676-1.221-1.015-2.521-1.015-3.902,0-2.106.73-3.861,2.191-5.263,1.46-1.402,3.31-2.103,5.546-2.103,1.251,0,2.427.204,3.531.61,1.104.407,2.238,1.251,3.4,2.529.668-.799,1.046-1.663,1.133-2.593h.96v7.738h-.96c-.551-2.252-1.528-4.024-2.931-5.318s-3.027-1.94-4.872-1.94c-1.758,0-3.048.476-3.869,1.427-.821.952-1.231,1.994-1.231,3.128,0,1.366.515,2.521,1.548,3.465,1.016.959,2.854,2.034,5.514,3.225,2.543,1.134,4.392,2.046,5.548,2.736,1.155.69,2.081,1.645,2.779,2.866.697,1.221,1.046,2.63,1.046,4.228,0,2.529-.843,4.585-2.529,6.169-1.685,1.583-3.938,2.375-6.757,2.375-3.24,0-5.943-1.243-8.107-3.727-.48.684-.837,1.642-1.069,2.878h-1.09Z"/>
      <path class="cls-3" d="M459.874,72.41c-.684.073-1.417.109-2.202.109-4.751,0-8.628-1.413-11.628-4.24-3.001-2.826-4.501-6.585-4.501-11.279,0-4.547,1.522-8.206,4.567-10.974,3.044-2.767,6.854-4.152,11.431-4.152,2.819,0,5.544.614,8.173,1.842,2.63,1.227,4.621,3.044,5.972,5.449,1.352,2.404,2.028,5.068,2.028,7.988,0,3.4-.884,6.408-2.648,9.023-1.766,2.616-4.32,4.446-7.662,5.493l-6.517,3.596c.45-.044.843-.066,1.177-.066,3.227,0,6.938.727,11.138,2.18,3.227,1.118,5.784,1.679,7.673,1.679,2.616,0,4.17-.989,4.664-2.964h.916c-.248,2.006-1.083,3.633-2.507,4.882-1.425,1.249-3.263,1.875-5.515,1.875-1.482,0-2.83-.24-4.043-.719-1.213-.48-2.793-1.338-4.741-2.573-3.487-2.222-6.393-3.334-8.718-3.334-1.395,0-2.747.551-4.054,1.657-.872.725-1.475,1.09-1.809,1.09-.524,0-.785-.24-.785-.72,0-.363.313-.737.937-1.122.625-.385,1.802-.999,3.531-1.842.363-.174.727-.363,1.09-.566l4.032-2.311ZM446.535,57.153c0,4.751.948,8.319,2.845,10.702,1.895,2.383,4.741,3.574,8.533,3.574,3.326,0,5.958-1.191,7.889-3.574,1.933-2.383,2.9-5.937,2.9-10.659,0-4.591-.952-8.111-2.856-10.559-1.903-2.448-4.664-3.673-8.282-3.673-3.56,0-6.288,1.195-8.184,3.586-1.897,2.39-2.845,5.925-2.845,10.603Z"/>
      <path class="cls-3" d="M500.14,42.419h9.873v1.003c-1.308.087-2.285.381-2.932.882-.646.502-1.042,1.065-1.187,1.689-.145.625-.218,1.838-.218,3.64v9.83c0,2.513-.099,4.38-.295,5.601s-.763,2.42-1.7,3.596c-.938,1.177-2.256,2.115-3.957,2.811-1.7.698-3.661,1.047-5.885,1.047-2.63,0-4.856-.448-6.68-1.34-1.823-.894-3.124-2.05-3.901-3.467s-1.166-3.316-1.166-5.699l.022-3.029v-9.198c0-2.353-.069-3.871-.208-4.555-.138-.682-.428-1.155-.872-1.417-.442-.261-1.413-.392-2.909-.392h-.676v-1.003h13.491v1.003h-.589c-1.453,0-2.404.119-2.854.359-.451.24-.752.686-.906,1.34-.152.654-.228,2.209-.228,4.664v9.307c0,3.225.149,5.514.446,6.866.298,1.352,1.138,2.532,2.518,3.542,1.38,1.011,3.217,1.515,5.514,1.515,1.802,0,3.441-.339,4.916-1.015,1.474-.675,2.571-1.518,3.29-2.527.72-1.011,1.159-2.05,1.319-3.118.16-1.068.24-2.749.24-5.045v-10.07c0-1.67-.095-2.84-.284-3.508-.188-.668-.595-1.199-1.221-1.592-.624-.392-1.613-.632-2.963-.719v-1.003Z"/>
      <path class="cls-3" d="M538.682,62.776h1.047l-.633,9.198h-24.476v-1.003h.61c1.469,0,2.416-.196,2.845-.589.428-.392.701-.89.817-1.492.115-.603.174-2.139.174-4.611v-14.494c0-2.252-.062-3.734-.186-4.446-.123-.711-.406-1.209-.85-1.493-.444-.283-1.377-.424-2.801-.424v-1.003h21.121l.697,7.366h-1.024c-.466-2.063-1.035-3.526-1.711-4.392-.676-.864-1.479-1.409-2.409-1.635-.929-.224-2.426-.337-4.489-.337h-4.098v12.402h3.138c1.439,0,2.446-.123,3.019-.371.575-.247.952-.62,1.134-1.122.182-.501.272-1.478.272-2.931h1.024v10.113h-1.024c0-1.642-.139-2.743-.414-3.302-.276-.559-.68-.924-1.21-1.09-.531-.167-1.427-.252-2.692-.252h-3.247v6.997c0,3.502.226,5.562.676,6.179s1.663.926,3.64.926h2.2c1.556,0,2.833-.2,3.836-.599s1.958-1.221,2.866-2.462c.908-1.243,1.624-2.954,2.147-5.134Z"/>
      <path class="cls-3" d="M575.788,71.975h-7.955c-1.409-.989-3.566-3.574-6.473-7.76-.93-1.336-1.897-2.619-2.9-3.847-1.003-1.229-1.693-1.976-2.071-2.246-.378-.269-.967-.402-1.766-.402h-1.177v6.56c0,2.325.054,3.848.163,4.567s.4,1.253.872,1.602,1.377.523,2.714.523h1.417v1.003h-14.145v-1.003h.959c1.264,0,2.139-.16,2.626-.48.487-.319.795-.817.926-1.492.131-.676.196-2.248.196-4.72v-14.494c0-2.353-.065-3.871-.196-4.555-.131-.682-.422-1.155-.872-1.417-.45-.261-1.425-.392-2.92-.392h-.501v-1.003l4.228-.218c2.819-.131,5.056-.196,6.713-.196,2.819,0,5.112.261,6.877.785,1.764.523,3.193,1.38,4.283,2.571,1.09,1.191,1.635,2.616,1.635,4.272,0,1.932-.712,3.582-2.137,4.947-1.423,1.366-3.516,2.216-6.277,2.551,1.235.595,3.225,2.747,5.972,6.452,2.238,3.007,3.996,4.977,5.275,5.907,1.278.929,2.789,1.423,4.533,1.482v1.003ZM553.447,56.717c1.09-.03,2.216-.073,3.378-.131s2.172-.218,3.029-.48c.858-.261,1.552-.642,2.082-1.144.531-.501.948-1.159,1.253-1.972s.458-1.816.458-3.007c0-2.078-.52-3.742-1.559-4.992-1.038-1.249-3.302-1.873-6.789-1.873-.537,0-1.155.029-1.853.087v13.513Z"/>
      <path class="cls-3" d="M597.374,61.077h-11.225l-.763,1.875c-1.133,2.717-1.7,4.489-1.7,5.318,0,.886.301,1.558.904,2.016s1.377.686,2.321.686v1.003h-8.783v-1.003c1.308-.204,2.281-.664,2.92-1.384.64-.719,1.409-2.234,2.311-4.545.073-.218.422-1.06,1.046-2.527l8.587-20.51h.851l9.873,23.473,1.352,3.096c.305.698.715,1.245,1.231,1.645.515.401,1.29.651,2.321.752v1.003h-11.617v-1.003c1.423,0,2.386-.105,2.888-.317.501-.21.751-.628.751-1.253,0-.319-.335-1.271-1.003-2.854l-2.267-5.471ZM597.004,60.096l-5.231-12.599-5.21,12.599h10.441Z"/>
      <path class="cls-3" d="M611.615,42.659l4.861-.24c4.054-.204,6.785-.305,8.196-.305,4.388,0,7.81.668,10.265,2.004,2.456,1.338,4.284,3.15,5.483,5.439s1.798,4.93,1.798,7.923c0,2.165-.327,4.145-.981,5.939s-1.552,3.284-2.692,4.468c-1.142,1.185-2.464,2.085-3.967,2.702s-2.931,1.003-4.283,1.155c-1.352.153-3.255.23-5.711.23h-13.098v-1.003h1.22c1.265,0,2.139-.16,2.627-.48.487-.319.799-.817.937-1.492.139-.676.208-2.248.208-4.72v-14.254c0-2.353-.069-3.875-.208-4.565-.138-.69-.428-1.162-.872-1.417s-1.413-.381-2.91-.381h-.872v-1.003ZM620.727,43.269v19.747c0,2.92.054,4.803.163,5.645.109.843.436,1.435.981,1.776.545.343,1.696.512,3.455.512,2.571,0,4.686-.352,6.342-1.057,1.657-.704,3.041-2.091,4.153-4.162s1.667-4.712,1.667-7.923c0-2.499-.323-4.73-.97-6.692-.646-1.962-1.572-3.556-2.779-4.783-1.205-1.229-2.543-2.064-4.01-2.507-1.467-.444-3.349-.666-5.645-.666-1.104,0-2.224.036-3.356.109Z"/>
      <path class="cls-3" d="M672.218,62.776h1.047l-.633,9.198h-24.476v-1.003h.61c1.469,0,2.416-.196,2.845-.589.428-.392.701-.89.817-1.492.115-.603.174-2.139.174-4.611v-14.494c0-2.252-.062-3.734-.186-4.446-.123-.711-.406-1.209-.85-1.493-.444-.283-1.377-.424-2.801-.424v-1.003h21.121l.697,7.366h-1.024c-.466-2.063-1.035-3.526-1.711-4.392-.676-.864-1.479-1.409-2.409-1.635-.929-.224-2.426-.337-4.489-.337h-4.098v12.402h3.138c1.439,0,2.446-.123,3.019-.371.575-.247.952-.62,1.134-1.122.182-.501.272-1.478.272-2.931h1.024v10.113h-1.024c0-1.642-.139-2.743-.414-3.302-.276-.559-.68-.924-1.21-1.09-.531-.167-1.427-.252-2.692-.252h-3.247v6.997c0,3.502.226,5.562.676,6.179s1.663.926,3.64.926h2.2c1.556,0,2.833-.2,3.836-.599s1.958-1.221,2.866-2.462c.908-1.243,1.624-2.954,2.147-5.134Z"/>
      <path class="cls-4" d="M159.757,97.494h6.261c5.083,0,7.68,2.23,7.68,5.337,0,3.442-3.186,5.116-6.039,5.514,3.521.222,6.836,1.991,6.836,5.655,0,3.569-3.092,5.801-7.521,5.801h-7.217v-22.307ZM166.48,107.851c1.993-.335,4.015-1.801,4.015-4.764,0-2.805-1.801-4.558-5.051-4.558h-2.438v9.322h3.473ZM167.692,118.764c2.326-.653,3.394-2.421,3.394-4.795,0-4.191-3.33-5.083-5.593-5.083h-2.486v9.878h4.685Z"/>
      <path class="cls-4" d="M180.897,97.494h6.102c6.772,0,8.398,3.394,8.398,6.022,0,3.33-2.422,5.21-4.525,5.943l5.624,10.341h-3.713l-5.162-9.799c-1.258-.064-2.501-.192-3.473-.304v10.103h-3.25v-22.307ZM184.146,108.774c1.083.096,2.326.16,3.361.16.479,0,.908-.016,1.275-.048,1.322-.51,3.219-1.912,3.219-5.162,0-4.733-3.952-5.195-6.103-5.195h-1.753v10.245Z"/>
      <path class="cls-4" d="M211.914,113.013h-8.238c-1.131,3.378-1.991,6.103-2.167,6.788h-1.306l7.712-22.307h2.151l7.552,22.307h-3.425l-2.278-6.788ZM211.563,111.961l-3.727-11.089-3.634,10.627c-.047.16-.112.304-.158.462h7.52Z"/>
      <path class="cls-4" d="M223.987,101.732v7.871c0,3.664.127,9.799.143,10.197h-1.178v-22.307h2.261l12.635,18.148v-7.95c0-3.665-.143-9.639-.158-10.197h1.195v22.307h-2.278l-12.62-18.069Z"/>
      <path class="cls-4" d="M246.099,97.494h5.497c7.169,0,12.395,4.143,12.395,10.851,0,6.452-4.477,11.456-10.994,11.456h-6.898v-22.307ZM253.985,118.764c4.158-.876,6.596-4.174,6.596-9.734,0-7.952-5.114-10.501-8.954-10.501h-2.278v20.235h4.637Z"/>
      <path class="cls-4" d="M270.633,97.494h3.25v22.307h-3.25v-22.307Z"/>
      <path class="cls-4" d="M282.128,101.732v7.871c0,3.664.127,9.799.143,10.197h-1.178v-22.307h2.261l12.635,18.148v-7.95c0-3.665-.143-9.639-.158-10.197h1.195v22.307h-2.278l-12.62-18.069Z"/>
      <path class="cls-4" d="M320.746,117.761c-1.53,1.195-4.095,2.486-7.09,2.486-5.911,0-10.468-5.291-10.468-11.536,0-6.151,4.381-11.663,10.357-11.663,1.593,0,4.508.383,6.548,1.306l-.987,2.884c-1.291-.876-5.131-3.09-6.086-3.202-4.446.477-6.534,3.727-6.534,9.289,0,6.803,3.155,11.567,8.286,11.567,1.162,0,2.357-.271,2.724-.527v-7.76h3.25v7.155Z"/>
      <path class="cls-4" d="M352.662,119.801l-1.736-2.072c-1.674,1.545-3.777,2.518-6.199,2.518-3.856,0-7.202-2.391-7.202-6.039,0-2.661,1.816-4.78,5.322-6.182-1.162-1.593-2.199-3.426-2.199-5.497,0-3.186,2.343-5.481,5.895-5.481,3.282,0,5.561,1.991,5.561,4.716,0,2.964-2.756,4.685-5.561,5.801.048.048.128.143.192.223l5.513,6.74c.987-1.689,1.657-3.777,1.801-5.991l1.147.031c-.239,2.407-1.035,4.781-2.294,6.757l3.679,4.477h-3.919ZM344.186,109.698c-.24-.287-.494-.589-.733-.908-1.96.908-2.853,2.407-2.853,4.446,0,3.09,2.056,5.593,5.21,5.593,1.705,0,3.234-.733,4.477-1.849l-6.102-7.282ZM345.955,106.831c2.071-.989,3.442-2.788,3.442-5.131,0-2.311-1.306-3.696-3.33-3.696-1.897,0-3.155,1.258-3.155,2.996,0,1.689,1.258,3.569,3.044,5.832Z"/>
      <path class="cls-4" d="M371.133,97.494h3.442l4.541,17.734,4.939-17.734h2.151l4.717,17.607,1.736-6.628c.941-3.569,2.63-10.372,2.741-10.978h1.258l-4.558,17.32c-.254.924-.876,3.473-1.226,4.987h-2.151l-4.781-17.941-3.6,12.874c-.287,1.037-.972,3.586-1.323,5.068h-2.151l-5.736-22.307Z"/>
      <path class="cls-4" d="M402.283,97.494h12.443v1.164c-.908-.032-5.082-.128-6.373-.128h-2.82v9.322h1.801c1.035,0,5.449-.032,6.373-.064v1.162c-.924-.031-5.337-.064-6.373-.064h-1.801v9.878h2.963c1.275,0,5.45-.095,6.374-.127v1.164h-12.587v-22.307Z"/>
      <path class="cls-4" d="M421.381,97.494h6.261c5.083,0,7.68,2.23,7.68,5.337,0,3.442-3.188,5.116-6.039,5.514,3.521.222,6.836,1.991,6.836,5.655,0,3.569-3.092,5.801-7.521,5.801h-7.217v-22.307ZM428.104,107.851c1.991-.335,4.015-1.801,4.015-4.764,0-2.805-1.801-4.558-5.051-4.558h-2.438v9.322h3.473ZM429.316,118.764c2.326-.653,3.394-2.421,3.394-4.795,0-4.191-3.33-5.083-5.593-5.083h-2.486v9.878h4.685Z"/>
      <path class="cls-4" d="M453.329,97.494h5.497c7.169,0,12.396,4.143,12.396,10.851,0,6.452-4.479,11.456-10.995,11.456h-6.898v-22.307ZM461.216,118.764c4.158-.876,6.596-4.174,6.596-9.734,0-7.952-5.114-10.501-8.954-10.501h-2.278v20.235h4.637Z"/>
      <path class="cls-4" d="M477.864,97.494h12.443v1.164c-.908-.032-5.082-.128-6.373-.128h-2.82v9.322h1.801c1.035,0,5.449-.032,6.373-.064v1.162c-.924-.031-5.337-.064-6.373-.064h-1.801v9.878h2.963c1.275,0,5.45-.095,6.374-.127v1.164h-12.587v-22.307Z"/>
      <path class="cls-4" d="M507.205,100.187c-1.593-1.243-3.457-2.087-5.034-2.087-1.833,0-3.522,1.131-3.522,3.282,0,1.864,1.052,3.09,4.494,5.592,4.015,2.916,5.21,4.239,5.21,6.851,0,3.936-3.363,6.422-6.98,6.422-2.103,0-4.014-.877-5.688-2.039l.654-1.068c1.274,1.162,2.819,2.007,4.652,2.007,2.628,0,4.429-1.705,4.429-4.127,0-2.007-1.227-3.217-4.35-5.369-3.219-2.215-4.748-4.239-4.748-6.868,0-3.425,2.549-5.736,5.801-5.736,2.151,0,4.174,1.004,5.72,2.103l-.638,1.037Z"/>
      <path class="cls-4" d="M515.008,97.494h3.25v22.307h-3.25v-22.307Z"/>
      <path class="cls-4" d="M542.433,117.761c-1.53,1.195-4.095,2.486-7.09,2.486-5.911,0-10.468-5.291-10.468-11.536,0-6.151,4.381-11.663,10.357-11.663,1.593,0,4.508.383,6.548,1.306l-.987,2.884c-1.291-.876-5.131-3.09-6.086-3.202-4.446.477-6.534,3.727-6.534,9.289,0,6.803,3.155,11.567,8.286,11.567,1.162,0,2.357-.271,2.724-.527v-7.76h3.25v7.155Z"/>
      <path class="cls-4" d="M550.03,101.732v7.871c0,3.664.127,9.799.143,10.197h-1.178v-22.307h2.261l12.635,18.148v-7.95c0-3.665-.143-9.639-.158-10.197h1.195v22.307h-2.278l-12.62-18.069Z"/>
    </g>
    <g>
      <g>
        <polygon class="cls-3" points="47.846 48.276 75.139 93.134 75.209 105.243 51.009 65.665 50.992 104.019 47.846 100.872 47.846 48.276"/>
        <polygon class="cls-3" points="66.002 48.276 84.412 78.684 102.338 47.895 102.338 100.859 99.23 103.969 99.129 65.498 84.393 90.885 66.002 60.792 66.002 48.276"/>
      </g>
      <polygon class="cls-2" points="30.11 53.652 30.11 29.796 120.598 29.796 120.598 54.174 117.984 51.559 117.984 32.411 32.725 32.411 32.725 51.038 30.11 53.652"/>
      <polyline class="cls-2" points="57.98 28.133 75.092 11.009 92.205 28.133 88.508 28.133 75.092 14.713 61.676 28.133"/>
      <polygon class="cls-2" points="30.11 96.363 30.113 120.29 120.589 120.29 120.598 95.837 117.984 98.451 117.984 117.671 32.724 117.671 32.724 98.976 30.11 96.363"/>
      <polyline class="cls-2" points="58.054 121.953 75.092 138.991 92.13 121.953 88.433 121.953 75.094 135.293 61.752 121.953"/>
      <polygon class="cls-2" points="117.984 59.96 117.984 90.05 120.599 87.436 120.598 62.575 117.984 59.96"/>
      <polygon class="cls-2" points="32.722 59.395 32.724 90.589 30.11 87.975 30.108 62.009 32.722 59.395"/>
      <polygon class="cls-2" points="52.04 34.073 55.737 34.073 14.791 75.006 55.796 116.01 52.105 116.01 11.11 75.006 52.04 34.073"/>
      <polygon class="cls-2" points="98.076 116.009 94.377 116.009 135.38 75.006 94.449 34.074 98.147 34.074 139.079 75.005 98.076 116.009"/>
    </g>
  </g>
</svg>