<svg xmlns="http://www.w3.org/2000/svg" version="1.1" xmlns:xlink="http://www.w3.org/1999/xlink" width="919" height="812"><svg width="919" height="812" viewBox="0 0 919 812" fill="none" xmlns="http://www.w3.org/2000/svg">
<rect x="0.00012207" width="919" height="812" rx="32" fill="white"></rect>
<path d="M801.38 32C710.417 32 573.371 198.163 573.371 198.163L459.433 336.676L402.398 406L430.849 440.595L316.911 579.109L208.583 447.541C188.548 423.231 188.548 388.769 208.583 364.459L422.968 103.995C446.877 75.01 425.639 32 387.304 32H117.487C70.3355 32 32.0001 69.2664 32.0001 115.081V696.919C32.0001 742.867 72.7398 780 117.487 780C208.45 780 345.496 613.837 345.496 613.837L459.433 475.324L516.469 406L488.018 371.405L601.956 232.891L710.283 364.459C730.319 388.769 730.319 423.231 710.283 447.541L496.032 708.005C472.123 736.99 493.361 780 531.696 780H801.513C848.665 780 887 742.734 887 696.919V115.081C887 69.1329 846.26 32 801.513 32H801.38Z" fill="#09293E"></path>
</svg><style>@media (prefers-color-scheme: light) { :root { filter: none; } }
@media (prefers-color-scheme: dark) { :root { filter: none; } }
</style></svg>