<?xml version="1.0" encoding="UTF-8"?>
<svg id="Layer_1" data-name="Layer 1" xmlns="http://www.w3.org/2000/svg" viewBox="0 0 130.682 117.746">
  <defs>
    <style>
      .cls-1 {
        fill: none;
        stroke: #a6917e;
        stroke-linecap: round;
        stroke-linejoin: round;
        stroke-width: 5.682px;
      }
    </style>
  </defs>
  <path class="cls-1" d="M65.341,114.905c0-5.682,7.043-10.022,16.649-12.256,13.434-3.195,27.678-1.917,40.466,3.835,3.028,1.357,5.383.2,5.385-2.943V18.314c-.001-3.134-2.717-6.448-5.385-8.421-11.661-8.624-28.706-8.624-40.466-3.835-9.118,3.714-16.662,14.248-16.649,23.619v85.227Z"/>
  <path class="cls-1" d="M65.341,29.677c.013-9.372-7.532-19.906-16.649-23.619C36.932,1.268,19.886,1.268,8.226,9.893c-2.669,1.974-5.384,5.289-5.385,8.421v85.227c0,3.143,2.356,4.3,5.385,2.943,12.787-5.752,27.031-7.03,40.466-3.835,9.607,2.234,16.649,6.574,16.649,12.256V29.677Z"/>
</svg>