<?xml version="1.0" encoding="UTF-8"?>
<svg id="Layer_1" data-name="Layer 1" xmlns="http://www.w3.org/2000/svg" viewBox="0 0 150 150">
  <defs>
    <style>
      .cls-1 {
        fill: none;
        stroke: #ccb7a5;
        stroke-miterlimit: 10;
        stroke-width: 2px;
      }
    </style>
  </defs>
  <rect class="cls-1" x="5.62" y="38.44" width="140" height="90"/>
  <rect class="cls-1" x="5.617" y="23.44" width="140" height="15"/>
  <circle class="cls-1" cx="14.626" cy="30.94" r="3"/>
  <circle class="cls-1" cx="37.792" cy="30.94" r="3"/>
  <circle class="cls-1" cx="26.209" cy="30.94" r="3"/>
  <polygon class="cls-1" points="40.792 56.421 46.595 74.282 65.375 74.282 50.181 85.321 55.985 103.181 40.792 92.143 25.598 103.181 31.402 85.321 16.209 74.282 34.988 74.282 40.792 56.421"/>
  <g>
    <path class="cls-1" d="M90.154,75.414l34.774,22.576-8.048,12.397-34.774-22.576c-2.369-4.475-4.737-8.95-7.106-13.424,5.051.343,10.103.685,15.154,1.028Z"/>
    <line class="cls-1" x1="82.106" y1="87.81" x2="90.154" y2="75.414"/>
  </g>
</svg>