<?xml version="1.0" encoding="UTF-8"?>
<svg id="Layer_1" data-name="Layer 1" xmlns="http://www.w3.org/2000/svg" viewBox="0 0 146.364 107.364">
  <defs>
    <style>
      .cls-1 {
        fill: none;
        stroke: #ccb7a5;
        stroke-linecap: round;
        stroke-linejoin: round;
        stroke-width: 6.364px;
      }
    </style>
  </defs>
  <path class="cls-1" d="M73.181,8.721c19.449-6.319,40.222-7.232,60.053-2.737,5.814,1.318,9.948,6.515,9.948,12.477v77.315c0,4.073-3.791,7.166-7.745,6.187-20.486-5.078-42.059-4.339-62.229,2.215l-.027-95.456Z"/>
  <path class="cls-1" d="M92.272,29.758c10.551-1.495,21.268-1.495,31.819,0"/>
  <path class="cls-1" d="M92.272,55.213c10.551-1.495,21.268-1.495,31.819,0"/>
  <path class="cls-1" d="M92.272,80.668c10.551-1.495,21.268-1.495,31.819,0"/>
  <path class="cls-1" d="M22.271,29.758c10.551-1.495,21.268-1.495,31.819,0"/>
  <path class="cls-1" d="M22.271,55.213c10.551-1.495,21.268-1.495,31.819,0"/>
  <path class="cls-1" d="M22.271,80.668c10.551-1.495,21.268-1.495,31.819,0"/>
  <path class="cls-1" d="M13.13,5.984c19.831-4.494,40.603-3.582,60.05,2.738v95.461l-.027-.004c-20.17-6.554-41.722-7.292-62.204-2.215-3.953.98-7.744-2.112-7.745-6.185l-.022-77.314c-.001-5.963,4.133-11.163,9.948-12.481Z"/>
</svg>