<?xml version="1.0" encoding="UTF-8"?>
<svg id="Layer_1" data-name="Layer 1" xmlns="http://www.w3.org/2000/svg" viewBox="0 0 125 130.435">
  <defs>
    <style>
      .cls-1 {
        stroke-miterlimit: 10;
      }

      .cls-1, .cls-2 {
        fill: none;
        stroke: #fffaf0;
        stroke-linecap: round;
        stroke-width: 5.435px;
      }

      .cls-2 {
        stroke-linejoin: round;
      }
    </style>
  </defs>
  <path class="cls-2" d="M122.283,46.196c0,6.003-5.353,10.87-11.957,10.87s-11.957-4.866-11.957-10.87c0,6.003-5.353,10.87-11.957,10.87s-11.957-4.866-11.957-10.87c0,6.003-5.353,10.87-11.957,10.87s-11.957-4.866-11.957-10.87c0,6.003-5.353,10.87-11.957,10.87s-11.957-4.866-11.957-10.87c0,6.003-5.353,10.87-11.957,10.87s-11.957-4.866-11.957-10.87"/>
  <path class="cls-1" d="M2.717,46.196L15.178,6.659c.666-2.333,2.799-3.942,5.226-3.942h84.192c2.427,0,4.559,1.609,5.226,3.942l12.461,39.536"/>
  <path class="cls-2" d="M114.13,57.065v65.217c0,3.002-2.433,5.435-5.435,5.435H16.304c-3.002,0-5.435-2.433-5.435-5.435V57.065"/>
  <line class="cls-1" x1="48.913" y1="51.63" x2="48.913" y2="127.717"/>
  <line class="cls-1" x1="38.043" y1="84.239" x2="38.043" y2="89.674"/>
  <line class="cls-1" x1="81.522" y1="73.37" x2="65.217" y2="89.674"/>
  <line class="cls-1" x1="92.391" y1="84.239" x2="70.652" y2="105.978"/>
  <line class="cls-1" x1="98.37" y1="46.196" x2="91.825" y2="2.717"/>
  <line class="cls-1" x1="74.457" y1="46.196" x2="70.426" y2="2.717"/>
  <line class="cls-1" x1="50.543" y1="46.196" x2="54.235" y2="2.717"/>
  <line class="cls-1" x1="26.63" y1="46.196" x2="33.628" y2="2.717"/>
</svg>