<?xml version="1.0" encoding="UTF-8"?>
<svg id="Layer_1" data-name="Layer 1" xmlns="http://www.w3.org/2000/svg" viewBox="0 0 146.087 146.087">
  <defs>
    <style>
      .cls-1 {
        stroke-miterlimit: 10;
      }

      .cls-1, .cls-2 {
        fill: none;
        stroke: #fffaf0;
        stroke-width: 6.087px;
      }

      .cls-2 {
        stroke-linecap: round;
        stroke-linejoin: round;
      }
    </style>
  </defs>
  <g id="call">
    <path class="cls-1" d="M61.801,50.723c-.192.222-.383.443-.575.667-1.78,2.04-.891,5.139.293,8.452,3.761,10.514,14.223,20.976,23.645,25.981,3.105,1.65,6.475,1.871,8.456.03.217-.195.433-.396.649-.595,2.012-1.827,5.067-3.226,7.872-2.071,1.71.702,3.209,1.442,5.721,2.452,3.597,1.446,6.164,5.187,5.599,8.664-.649,3.997-3.026,8.247-4.254,10.392-1.425,2.569-5.487,3.36-9.732,2.085-34.195-10.271-49.888-31.194-59.349-60.593-1.357-4.218-.74-8.292,1.781-9.792,2.106-1.293,5.68-4.384,10.255-4.575,3.563-.149,6.797,1.374,8.977,5.406.883,1.633,1.424,3.544,2.179,5.231,1.232,2.779.25,6.193-1.518,8.265Z"/>
    <path class="cls-2" d="M37.374,133.243l-34.33,9.8,9.8-34.33c-6.209-10.409-9.8-22.643-9.8-35.67C3.043,34.391,34.391,3.043,73.043,3.043s70,31.348,70,70-31.348,70-70,70c-13.026,0-25.261-3.591-35.67-9.8Z"/>
  </g>
</svg>