<?xml version="1.0" encoding="UTF-8"?>
<svg id="Layer_1" xmlns="http://www.w3.org/2000/svg" version="1.1" viewBox="0 0 24 24">
  <!-- Generator: Adobe Illustrator 29.1.0, SVG Export Plug-In . SVG Version: 2.1.0 Build 142)  -->
  <defs>
    <style>
      .st0 {
        fill: #a66963;
      }
    </style>
  </defs>
  <path class="st0" d="M18.7,7.2c0,0-.2-.2-.3-.2-.1,0-.3,0-.4,0s-.3,0-.4,0c-.1,0-.2.1-.3.2l-7.5,7.5-3.1-3.1c0,0-.2-.2-.3-.2-.1,0-.3,0-.4,0-.1,0-.3,0-.4,0-.1,0-.2.1-.3.2,0,0-.2.2-.2.3,0,.1,0,.3,0,.4,0,.1,0,.3,0,.4,0,.1.1.2.2.3l3.8,3.8c0,0,.2.2.3.2.1,0,.3,0,.4,0s.3,0,.4,0c.1,0,.2-.1.3-.2l8.2-8.2c.1,0,.2-.2.2-.3,0-.1,0-.3,0-.4s0-.3,0-.4c0-.1-.1-.2-.2-.3h0Z"/>
</svg>