<svg width="461" height="516" viewBox="0 0 461 516" fill="none" xmlns="http://www.w3.org/2000/svg">
<circle cx="6.64949" cy="6.64949" r="6.64949" fill="#C4C4C4" fill-opacity="0.2"/>
<circle cx="118.361" cy="6.64949" r="6.64949" fill="#C4C4C4" fill-opacity="0.2"/>
<circle cx="62.5052" cy="6.64949" r="6.64949" fill="#C4C4C4" fill-opacity="0.2"/>
<circle cx="341.784" cy="6.64949" r="6.64949" fill="#C4C4C4" fill-opacity="0.2"/>
<circle cx="453.495" cy="6.64949" r="6.64949" fill="#C4C4C4" fill-opacity="0.2"/>
<circle cx="397.639" cy="6.64949" r="6.64949" fill="#C4C4C4" fill-opacity="0.2"/>
<circle cx="174.217" cy="6.64949" r="6.64949" fill="#C4C4C4" fill-opacity="0.2"/>
<circle cx="285.928" cy="6.64949" r="6.64949" fill="#C4C4C4" fill-opacity="0.2"/>
<circle cx="230.072" cy="6.64949" r="6.64949" fill="#C4C4C4" fill-opacity="0.2"/>
<circle cx="6.64949" cy="174.217" r="6.64949" fill="#C4C4C4" fill-opacity="0.2"/>
<circle cx="118.361" cy="174.217" r="6.64949" fill="#C4C4C4" fill-opacity="0.2"/>
<circle cx="62.5052" cy="174.217" r="6.64949" fill="#C4C4C4" fill-opacity="0.2"/>
<circle cx="341.784" cy="174.217" r="6.64949" fill="#C4C4C4" fill-opacity="0.2"/>
<circle cx="453.495" cy="174.217" r="6.64949" fill="#C4C4C4" fill-opacity="0.2"/>
<circle cx="397.639" cy="174.217" r="6.64949" fill="#C4C4C4" fill-opacity="0.2"/>
<circle cx="174.217" cy="174.217" r="6.64949" fill="#C4C4C4" fill-opacity="0.2"/>
<circle cx="285.928" cy="174.217" r="6.64949" fill="#C4C4C4" fill-opacity="0.2"/>
<circle cx="230.072" cy="174.217" r="6.64949" fill="#C4C4C4" fill-opacity="0.2"/>
<circle cx="6.64949" cy="118.361" r="6.64949" fill="#C4C4C4" fill-opacity="0.2"/>
<circle cx="118.361" cy="118.361" r="6.64949" fill="#C4C4C4" fill-opacity="0.2"/>
<circle cx="62.5052" cy="118.361" r="6.64949" fill="#C4C4C4" fill-opacity="0.2"/>
<circle cx="341.784" cy="118.361" r="6.64949" fill="#C4C4C4" fill-opacity="0.2"/>
<circle cx="453.495" cy="118.361" r="6.64949" fill="#C4C4C4" fill-opacity="0.2"/>
<circle cx="397.639" cy="118.361" r="6.64949" fill="#C4C4C4" fill-opacity="0.2"/>
<circle cx="174.217" cy="118.361" r="6.64949" fill="#C4C4C4" fill-opacity="0.2"/>
<circle cx="285.928" cy="118.361" r="6.64949" fill="#C4C4C4" fill-opacity="0.2"/>
<circle cx="230.072" cy="118.361" r="6.64949" fill="#C4C4C4" fill-opacity="0.2"/>
<circle cx="6.64949" cy="62.5051" r="6.64949" fill="#C4C4C4" fill-opacity="0.2"/>
<circle cx="118.361" cy="62.5051" r="6.64949" fill="#C4C4C4" fill-opacity="0.2"/>
<circle cx="62.5052" cy="62.5051" r="6.64949" fill="#C4C4C4" fill-opacity="0.2"/>
<circle cx="341.784" cy="62.5051" r="6.64949" fill="#C4C4C4" fill-opacity="0.2"/>
<circle cx="453.495" cy="62.5051" r="6.64949" fill="#C4C4C4" fill-opacity="0.2"/>
<circle cx="397.639" cy="62.5051" r="6.64949" fill="#C4C4C4" fill-opacity="0.2"/>
<circle cx="174.217" cy="62.5051" r="6.64949" fill="#C4C4C4" fill-opacity="0.2"/>
<circle cx="285.928" cy="62.5051" r="6.64949" fill="#C4C4C4" fill-opacity="0.2"/>
<circle cx="230.072" cy="62.5051" r="6.64949" fill="#C4C4C4" fill-opacity="0.2"/>
<circle cx="6.64949" cy="230.072" r="6.64949" fill="#C4C4C4" fill-opacity="0.2"/>
<circle cx="118.361" cy="230.072" r="6.64949" fill="#C4C4C4" fill-opacity="0.2"/>
<circle cx="62.5052" cy="230.072" r="6.64949" fill="#C4C4C4" fill-opacity="0.2"/>
<circle cx="341.784" cy="230.072" r="6.64949" fill="#C4C4C4" fill-opacity="0.2"/>
<circle cx="453.495" cy="230.072" r="6.64949" fill="#C4C4C4" fill-opacity="0.2"/>
<circle cx="397.639" cy="230.072" r="6.64949" fill="#C4C4C4" fill-opacity="0.2"/>
<circle cx="174.217" cy="230.072" r="6.64949" fill="#C4C4C4" fill-opacity="0.2"/>
<circle cx="285.928" cy="230.072" r="6.64949" fill="#C4C4C4" fill-opacity="0.2"/>
<circle cx="230.072" cy="230.072" r="6.64949" fill="#C4C4C4" fill-opacity="0.2"/>
<circle cx="6.64949" cy="397.639" r="6.64949" fill="#C4C4C4" fill-opacity="0.2"/>
<circle cx="118.361" cy="397.639" r="6.64949" fill="#C4C4C4" fill-opacity="0.2"/>
<circle cx="62.5052" cy="397.639" r="6.64949" fill="#C4C4C4" fill-opacity="0.2"/>
<circle cx="341.784" cy="397.639" r="6.64949" fill="#C4C4C4" fill-opacity="0.2"/>
<circle cx="453.495" cy="397.639" r="6.64949" fill="#C4C4C4" fill-opacity="0.2"/>
<circle cx="397.639" cy="397.639" r="6.64949" fill="#C4C4C4" fill-opacity="0.2"/>
<circle cx="174.217" cy="397.639" r="6.64949" fill="#C4C4C4" fill-opacity="0.2"/>
<circle cx="285.928" cy="397.639" r="6.64949" fill="#C4C4C4" fill-opacity="0.2"/>
<circle cx="230.072" cy="397.639" r="6.64949" fill="#C4C4C4" fill-opacity="0.2"/>
<circle cx="6.64949" cy="341.784" r="6.64949" fill="#C4C4C4" fill-opacity="0.2"/>
<circle cx="118.361" cy="341.784" r="6.64949" fill="#C4C4C4" fill-opacity="0.2"/>
<circle cx="62.5052" cy="341.784" r="6.64949" fill="#C4C4C4" fill-opacity="0.2"/>
<circle cx="341.784" cy="341.784" r="6.64949" fill="#C4C4C4" fill-opacity="0.2"/>
<circle cx="453.495" cy="341.784" r="6.64949" fill="#C4C4C4" fill-opacity="0.2"/>
<circle cx="397.639" cy="341.784" r="6.64949" fill="#C4C4C4" fill-opacity="0.2"/>
<circle cx="174.217" cy="341.784" r="6.64949" fill="#C4C4C4" fill-opacity="0.2"/>
<circle cx="285.928" cy="341.784" r="6.64949" fill="#C4C4C4" fill-opacity="0.2"/>
<circle cx="230.072" cy="341.784" r="6.64949" fill="#C4C4C4" fill-opacity="0.2"/>
<circle cx="6.64949" cy="509.351" r="6.64949" fill="#C4C4C4" fill-opacity="0.2"/>
<circle cx="118.361" cy="509.351" r="6.64949" fill="#C4C4C4" fill-opacity="0.2"/>
<circle cx="62.5052" cy="509.351" r="6.64949" fill="#C4C4C4" fill-opacity="0.2"/>
<circle cx="341.784" cy="509.351" r="6.64949" fill="#C4C4C4" fill-opacity="0.2"/>
<circle cx="453.495" cy="509.351" r="6.64949" fill="#C4C4C4" fill-opacity="0.2"/>
<circle cx="397.639" cy="509.351" r="6.64949" fill="#C4C4C4" fill-opacity="0.2"/>
<circle cx="174.217" cy="509.351" r="6.64949" fill="#C4C4C4" fill-opacity="0.2"/>
<circle cx="285.928" cy="509.351" r="6.64949" fill="#C4C4C4" fill-opacity="0.2"/>
<circle cx="230.072" cy="509.351" r="6.64949" fill="#C4C4C4" fill-opacity="0.2"/>
<circle cx="6.64949" cy="453.495" r="6.64949" fill="#C4C4C4" fill-opacity="0.2"/>
<circle cx="118.361" cy="453.495" r="6.64949" fill="#C4C4C4" fill-opacity="0.2"/>
<circle cx="62.5052" cy="453.495" r="6.64949" fill="#C4C4C4" fill-opacity="0.2"/>
<circle cx="341.784" cy="453.495" r="6.64949" fill="#C4C4C4" fill-opacity="0.2"/>
<circle cx="453.495" cy="453.495" r="6.64949" fill="#C4C4C4" fill-opacity="0.2"/>
<circle cx="397.639" cy="453.495" r="6.64949" fill="#C4C4C4" fill-opacity="0.2"/>
<circle cx="174.217" cy="453.495" r="6.64949" fill="#C4C4C4" fill-opacity="0.2"/>
<circle cx="285.928" cy="453.495" r="6.64949" fill="#C4C4C4" fill-opacity="0.2"/>
<circle cx="230.072" cy="453.495" r="6.64949" fill="#C4C4C4" fill-opacity="0.2"/>
<circle cx="6.64949" cy="285.928" r="6.64949" fill="#C4C4C4" fill-opacity="0.2"/>
<circle cx="118.361" cy="285.928" r="6.64949" fill="#C4C4C4" fill-opacity="0.2"/>
<circle cx="62.5052" cy="285.928" r="6.64949" fill="#C4C4C4" fill-opacity="0.2"/>
<circle cx="341.784" cy="285.928" r="6.64949" fill="#C4C4C4" fill-opacity="0.2"/>
<circle cx="453.495" cy="285.928" r="6.64949" fill="#C4C4C4" fill-opacity="0.2"/>
<circle cx="397.639" cy="285.928" r="6.64949" fill="#C4C4C4" fill-opacity="0.2"/>
<circle cx="174.217" cy="285.928" r="6.64949" fill="#C4C4C4" fill-opacity="0.2"/>
<circle cx="285.928" cy="285.928" r="6.64949" fill="#C4C4C4" fill-opacity="0.2"/>
<circle cx="230.072" cy="285.928" r="6.64949" fill="#C4C4C4" fill-opacity="0.2"/>
</svg>
