<?xml version="1.0" encoding="UTF-8"?>
<svg id="Layer_2" data-name="Layer 2" xmlns="http://www.w3.org/2000/svg" viewBox="0 0 500 500">
  <defs>
    <style>
      .cls-1 {
        fill: #fffaf0;
      }

      .cls-2 {
        fill: #804540;
      }
    </style>
  </defs>
  <g id="Layer_1-2" data-name="Layer 1">
    <rect class="cls-2" width="500" height="500"/>
    <g>
      <polygon class="cls-1" points="131.255 126.693 250.206 322.198 250.512 374.971 145.039 202.478 144.964 369.637 131.255 355.923 131.255 126.693"/>
      <polygon class="cls-1" points="210.383 126.693 290.619 259.221 368.745 125.029 368.745 355.867 355.201 369.418 354.763 201.753 290.535 312.396 210.383 181.242 210.383 126.693"/>
    </g>
    <g>
      <g>
        <g>
          <path class="cls-1" d="M78.846,78.689c-.214.239-.835.112-1.001-.028-10.208-8.609-43.567-39.013-43.568-39.013-4.592-4.592-4.84-8.184-3.716-9.291,1.081-1.065,5.59.276,9.026,3.712,0,0,35.761,38.916,39.024,43.433.158.219.475.918.234,1.187Z"/>
          <path class="cls-1" d="M81.357,77.312c-.211.112-.587-.075-.657-.191-4.331-7.146-17.838-31.914-17.838-31.914-1.743-3.664-.884-5.951.178-6.448,1.022-.479,3.637,1.139,4.941,3.881,0,0,12.677,30.503,13.559,33.89.043.164.054.656-.183.782Z"/>
          <path class="cls-1" d="M77.551,81.118c.112-.211-.075-.587-.191-.657-7.146-4.331-31.914-17.838-31.914-17.838-3.664-1.743-5.951-.884-6.448.178-.479,1.022,1.139,3.637,3.881,4.941,0,0,30.503,12.677,33.89,13.559.164.043.656.054.782-.183Z"/>
          <path class="cls-1" d="M76.638,84.142c-.012-.203-.212-.407-.286-.412-4.607-.315-20.121-.285-20.121-.285-2.218.194-3.014,1.767-2.923,2.762.088.957,1.624,2.246,3.284,2.101,0,0,17.911-2.987,19.741-3.71.089-.035.319-.227.306-.455Z"/>
          <path class="cls-1" d="M84.215,76.565c-.203-.012-.407-.212-.412-.286-.315-4.607-.285-20.121-.285-20.121.194-2.218,1.767-3.014,2.762-2.923.957.088,2.246,1.624,2.101,3.284,0,0-2.987,17.911-3.71,19.741-.035.089-.227.319-.455.306Z"/>
          <circle class="cls-1" cx="83.656" cy="83.582" r="3.725"/>
        </g>
        <g>
          <path class="cls-1" d="M106.311,79.014c-.239-.214-.112-.835.028-1.001,8.609-10.208,39.013-43.567,39.013-43.568,4.592-4.592,8.184-4.84,9.291-3.716,1.065,1.081-.276,5.59-3.712,9.026,0,0-38.916,35.761-43.433,39.024-.219.158-.918.475-1.187.234Z"/>
          <path class="cls-1" d="M107.688,81.525c-.112-.211.075-.587.191-.657,7.146-4.331,31.914-17.838,31.914-17.838,3.664-1.743,5.951-.884,6.448.178.479,1.022-1.139,3.637-3.881,4.941,0,0-30.503,12.677-33.89,13.559-.164.043-.656.054-.782-.183Z"/>
          <path class="cls-1" d="M103.882,77.719c.211.112.587-.075.657-.191,4.331-7.146,17.838-31.914,17.838-31.914,1.743-3.664.884-5.951-.178-6.448-1.022-.479-3.637,1.139-4.941,3.881,0,0-12.677,30.503-13.559,33.89-.043.164-.054.656.183.782Z"/>
          <path class="cls-1" d="M100.858,76.806c.203-.012.407-.212.412-.286.315-4.607.285-20.121.285-20.121-.194-2.218-1.767-3.014-2.762-2.923-.957.088-2.246,1.624-2.101,3.284,0,0,2.987,17.911,3.71,19.741.035.089.227.319.455.306Z"/>
          <path class="cls-1" d="M108.435,84.384c.012-.203.212-.407.286-.412,4.607-.315,20.121-.285,20.121-.285,2.218.194,3.014,1.767,2.923,2.762-.088.957-1.624,2.246-3.284,2.101,0,0-17.911-2.987-19.741-3.71-.089-.035-.319-.227-.306-.455Z"/>
          <circle class="cls-1" cx="101.418" cy="83.824" r="3.725"/>
        </g>
        <g>
          <path class="cls-1" d="M79.004,106.154c.239.214.112.835-.028,1.001-8.609,10.208-39.013,43.567-39.013,43.568-4.592,4.592-8.184,4.84-9.291,3.716-1.065-1.081.276-5.59,3.712-9.026,0,0,38.916-35.761,43.433-39.024.219-.158.918-.475,1.187-.234Z"/>
          <path class="cls-1" d="M77.628,103.643c.112.211-.075.587-.191.657-7.146,4.331-31.914,17.838-31.914,17.838-3.664,1.743-5.951.884-6.448-.178-.479-1.022,1.139-3.637,3.881-4.941,0,0,30.503-12.677,33.89-13.559.164-.043.656-.054.782.183Z"/>
          <path class="cls-1" d="M81.433,107.449c-.211-.112-.587.075-.657.191-4.331,7.146-17.838,31.914-17.838,31.914-1.743,3.664-.884,5.951.178,6.448,1.022.479,3.637-1.139,4.941-3.881,0,0,12.677-30.503,13.559-33.89.043-.164.054-.656-.183-.782Z"/>
          <path class="cls-1" d="M84.457,108.362c-.203.012-.407.212-.412.286-.315,4.607-.285,20.121-.285,20.121.194,2.218,1.767,3.014,2.762,2.923.957-.088,2.246-1.624,2.101-3.284,0,0-2.987-17.911-3.71-19.741-.035-.089-.227-.319-.455-.306Z"/>
          <path class="cls-1" d="M76.88,100.785c-.012.203-.212.407-.286.412-4.607.315-20.121.285-20.121.285-2.218-.194-3.014-1.767-2.923-2.762.088-.957,1.624-2.246,3.284-2.101,0,0,17.911,2.987,19.741,3.71.089.035.319.227.306.455Z"/>
          <circle class="cls-1" cx="83.897" cy="101.344" r="3.725"/>
        </g>
        <circle class="cls-1" cx="92.658" cy="92.584" r="6.673"/>
      </g>
      <g>
        <g>
          <path class="cls-1" d="M421.154,421.311c.214-.239.835-.112,1.001.028,10.208,8.609,43.567,39.013,43.568,39.013,4.592,4.592,4.84,8.184,3.716,9.291-1.081,1.065-5.59-.276-9.026-3.712,0,0-35.761-38.916-39.024-43.433-.158-.219-.475-.918-.234-1.187Z"/>
          <path class="cls-1" d="M418.643,422.688c.211-.112.587.075.657.191,4.331,7.146,17.838,31.914,17.838,31.914,1.743,3.664.884,5.951-.178,6.448-1.022.479-3.637-1.139-4.941-3.881,0,0-12.677-30.503-13.559-33.89-.043-.164-.054-.656.183-.782Z"/>
          <path class="cls-1" d="M422.449,418.882c-.112.211.075.587.191.657,7.146,4.331,31.914,17.838,31.914,17.838,3.664,1.743,5.951.884,6.448-.178.479-1.022-1.139-3.637-3.881-4.941,0,0-30.503-12.677-33.89-13.559-.164-.043-.656-.054-.782.183Z"/>
          <path class="cls-1" d="M423.362,415.858c.012.203.212.407.286.412,4.607.315,20.121.285,20.121.285,2.218-.194,3.014-1.767,2.923-2.762-.088-.957-1.624-2.246-3.284-2.101,0,0-17.911,2.987-19.741,3.71-.089.035-.319.227-.306.455Z"/>
          <path class="cls-1" d="M415.785,423.435c.203.012.407.212.412.286.315,4.607.285,20.121.285,20.121-.194,2.218-1.767,3.014-2.762,2.923-.957-.088-2.246-1.624-2.101-3.284,0,0,2.987-17.911,3.71-19.741.035-.089.227-.319.455-.306Z"/>
          <circle class="cls-1" cx="416.344" cy="416.418" r="3.725"/>
        </g>
        <g>
          <path class="cls-1" d="M420.996,393.846c-.239-.214-.112-.835.028-1.001,8.609-10.208,39.013-43.567,39.013-43.568,4.592-4.592,8.184-4.84,9.291-3.716,1.065,1.081-.276,5.59-3.712,9.026,0,0-38.916,35.761-43.433,39.024-.219.158-.918.475-1.187.234Z"/>
          <path class="cls-1" d="M422.372,396.357c-.112-.211.075-.587.191-.657,7.146-4.331,31.914-17.838,31.914-17.838,3.664-1.743,5.951-.884,6.448.178.479,1.022-1.139,3.637-3.881,4.941,0,0-30.503,12.677-33.89,13.559-.164.043-.656.054-.782-.183Z"/>
          <path class="cls-1" d="M418.567,392.551c.211.112.587-.075.657-.191,4.331-7.146,17.838-31.914,17.838-31.914,1.743-3.664.884-5.951-.178-6.448-1.022-.479-3.637,1.139-4.941,3.881,0,0-12.677,30.503-13.559,33.89-.043.164-.054.656.183.782Z"/>
          <path class="cls-1" d="M415.543,391.638c.203-.012.407-.212.412-.286.315-4.607.285-20.121.285-20.121-.194-2.218-1.767-3.014-2.762-2.923-.957.088-2.246,1.624-2.101,3.284,0,0,2.987,17.911,3.71,19.741.035.089.227.319.455.306Z"/>
          <path class="cls-1" d="M423.12,399.215c.012-.203.212-.407.286-.412,4.607-.315,20.121-.285,20.121-.285,2.218.194,3.014,1.767,2.923,2.762-.088.957-1.624,2.246-3.284,2.101,0,0-17.911-2.987-19.741-3.71-.089-.035-.319-.227-.306-.455Z"/>
          <circle class="cls-1" cx="416.103" cy="398.656" r="3.725"/>
        </g>
        <g>
          <path class="cls-1" d="M393.689,420.986c.239.214.112.835-.028,1.001-8.609,10.208-39.013,43.567-39.013,43.568-4.592,4.592-8.184,4.84-9.291,3.716-1.065-1.081.276-5.59,3.712-9.026,0,0,38.916-35.761,43.433-39.024.219-.158.918-.475,1.187-.234Z"/>
          <path class="cls-1" d="M392.312,418.475c.112.211-.075.587-.191.657-7.146,4.331-31.914,17.838-31.914,17.838-3.664,1.743-5.951.884-6.448-.178-.479-1.022,1.139-3.637,3.881-4.941,0,0,30.503-12.677,33.89-13.559.164-.043.656-.054.782.183Z"/>
          <path class="cls-1" d="M396.118,422.281c-.211-.112-.587.075-.657.191-4.331,7.146-17.838,31.914-17.838,31.914-1.743,3.664-.884,5.951.178,6.448,1.022.479,3.637-1.139,4.941-3.881,0,0,12.677-30.503,13.559-33.89.043-.164.054-.656-.183-.782Z"/>
          <path class="cls-1" d="M399.142,423.194c-.203.012-.407.212-.412.286-.315,4.607-.285,20.121-.285,20.121.194,2.218,1.767,3.014,2.762,2.923.957-.088,2.246-1.624,2.101-3.284,0,0-2.987-17.911-3.71-19.741-.035-.089-.227-.319-.455-.306Z"/>
          <path class="cls-1" d="M391.565,415.616c-.012.203-.212.407-.286.412-4.607.315-20.121.285-20.121.285-2.218-.194-3.014-1.767-2.923-2.762.088-.957,1.624-2.246,3.284-2.101,0,0,17.911,2.987,19.741,3.71.089.035.319.227.306.455Z"/>
          <circle class="cls-1" cx="398.582" cy="416.176" r="3.725"/>
        </g>
        <circle class="cls-1" cx="407.342" cy="407.416" r="6.673"/>
      </g>
      <g>
        <g>
          <path class="cls-1" d="M78.689,421.154c.239.214.112.835-.028,1.001-8.609,10.208-39.013,43.567-39.013,43.568-4.592,4.592-8.184,4.84-9.291,3.716-1.065-1.081.276-5.59,3.712-9.026,0,0,38.916-35.761,43.433-39.024.219-.158.918-.475,1.187-.234Z"/>
          <path class="cls-1" d="M77.312,418.643c.112.211-.075.587-.191.657-7.146,4.331-31.914,17.838-31.914,17.838-3.664,1.743-5.951.884-6.448-.178-.479-1.022,1.139-3.637,3.881-4.941,0,0,30.503-12.677,33.89-13.559.164-.043.656-.054.782.183Z"/>
          <path class="cls-1" d="M81.118,422.449c-.211-.112-.587.075-.657.191-4.331,7.146-17.838,31.914-17.838,31.914-1.743,3.664-.884,5.951.178,6.448,1.022.479,3.637-1.139,4.941-3.881,0,0,12.677-30.503,13.559-33.89.043-.164.054-.656-.183-.782Z"/>
          <path class="cls-1" d="M84.142,423.362c-.203.012-.407.212-.412.286-.315,4.607-.285,20.121-.285,20.121.194,2.218,1.767,3.014,2.762,2.923.957-.088,2.246-1.624,2.101-3.284,0,0-2.987-17.911-3.71-19.741-.035-.089-.227-.319-.455-.306Z"/>
          <path class="cls-1" d="M76.565,415.785c-.012.203-.212.407-.286.412-4.607.315-20.121.285-20.121.285-2.218-.194-3.014-1.767-2.923-2.762.088-.957,1.624-2.246,3.284-2.101,0,0,17.911,2.987,19.741,3.71.089.035.319.227.306.455Z"/>
          <circle class="cls-1" cx="83.582" cy="416.344" r="3.725"/>
        </g>
        <g>
          <path class="cls-1" d="M79.014,393.689c-.214.239-.835.112-1.001-.028-10.208-8.609-43.567-39.013-43.568-39.013-4.592-4.592-4.84-8.184-3.716-9.291,1.081-1.065,5.59.276,9.026,3.712,0,0,35.761,38.916,39.024,43.433.158.219.475.918.234,1.187Z"/>
          <path class="cls-1" d="M81.525,392.312c-.211.112-.587-.075-.657-.191-4.331-7.146-17.838-31.914-17.838-31.914-1.743-3.664-.884-5.951.178-6.448,1.022-.479,3.637,1.139,4.941,3.881,0,0,12.677,30.503,13.559,33.89.043.164.054.656-.183.782Z"/>
          <path class="cls-1" d="M77.719,396.118c.112-.211-.075-.587-.191-.657-7.146-4.331-31.914-17.838-31.914-17.838-3.664-1.743-5.951-.884-6.448.178-.479,1.022,1.139,3.637,3.881,4.941,0,0,30.503,12.677,33.89,13.559.164.043.656.054.782-.183Z"/>
          <path class="cls-1" d="M76.806,399.142c-.012-.203-.212-.407-.286-.412-4.607-.315-20.121-.285-20.121-.285-2.218.194-3.014,1.767-2.923,2.762.088.957,1.624,2.246,3.284,2.101,0,0,17.911-2.987,19.741-3.71.089-.035.319-.227.306-.455Z"/>
          <path class="cls-1" d="M84.384,391.565c-.203-.012-.407-.212-.412-.286-.315-4.607-.285-20.121-.285-20.121.194-2.218,1.767-3.014,2.762-2.923.957.088,2.246,1.624,2.101,3.284,0,0-2.987,17.911-3.71,19.741-.035.089-.227.319-.455.306Z"/>
          <circle class="cls-1" cx="83.824" cy="398.582" r="3.725"/>
        </g>
        <g>
          <path class="cls-1" d="M106.154,420.996c.214-.239.835-.112,1.001.028,10.208,8.609,43.567,39.013,43.568,39.013,4.592,4.592,4.84,8.184,3.716,9.291-1.081,1.065-5.59-.276-9.026-3.712,0,0-35.761-38.916-39.024-43.433-.158-.219-.475-.918-.234-1.187Z"/>
          <path class="cls-1" d="M103.643,422.372c.211-.112.587.075.657.191,4.331,7.146,17.838,31.914,17.838,31.914,1.743,3.664.884,5.951-.178,6.448-1.022.479-3.637-1.139-4.941-3.881,0,0-12.677-30.503-13.559-33.89-.043-.164-.054-.656.183-.782Z"/>
          <path class="cls-1" d="M107.449,418.567c-.112.211.075.587.191.657,7.146,4.331,31.914,17.838,31.914,17.838,3.664,1.743,5.951.884,6.448-.178.479-1.022-1.139-3.637-3.881-4.941,0,0-30.503-12.677-33.89-13.559-.164-.043-.656-.054-.782.183Z"/>
          <path class="cls-1" d="M108.362,415.543c.012.203.212.407.286.412,4.607.315,20.121.285,20.121.285,2.218-.194,3.014-1.767,2.923-2.762-.088-.957-1.624-2.246-3.284-2.101,0,0-17.911,2.987-19.741,3.71-.089.035-.319.227-.306.455Z"/>
          <path class="cls-1" d="M100.785,423.12c.203.012.407.212.412.286.315,4.607.285,20.121.285,20.121-.194,2.218-1.767,3.014-2.762,2.923-.957-.088-2.246-1.624-2.101-3.284,0,0,2.987-17.911,3.71-19.741.035-.089.227-.319.455-.306Z"/>
          <circle class="cls-1" cx="101.344" cy="416.103" r="3.725"/>
        </g>
        <circle class="cls-1" cx="92.584" cy="407.342" r="6.673"/>
      </g>
      <g>
        <g>
          <path class="cls-1" d="M421.311,78.846c-.239-.214-.112-.835.028-1.001,8.609-10.208,39.013-43.567,39.013-43.568,4.592-4.592,8.184-4.84,9.291-3.716,1.065,1.081-.276,5.59-3.712,9.026,0,0-38.916,35.761-43.433,39.024-.219.158-.918.475-1.187.234Z"/>
          <path class="cls-1" d="M422.688,81.357c-.112-.211.075-.587.191-.657,7.146-4.331,31.914-17.838,31.914-17.838,3.664-1.743,5.951-.884,6.448.178.479,1.022-1.139,3.637-3.881,4.941,0,0-30.503,12.677-33.89,13.559-.164.043-.656.054-.782-.183Z"/>
          <path class="cls-1" d="M418.882,77.551c.211.112.587-.075.657-.191,4.331-7.146,17.838-31.914,17.838-31.914,1.743-3.664.884-5.951-.178-6.448-1.022-.479-3.637,1.139-4.941,3.881,0,0-12.677,30.503-13.559,33.89-.043.164-.054.656.183.782Z"/>
          <path class="cls-1" d="M415.858,76.638c.203-.012.407-.212.412-.286.315-4.607.285-20.121.285-20.121-.194-2.218-1.767-3.014-2.762-2.923-.957.088-2.246,1.624-2.101,3.284,0,0,2.987,17.911,3.71,19.741.035.089.227.319.455.306Z"/>
          <path class="cls-1" d="M423.435,84.215c.012-.203.212-.407.286-.412,4.607-.315,20.121-.285,20.121-.285,2.218.194,3.014,1.767,2.923,2.762-.088.957-1.624,2.246-3.284,2.101,0,0-17.911-2.987-19.741-3.71-.089-.035-.319-.227-.306-.455Z"/>
          <circle class="cls-1" cx="416.418" cy="83.656" r="3.725"/>
        </g>
        <g>
          <path class="cls-1" d="M420.986,106.311c.214-.239.835-.112,1.001.028,10.208,8.609,43.567,39.013,43.568,39.013,4.592,4.592,4.84,8.184,3.716,9.291-1.081,1.065-5.59-.276-9.026-3.712,0,0-35.761-38.916-39.024-43.433-.158-.219-.475-.918-.234-1.187Z"/>
          <path class="cls-1" d="M418.475,107.688c.211-.112.587.075.657.191,4.331,7.146,17.838,31.914,17.838,31.914,1.743,3.664.884,5.951-.178,6.448-1.022.479-3.637-1.139-4.941-3.881,0,0-12.677-30.503-13.559-33.89-.043-.164-.054-.656.183-.782Z"/>
          <path class="cls-1" d="M422.281,103.882c-.112.211.075.587.191.657,7.146,4.331,31.914,17.838,31.914,17.838,3.664,1.743,5.951.884,6.448-.178.479-1.022-1.139-3.637-3.881-4.941,0,0-30.503-12.677-33.89-13.559-.164-.043-.656-.054-.782.183Z"/>
          <path class="cls-1" d="M423.194,100.858c.012.203.212.407.286.412,4.607.315,20.121.285,20.121.285,2.218-.194,3.014-1.767,2.923-2.762-.088-.957-1.624-2.246-3.284-2.101,0,0-17.911,2.987-19.741,3.71-.089.035-.319.227-.306.455Z"/>
          <path class="cls-1" d="M415.616,108.435c.203.012.407.212.412.286.315,4.607.285,20.121.285,20.121-.194,2.218-1.767,3.014-2.762,2.923-.957-.088-2.246-1.624-2.101-3.284,0,0,2.987-17.911,3.71-19.741.035-.089.227-.319.455-.306Z"/>
          <circle class="cls-1" cx="416.176" cy="101.418" r="3.725"/>
        </g>
        <g>
          <path class="cls-1" d="M393.846,79.004c-.214.239-.835.112-1.001-.028-10.208-8.609-43.567-39.013-43.568-39.013-4.592-4.592-4.84-8.184-3.716-9.291,1.081-1.065,5.59.276,9.026,3.712,0,0,35.761,38.916,39.024,43.433.158.219.475.918.234,1.187Z"/>
          <path class="cls-1" d="M396.357,77.628c-.211.112-.587-.075-.657-.191-4.331-7.146-17.838-31.914-17.838-31.914-1.743-3.664-.884-5.951.178-6.448,1.022-.479,3.637,1.139,4.941,3.881,0,0,12.677,30.503,13.559,33.89.043.164.054.656-.183.782Z"/>
          <path class="cls-1" d="M392.551,81.433c.112-.211-.075-.587-.191-.657-7.146-4.331-31.914-17.838-31.914-17.838-3.664-1.743-5.951-.884-6.448.178-.479,1.022,1.139,3.637,3.881,4.941,0,0,30.503,12.677,33.89,13.559.164.043.656.054.782-.183Z"/>
          <path class="cls-1" d="M391.638,84.457c-.012-.203-.212-.407-.286-.412-4.607-.315-20.121-.285-20.121-.285-2.218.194-3.014,1.767-2.923,2.762.088.957,1.624,2.246,3.284,2.101,0,0,17.911-2.987,19.741-3.71.089-.035.319-.227.306-.455Z"/>
          <path class="cls-1" d="M399.215,76.88c-.203-.012-.407-.212-.412-.286-.315-4.607-.285-20.121-.285-20.121.194-2.218,1.767-3.014,2.762-2.923.957.088,2.246,1.624,2.101,3.284,0,0-2.987,17.911-3.71,19.741-.035.089-.227.319-.455.306Z"/>
          <circle class="cls-1" cx="398.656" cy="83.897" r="3.725"/>
        </g>
        <circle class="cls-1" cx="407.416" cy="92.658" r="6.673"/>
      </g>
    </g>
    <g>
      <polygon class="cls-1" points="332.27 91.495 315.66 91.495 303.91 79.745 250 25.835 184.34 91.495 167.73 91.495 250 9.225 320.53 79.745 332.27 91.495"/>
      <polygon class="cls-1" points="490.78 249.995 407.95 332.825 407.95 315.425 473.77 249.605 407.95 183.785 407.95 167.165 420.26 179.475 490.78 249.995"/>
      <polygon class="cls-1" points="332.82 407.955 250 490.775 179.48 420.255 167.18 407.955 184.58 407.955 250 473.375 303.12 420.255 315.42 407.955 332.82 407.955"/>
      <polygon class="cls-1" points="79.75 196.085 26.23 249.605 79.74 303.115 91.49 314.865 91.49 332.265 79.74 320.515 9.22 249.995 79.75 179.475 91.49 167.725 91.49 184.345 79.75 196.085"/>
    </g>
  </g>
</svg>