<?xml version="1.0" encoding="UTF-8"?>
<svg id="Layer_1" data-name="Layer 1" xmlns="http://www.w3.org/2000/svg" viewBox="0 0 300 326">
  <defs>
    <style>
      .cls-1 {
        fill: #fffaf0;
      }
    </style>
  </defs>
  <g>
    <path class="cls-1" d="M132.507,263.14l-16.838-22.316v16.522c0,1.37.067,2.271.202,2.704s.518.831,1.15,1.194,1.58.544,2.844.544v.808h-8.884v-.808c1.135-.082,2.002-.29,2.599-.623s.951-.694,1.062-1.08.167-1.299.167-2.739v-12.624c0-1.826-.085-3.049-.255-3.67s-.439-1.018-.808-1.194-1.191-.263-2.467-.263v-.808h7.023l14.099,18.629v-14.239c0-1.053-.108-1.791-.325-2.212s-.658-.755-1.326-1.001-1.469-.369-2.405-.369v-.808h8.638v.808c-1.007.082-1.8.275-2.379.579s-.948.67-1.106,1.097-.237,1.15-.237,2.168v19.7h-.755Z"/>
    <path class="cls-1" d="M152.602,257.409h.59l-.357,5.187h-13.802v-.566h.344c.828,0,1.362-.11,1.604-.332.241-.221.395-.502.461-.841.065-.34.098-1.206.098-2.6v-8.173c0-1.27-.035-2.105-.105-2.507-.069-.401-.229-.682-.479-.842-.25-.159-.776-.239-1.579-.239v-.566h11.91l.393,4.154h-.577c-.263-1.163-.584-1.988-.965-2.476-.381-.487-.834-.794-1.359-.922-.524-.127-1.368-.19-2.531-.19h-2.311v6.993h1.77c.811,0,1.379-.069,1.702-.209.324-.139.537-.35.639-.633.102-.282.154-.833.154-1.653h.577v5.703h-.577c0-.926-.078-1.547-.233-1.862-.156-.315-.383-.521-.683-.615-.299-.094-.805-.142-1.518-.142h-1.831v3.945c0,1.975.127,3.136.381,3.485s.938.522,2.053.522h1.241c.877,0,1.598-.113,2.163-.338s1.104-.688,1.616-1.389c.512-.701.916-1.666,1.211-2.895Z"/>
    <path class="cls-1" d="M165.032,262.989h-.762l-5.752-13.249c-.106-.238-.274-.647-.503-1.229-.32-.786-.656-1.315-1.008-1.585-.353-.271-.922-.414-1.708-.43v-.566h7.178v.566c-.893,0-1.493.066-1.8.197s-.461.38-.461.749c0,.238.192.795.577,1.672l4.793,11.061,3.847-9.205c.647-1.541.971-2.544.971-3.011,0-.942-.668-1.43-2.003-1.462v-.566h5.088v.566c-.516.016-.971.2-1.364.553-.394.352-.733.868-1.02,1.549l-1.119,2.618-4.954,11.774Z"/>
    <path class="cls-1" d="M182.677,256.451h-6.33l-.43,1.057c-.639,1.532-.958,2.531-.958,2.999,0,.5.17.879.51,1.137s.776.387,1.309.387v.566h-4.953v-.566c.737-.115,1.286-.375,1.647-.781.361-.405.794-1.26,1.303-2.563.041-.123.238-.598.59-1.425l4.842-11.566h.48l5.567,13.236.762,1.746c.172.394.403.702.694.928.29.226.727.367,1.309.424v.566h-6.551v-.566c.803,0,1.345-.059,1.628-.179.282-.119.424-.354.424-.707,0-.18-.189-.717-.566-1.609l-1.278-3.085ZM182.469,255.898l-2.95-7.104-2.938,7.104h5.888Z"/>
  </g>
  <g>
    <path class="cls-1" d="M66.183,293.666l8.674-19.7h7.304v.808h-.878c-1.171,0-1.937.097-2.3.29s-.606.553-.729,1.08-.184,1.779-.184,3.757v11.676c0,1.873.047,3.099.14,3.678s.331,1.01.711,1.291,1.109.421,2.186.421h1.053v.808h-11.378v-.808h.843c1.007,0,1.706-.129,2.098-.386s.644-.658.755-1.203.167-1.811.167-3.801v-15.152l-9.429,21.35h-.825l-9.499-21.35v13.941c0,1.908.059,3.207.176,3.898s.48,1.296,1.089,1.817,1.463.816,2.563.887v.808h-8.516v-.808c1.018-.059,1.847-.337,2.484-.834s1.027-1.109,1.168-1.835.211-2.072.211-4.038v-10.359c0-1.896-.056-3.119-.167-3.67s-.345-.931-.702-1.141-1.138-.316-2.344-.316h-.65v-.808h7.251l8.726,19.7Z"/>
    <path class="cls-1" d="M95.508,291.629h-6.33l-.43,1.057c-.639,1.532-.958,2.531-.958,2.999,0,.5.17.879.51,1.137s.776.387,1.309.387v.566h-4.953v-.566c.737-.115,1.286-.375,1.647-.781.361-.405.794-1.26,1.303-2.563.041-.123.238-.598.59-1.425l4.842-11.566h.48l5.567,13.236.762,1.746c.172.394.403.702.694.928.29.226.727.367,1.309.424v.566h-6.551v-.566c.803,0,1.345-.059,1.628-.179.282-.119.424-.354.424-.707,0-.18-.189-.717-.566-1.609l-1.278-3.085ZM95.299,291.076l-2.95-7.104-2.938,7.104h5.888Z"/>
    <path class="cls-1" d="M104.399,297.602v-5.359h.615c.696,3.49,2.348,5.236,4.954,5.236,1.171,0,2.079-.334,2.722-1.002.643-.667.965-1.415.965-2.243,0-.835-.283-1.536-.848-2.101-.566-.557-1.598-1.156-3.098-1.795-1.336-.574-2.343-1.075-3.024-1.506s-1.211-.99-1.591-1.678c-.381-.688-.572-1.421-.572-2.201,0-1.187.412-2.177,1.236-2.968.823-.791,1.866-1.186,3.127-1.186.705,0,1.369.115,1.991.344.623.23,1.262.705,1.917,1.426.377-.451.59-.938.639-1.462h.541v4.363h-.541c-.311-1.27-.862-2.269-1.653-2.999s-1.707-1.094-2.747-1.094c-.991,0-1.718.268-2.182.805-.463.537-.694,1.124-.694,1.764,0,.77.29,1.421.873,1.954.573.541,1.609,1.147,3.109,1.819,1.434.639,2.476,1.154,3.128,1.543.651.389,1.173.928,1.567,1.616.393.688.59,1.483.59,2.384,0,1.426-.476,2.585-1.426,3.479-.95.893-2.22,1.34-3.81,1.34-1.827,0-3.351-.701-4.572-2.102-.271.386-.472.926-.603,1.623h-.615Z"/>
    <path class="cls-1" d="M129.465,298.02c-.386.041-.799.061-1.241.061-2.679,0-4.865-.797-6.557-2.391-1.692-1.593-2.538-3.713-2.538-6.36,0-2.564.858-4.627,2.575-6.188,1.716-1.56,3.865-2.341,6.446-2.341,1.59,0,3.126.346,4.609,1.039,1.483.692,2.606,1.716,3.367,3.073.762,1.356,1.143,2.858,1.143,4.504,0,1.917-.498,3.613-1.493,5.088-.996,1.475-2.436,2.507-4.321,3.098l-3.675,2.028c.254-.025.476-.037.664-.037,1.819,0,3.912.41,6.281,1.229,1.819.631,3.261.947,4.327.947,1.475,0,2.351-.557,2.63-1.672h.516c-.14,1.131-.611,2.048-1.413,2.753-.803.705-1.84,1.057-3.11,1.057-.835,0-1.596-.135-2.28-.405-.684-.271-1.575-.754-2.673-1.451-1.966-1.253-3.605-1.88-4.916-1.88-.786,0-1.549.311-2.286.934-.492.409-.832.615-1.02.615-.296,0-.443-.135-.443-.406,0-.205.176-.416.528-.633.353-.217,1.016-.563,1.991-1.039.205-.098.41-.205.615-.319l2.274-1.303ZM121.943,289.417c0,2.679.535,4.691,1.604,6.035,1.069,1.344,2.673,2.015,4.812,2.015,1.876,0,3.359-.672,4.449-2.015,1.09-1.344,1.635-3.348,1.635-6.011,0-2.589-.537-4.574-1.61-5.954s-2.63-2.071-4.67-2.071c-2.007,0-3.546.674-4.615,2.022-1.07,1.348-1.604,3.341-1.604,5.979Z"/>
    <path class="cls-1" d="M152.17,281.108h5.567v.566c-.737.049-1.288.215-1.653.497-.364.283-.587.601-.669.953-.082.353-.123,1.037-.123,2.053v5.543c0,1.417-.056,2.47-.166,3.158s-.43,1.364-.958,2.028c-.529.664-1.272,1.192-2.231,1.585-.958.394-2.065.59-3.318.59-1.483,0-2.738-.252-3.767-.756-1.028-.504-1.762-1.156-2.2-1.955s-.658-1.87-.658-3.214l.012-1.708v-5.187c0-1.327-.039-2.183-.117-2.569-.078-.385-.241-.651-.492-.799-.249-.147-.797-.221-1.64-.221h-.381v-.566h7.608v.566h-.332c-.819,0-1.356.067-1.609.203-.255.135-.424.387-.511.756-.086.369-.129,1.246-.129,2.63v5.248c0,1.819.084,3.109.252,3.872.168.762.642,1.428,1.42,1.997.778.57,1.814.854,3.109.854,1.016,0,1.94-.191,2.772-.572.831-.38,1.45-.856,1.855-1.425.406-.57.653-1.156.744-1.758.09-.602.135-1.55.135-2.845v-5.679c0-.942-.053-1.601-.16-1.978-.106-.377-.336-.676-.688-.898-.352-.221-.909-.356-1.671-.405v-.566Z"/>
    <path class="cls-1" d="M173.904,292.587h.59l-.357,5.187h-13.802v-.566h.344c.828,0,1.362-.11,1.604-.332.241-.221.395-.502.461-.841.065-.34.098-1.206.098-2.6v-8.173c0-1.27-.035-2.105-.105-2.507-.069-.401-.229-.682-.479-.842-.25-.159-.776-.239-1.579-.239v-.566h11.91l.393,4.154h-.577c-.263-1.163-.584-1.988-.965-2.476-.381-.487-.834-.794-1.359-.922-.524-.127-1.368-.19-2.531-.19h-2.311v6.993h1.77c.811,0,1.379-.069,1.702-.209.324-.139.537-.35.639-.633.102-.282.154-.833.154-1.653h.577v5.703h-.577c0-.926-.078-1.547-.233-1.862-.156-.315-.383-.521-.683-.615-.299-.094-.805-.142-1.518-.142h-1.831v3.945c0,1.975.127,3.136.381,3.485s.938.522,2.053.522h1.241c.877,0,1.598-.113,2.163-.338s1.104-.688,1.616-1.389c.512-.701.916-1.666,1.211-2.895Z"/>
    <path class="cls-1" d="M194.828,297.774h-4.486c-.794-.557-2.011-2.015-3.65-4.376-.525-.754-1.07-1.477-1.635-2.169-.566-.693-.955-1.114-1.168-1.266-.213-.151-.545-.227-.996-.227h-.664v3.699c0,1.311.031,2.17.092,2.575s.225.707.492.903.776.295,1.53.295h.799v.566h-7.976v-.566h.541c.713,0,1.206-.09,1.481-.271.274-.18.448-.461.522-.841.074-.381.11-1.268.11-2.661v-8.173c0-1.327-.037-2.183-.11-2.569-.074-.385-.238-.651-.492-.799-.254-.147-.803-.221-1.647-.221h-.282v-.566l2.384-.123c1.59-.074,2.851-.11,3.785-.11,1.59,0,2.882.147,3.878.443.995.295,1.8.778,2.415,1.45s.922,1.475.922,2.409c0,1.089-.402,2.02-1.205,2.79-.803.77-1.983,1.25-3.539,1.438.696.336,1.819,1.549,3.367,3.638,1.262,1.696,2.253,2.806,2.975,3.331.721.524,1.573.803,2.556.835v.566ZM182.23,289.171c.615-.017,1.25-.041,1.905-.074s1.225-.123,1.708-.271c.484-.147.875-.362,1.174-.645.299-.282.535-.653.707-1.112s.258-1.024.258-1.696c0-1.172-.293-2.11-.879-2.815-.585-.705-1.862-1.056-3.828-1.056-.303,0-.651.016-1.045.049v7.62Z"/>
    <path class="cls-1" d="M207,291.629h-6.33l-.43,1.057c-.639,1.532-.958,2.531-.958,2.999,0,.5.17.879.51,1.137s.776.387,1.309.387v.566h-4.953v-.566c.737-.115,1.286-.375,1.647-.781.361-.405.794-1.26,1.303-2.563.041-.123.238-.598.59-1.425l4.842-11.566h.48l5.567,13.236.762,1.746c.172.394.403.702.694.928.29.226.727.367,1.309.424v.566h-6.551v-.566c.803,0,1.345-.059,1.628-.179.282-.119.424-.354.424-.707,0-.18-.189-.717-.566-1.609l-1.278-3.085ZM206.791,291.076l-2.95-7.104-2.938,7.104h5.888Z"/>
    <path class="cls-1" d="M215.03,281.243l2.741-.135c2.286-.115,3.826-.172,4.621-.172,2.474,0,4.404.377,5.788,1.13,1.385.754,2.416,1.776,3.092,3.067s1.014,2.78,1.014,4.468c0,1.221-.184,2.337-.553,3.349s-.875,1.852-1.518,2.52c-.644.668-1.389,1.176-2.237,1.524s-1.653.566-2.415.651c-.762.086-1.836.129-3.22.129h-7.386v-.566h.688c.713,0,1.206-.09,1.481-.271.274-.18.451-.461.528-.841.078-.381.117-1.268.117-2.661v-8.038c0-1.327-.039-2.185-.117-2.574-.078-.389-.241-.655-.492-.799s-.797-.215-1.641-.215h-.492v-.566ZM220.168,281.587v11.135c0,1.647.031,2.708.092,3.183.061.476.246.809.553,1.002.307.193.956.289,1.948.289,1.45,0,2.642-.198,3.576-.596.934-.397,1.715-1.179,2.342-2.347.627-1.168.94-2.657.94-4.468,0-1.409-.182-2.667-.547-3.773-.364-1.106-.887-2.005-1.567-2.697-.68-.693-1.434-1.164-2.261-1.413-.827-.25-1.888-.375-3.183-.375-.623,0-1.254.02-1.893.061Z"/>
    <path class="cls-1" d="M249.204,292.587h.59l-.357,5.187h-13.802v-.566h.344c.828,0,1.362-.11,1.604-.332.241-.221.395-.502.461-.841.065-.34.098-1.206.098-2.6v-8.173c0-1.27-.035-2.105-.105-2.507-.069-.401-.229-.682-.479-.842-.25-.159-.776-.239-1.579-.239v-.566h11.91l.393,4.154h-.577c-.263-1.163-.584-1.988-.965-2.476-.381-.487-.834-.794-1.359-.922-.524-.127-1.368-.19-2.531-.19h-2.311v6.993h1.77c.811,0,1.379-.069,1.702-.209.324-.139.537-.35.639-.633.102-.282.154-.833.154-1.653h.577v5.703h-.577c0-.926-.078-1.547-.233-1.862-.156-.315-.383-.521-.683-.615-.299-.094-.805-.142-1.518-.142h-1.831v3.945c0,1.975.127,3.136.381,3.485s.938.522,2.053.522h1.241c.877,0,1.598-.113,2.163-.338s1.104-.688,1.616-1.389c.512-.701.916-1.666,1.211-2.895Z"/>
  </g>
  <g>
    <g>
      <polygon class="cls-1" points="101.67 69.813 150.084 149.385 150.208 170.864 107.28 100.658 107.249 168.694 101.67 163.112 101.67 69.813"/>
      <polygon class="cls-1" points="133.876 69.813 166.532 123.753 198.33 69.136 198.33 163.089 192.818 168.604 192.639 100.363 166.498 145.396 133.876 92.015 133.876 69.813"/>
    </g>
    <g>
      <g>
        <g>
          <path class="cls-1" d="M80.338,50.275c-.087.097-.34.045-.407-.011-4.155-3.504-17.732-15.879-17.732-15.879-1.869-1.869-1.97-3.331-1.512-3.781.44-.434,2.275.112,3.674,1.511,0,0,14.555,15.839,15.883,17.678.064.089.193.374.095.483Z"/>
          <path class="cls-1" d="M81.36,49.714c-.086.046-.239-.03-.268-.078-1.763-2.908-7.26-12.989-7.26-12.989-.71-1.491-.36-2.422.072-2.624.416-.195,1.48.464,2.011,1.58,0,0,5.16,12.415,5.519,13.793.017.067.022.267-.074.318Z"/>
          <path class="cls-1" d="M79.811,51.263c.046-.086-.03-.239-.078-.268-2.908-1.763-12.989-7.26-12.989-7.26-1.491-.71-2.422-.36-2.624.072-.195.416.464,1.48,1.58,2.011,0,0,12.415,5.16,13.793,5.519.067.017.267.022.318-.074Z"/>
          <path class="cls-1" d="M79.44,52.494c-.005-.083-.086-.166-.117-.168-1.875-.128-8.189-.116-8.189-.116-.903.079-1.227.719-1.19,1.124.036.389.661.914,1.337.855,0,0,7.29-1.216,8.035-1.51.036-.014.13-.092.125-.185Z"/>
          <path class="cls-1" d="M82.524,49.41c-.083-.005-.166-.086-.168-.117-.128-1.875-.116-8.189-.116-8.189.079-.903.719-1.227,1.124-1.19.389.036.914.661.855,1.337,0,0-1.216,7.29-1.51,8.035-.014.036-.092.13-.185.125Z"/>
          <circle class="cls-1" cx="82.296" cy="52.266" r="1.516"/>
        </g>
        <g>
          <path class="cls-1" d="M91.517,50.407c-.097-.087-.045-.34.011-.407,3.504-4.155,15.879-17.732,15.879-17.732,1.869-1.869,3.331-1.97,3.781-1.512.434.44-.112,2.275-1.511,3.674,0,0-15.839,14.555-17.678,15.883-.089.064-.374.193-.483.095Z"/>
          <path class="cls-1" d="M92.077,51.429c-.046-.086.03-.239.078-.268,2.908-1.763,12.989-7.26,12.989-7.26,1.491-.71,2.422-.36,2.624.072.195.416-.464,1.48-1.58,2.011,0,0-12.415,5.16-13.793,5.519-.067.017-.267.022-.318-.074Z"/>
          <path class="cls-1" d="M90.528,49.88c.086.046.239-.03.268-.078,1.763-2.908,7.26-12.989,7.26-12.989.71-1.491.36-2.422-.072-2.624-.416-.195-1.48.464-2.011,1.58,0,0-5.16,12.415-5.519,13.793-.017.067-.022.267.074.318Z"/>
          <path class="cls-1" d="M89.298,49.508c.083-.005.166-.086.168-.117.128-1.875.116-8.189.116-8.189-.079-.903-.719-1.227-1.124-1.19-.389.036-.914.661-.855,1.337,0,0,1.216,7.29,1.51,8.035.014.036.092.13.185.125Z"/>
          <path class="cls-1" d="M92.382,52.592c.005-.083.086-.166.117-.168,1.875-.128,8.189-.116,8.189-.116.903.079,1.227.719,1.19,1.124-.036.389-.661.914-1.337.855,0,0-7.29-1.216-8.035-1.51-.036-.014-.13-.092-.125-.185Z"/>
          <circle class="cls-1" cx="89.525" cy="52.365" r="1.516"/>
        </g>
        <g>
          <path class="cls-1" d="M80.403,61.453c.097.087.045.34-.011.407-3.504,4.155-15.879,17.732-15.879,17.732-1.869,1.869-3.331,1.97-3.781,1.512-.434-.44.112-2.275,1.511-3.674,0,0,15.839-14.555,17.678-15.883.089-.064.374-.193.483-.095Z"/>
          <path class="cls-1" d="M79.843,60.431c.046.086-.03.239-.078.268-2.908,1.763-12.989,7.26-12.989,7.26-1.491.71-2.422.36-2.624-.072-.195-.416.464-1.48,1.58-2.011,0,0,12.415-5.16,13.793-5.519.067-.017.267-.022.318.074Z"/>
          <path class="cls-1" d="M81.392,61.98c-.086-.046-.239.03-.268.078-1.763,2.908-7.26,12.989-7.26,12.989-.71,1.491-.36,2.422.072,2.624.416.195,1.48-.464,2.011-1.58,0,0,5.16-12.415,5.519-13.793.017-.067.022-.267-.074-.318Z"/>
          <path class="cls-1" d="M82.622,62.352c-.083.005-.166.086-.168.117-.128,1.875-.116,8.189-.116,8.189.079.903.719,1.227,1.124,1.19.389-.036.914-.661.855-1.337,0,0-1.216-7.29-1.51-8.035-.014-.036-.092-.13-.185-.125Z"/>
          <path class="cls-1" d="M79.538,59.268c-.005.083-.086.166-.117.168-1.875.128-8.189.116-8.189.116-.903-.079-1.227-.719-1.19-1.124.036-.389.661-.914,1.337-.855,0,0,7.29,1.216,8.035,1.51.036.014.13.092.125.185Z"/>
          <circle class="cls-1" cx="82.394" cy="59.496" r="1.516"/>
        </g>
        <circle class="cls-1" cx="85.96" cy="55.93" r="2.716"/>
      </g>
      <g>
        <g>
          <path class="cls-1" d="M219.662,189.725c.087-.097.34-.045.407.011,4.155,3.504,17.732,15.879,17.732,15.879,1.869,1.869,1.97,3.331,1.512,3.781-.44.434-2.275-.112-3.674-1.511,0,0-14.555-15.839-15.883-17.678-.064-.089-.193-.374-.095-.483Z"/>
          <path class="cls-1" d="M218.64,190.286c.086-.046.239.03.268.078,1.763,2.908,7.26,12.989,7.26,12.989.71,1.491.36,2.422-.072,2.624-.416.195-1.48-.464-2.011-1.58,0,0-5.16-12.415-5.519-13.793-.017-.067-.022-.267.074-.318Z"/>
          <path class="cls-1" d="M220.189,188.737c-.046.086.03.239.078.268,2.908,1.763,12.989,7.26,12.989,7.26,1.491.71,2.422.36,2.624-.072.195-.416-.464-1.48-1.58-2.011,0,0-12.415-5.16-13.793-5.519-.067-.017-.267-.022-.318.074Z"/>
          <path class="cls-1" d="M220.56,187.506c.005.083.086.166.117.168,1.875.128,8.189.116,8.189.116.903-.079,1.227-.719,1.19-1.124-.036-.389-.661-.914-1.337-.855,0,0-7.29,1.216-8.035,1.51-.036.014-.13.092-.125.185Z"/>
          <path class="cls-1" d="M217.476,190.59c.083.005.166.086.168.117.128,1.875.116,8.189.116,8.189-.079.903-.719,1.227-1.124,1.19-.389-.036-.914-.661-.855-1.337,0,0,1.216-7.29,1.51-8.035.014-.036.092-.13.185-.125Z"/>
          <circle class="cls-1" cx="217.704" cy="187.734" r="1.516"/>
        </g>
        <g>
          <path class="cls-1" d="M219.597,178.547c-.097-.087-.045-.34.011-.407,3.504-4.155,15.879-17.732,15.879-17.732,1.869-1.869,3.331-1.97,3.781-1.512.434.44-.112,2.275-1.511,3.674,0,0-15.839,14.555-17.678,15.883-.089.064-.374.193-.483.095Z"/>
          <path class="cls-1" d="M220.157,179.569c-.046-.086.03-.239.078-.268,2.908-1.763,12.989-7.26,12.989-7.26,1.491-.71,2.422-.36,2.624.072.195.416-.464,1.48-1.58,2.011,0,0-12.415,5.16-13.793,5.519-.067.017-.267.022-.318-.074Z"/>
          <path class="cls-1" d="M218.608,178.02c.086.046.239-.03.268-.078,1.763-2.908,7.26-12.989,7.26-12.989.71-1.491.36-2.422-.072-2.624-.416-.195-1.48.464-2.011,1.58,0,0-5.16,12.415-5.519,13.793-.017.067-.022.267.074.318Z"/>
          <path class="cls-1" d="M217.378,177.648c.083-.005.166-.086.168-.117.128-1.875.116-8.189.116-8.189-.079-.903-.719-1.227-1.124-1.19-.389.036-.914.661-.855,1.337,0,0,1.216,7.29,1.51,8.035.014.036.092.13.185.125Z"/>
          <path class="cls-1" d="M220.462,180.732c.005-.083.086-.166.117-.168,1.875-.128,8.189-.116,8.189-.116.903.079,1.227.719,1.19,1.124-.036.389-.661.914-1.337.855,0,0-7.29-1.216-8.035-1.51-.036-.014-.13-.092-.125-.185Z"/>
          <circle class="cls-1" cx="217.606" cy="180.504" r="1.516"/>
        </g>
        <g>
          <path class="cls-1" d="M208.483,189.593c.097.087.045.34-.011.407-3.504,4.155-15.879,17.732-15.879,17.732-1.869,1.869-3.331,1.97-3.781,1.512-.434-.44.112-2.275,1.511-3.674,0,0,15.839-14.555,17.678-15.883.089-.064.374-.193.483-.095Z"/>
          <path class="cls-1" d="M207.923,188.571c.046.086-.03.239-.078.268-2.908,1.763-12.989,7.26-12.989,7.26-1.491.71-2.422.36-2.624-.072-.195-.416.464-1.48,1.58-2.011,0,0,12.415-5.16,13.793-5.519.067-.017.267-.022.318.074Z"/>
          <path class="cls-1" d="M209.472,190.12c-.086-.046-.239.03-.268.078-1.763,2.908-7.26,12.989-7.26,12.989-.71,1.491-.36,2.422.072,2.624.416.195,1.48-.464,2.011-1.58,0,0,5.16-12.415,5.519-13.793.017-.067.022-.267-.074-.318Z"/>
          <path class="cls-1" d="M210.702,190.492c-.083.005-.166.086-.168.117-.128,1.875-.116,8.189-.116,8.189.079.903.719,1.227,1.124,1.19.389-.036.914-.661.855-1.337,0,0-1.216-7.29-1.51-8.035-.014-.036-.092-.13-.185-.125Z"/>
          <path class="cls-1" d="M207.618,187.408c-.005.083-.086.166-.117.168-1.875.128-8.189.116-8.189.116-.903-.079-1.227-.719-1.19-1.124.036-.389.661-.914,1.337-.855,0,0,7.29,1.216,8.035,1.51.036.014.13.092.125.185Z"/>
          <circle class="cls-1" cx="210.475" cy="187.635" r="1.516"/>
        </g>
        <circle class="cls-1" cx="214.04" cy="184.07" r="2.716"/>
      </g>
      <g>
        <g>
          <path class="cls-1" d="M80.275,189.662c.097.087.045.34-.011.407-3.504,4.155-15.879,17.732-15.879,17.732-1.869,1.869-3.331,1.97-3.781,1.512-.434-.44.112-2.275,1.511-3.674,0,0,15.839-14.555,17.678-15.883.089-.064.374-.193.483-.095Z"/>
          <path class="cls-1" d="M79.714,188.64c.046.086-.03.239-.078.268-2.908,1.763-12.989,7.26-12.989,7.26-1.491.71-2.422.36-2.624-.072-.195-.416.464-1.48,1.58-2.011,0,0,12.415-5.16,13.793-5.519.067-.017.267-.022.318.074Z"/>
          <path class="cls-1" d="M81.263,190.189c-.086-.046-.239.03-.268.078-1.763,2.908-7.26,12.989-7.26,12.989-.71,1.491-.36,2.422.072,2.624.416.195,1.48-.464,2.011-1.58,0,0,5.16-12.415,5.519-13.793.017-.067.022-.267-.074-.318Z"/>
          <path class="cls-1" d="M82.494,190.56c-.083.005-.166.086-.168.117-.128,1.875-.116,8.189-.116,8.189.079.903.719,1.227,1.124,1.19.389-.036.914-.661.855-1.337,0,0-1.216-7.29-1.51-8.035-.014-.036-.092-.13-.185-.125Z"/>
          <path class="cls-1" d="M79.41,187.476c-.005.083-.086.166-.117.168-1.875.128-8.189.116-8.189.116-.903-.079-1.227-.719-1.19-1.124.036-.389.661-.914,1.337-.855,0,0,7.29,1.216,8.035,1.51.036.014.13.092.125.185Z"/>
          <circle class="cls-1" cx="82.266" cy="187.704" r="1.516"/>
        </g>
        <g>
          <path class="cls-1" d="M80.407,178.483c-.087.097-.34.045-.407-.011-4.155-3.504-17.732-15.879-17.732-15.879-1.869-1.869-1.97-3.331-1.512-3.781.44-.434,2.275.112,3.674,1.511,0,0,14.555,15.839,15.883,17.678.064.089.193.374.095.483Z"/>
          <path class="cls-1" d="M81.429,177.923c-.086.046-.239-.03-.268-.078-1.763-2.908-7.26-12.989-7.26-12.989-.71-1.491-.36-2.422.072-2.624.416-.195,1.48.464,2.011,1.58,0,0,5.16,12.415,5.519,13.793.017.067.022.267-.074.318Z"/>
          <path class="cls-1" d="M79.88,179.472c.046-.086-.03-.239-.078-.268-2.908-1.763-12.989-7.26-12.989-7.26-1.491-.71-2.422-.36-2.624.072-.195.416.464,1.48,1.58,2.011,0,0,12.415,5.16,13.793,5.519.067.017.267.022.318-.074Z"/>
          <path class="cls-1" d="M79.508,180.702c-.005-.083-.086-.166-.117-.168-1.875-.128-8.189-.116-8.189-.116-.903.079-1.227.719-1.19,1.124.036.389.661.914,1.337.855,0,0,7.29-1.216,8.035-1.51.036-.014.13-.092.125-.185Z"/>
          <path class="cls-1" d="M82.592,177.618c-.083-.005-.166-.086-.168-.117-.128-1.875-.116-8.189-.116-8.189.079-.903.719-1.227,1.124-1.19.389.036.914.661.855,1.337,0,0-1.216,7.29-1.51,8.035-.014.036-.092.13-.185.125Z"/>
          <circle class="cls-1" cx="82.365" cy="180.475" r="1.516"/>
        </g>
        <g>
          <path class="cls-1" d="M91.453,189.597c.087-.097.34-.045.407.011,4.155,3.504,17.732,15.879,17.732,15.879,1.869,1.869,1.97,3.331,1.512,3.781-.44.434-2.275-.112-3.674-1.511,0,0-14.555-15.839-15.883-17.678-.064-.089-.193-.374-.095-.483Z"/>
          <path class="cls-1" d="M90.431,190.157c.086-.046.239.03.268.078,1.763,2.908,7.26,12.989,7.26,12.989.71,1.491.36,2.422-.072,2.624-.416.195-1.48-.464-2.011-1.58,0,0-5.16-12.415-5.519-13.793-.017-.067-.022-.267.074-.318Z"/>
          <path class="cls-1" d="M91.98,188.608c-.046.086.03.239.078.268,2.908,1.763,12.989,7.26,12.989,7.26,1.491.71,2.422.36,2.624-.072.195-.416-.464-1.48-1.58-2.011,0,0-12.415-5.16-13.793-5.519-.067-.017-.267-.022-.318.074Z"/>
          <path class="cls-1" d="M92.352,187.378c.005.083.086.166.117.168,1.875.128,8.189.116,8.189.116.903-.079,1.227-.719,1.19-1.124-.036-.389-.661-.914-1.337-.855,0,0-7.29,1.216-8.035,1.51-.036.014-.13.092-.125.185Z"/>
          <path class="cls-1" d="M89.268,190.462c.083.005.166.086.168.117.128,1.875.116,8.189.116,8.189-.079.903-.719,1.227-1.124,1.19-.389-.036-.914-.661-.855-1.337,0,0,1.216-7.29,1.51-8.035.014-.036.092-.13.185-.125Z"/>
          <circle class="cls-1" cx="89.496" cy="187.606" r="1.516"/>
        </g>
        <circle class="cls-1" cx="85.93" cy="184.04" r="2.716"/>
      </g>
      <g>
        <g>
          <path class="cls-1" d="M219.725,50.338c-.097-.087-.045-.34.011-.407,3.504-4.155,15.879-17.732,15.879-17.732,1.869-1.869,3.331-1.97,3.781-1.512.434.44-.112,2.275-1.511,3.674,0,0-15.839,14.555-17.678,15.883-.089.064-.374.193-.483.095Z"/>
          <path class="cls-1" d="M220.286,51.36c-.046-.086.03-.239.078-.268,2.908-1.763,12.989-7.26,12.989-7.26,1.491-.71,2.422-.36,2.624.072.195.416-.464,1.48-1.58,2.011,0,0-12.415,5.16-13.793,5.519-.067.017-.267.022-.318-.074Z"/>
          <path class="cls-1" d="M218.737,49.811c.086.046.239-.03.268-.078,1.763-2.908,7.26-12.989,7.26-12.989.71-1.491.36-2.422-.072-2.624-.416-.195-1.48.464-2.011,1.58,0,0-5.16,12.415-5.519,13.793-.017.067-.022.267.074.318Z"/>
          <path class="cls-1" d="M217.506,49.44c.083-.005.166-.086.168-.117.128-1.875.116-8.189.116-8.189-.079-.903-.719-1.227-1.124-1.19-.389.036-.914.661-.855,1.337,0,0,1.216,7.29,1.51,8.035.014.036.092.13.185.125Z"/>
          <path class="cls-1" d="M220.59,52.524c.005-.083.086-.166.117-.168,1.875-.128,8.189-.116,8.189-.116.903.079,1.227.719,1.19,1.124-.036.389-.661.914-1.337.855,0,0-7.29-1.216-8.035-1.51-.036-.014-.13-.092-.125-.185Z"/>
          <circle class="cls-1" cx="217.734" cy="52.296" r="1.516"/>
        </g>
        <g>
          <path class="cls-1" d="M219.593,61.517c.087-.097.34-.045.407.011,4.155,3.504,17.732,15.879,17.732,15.879,1.869,1.869,1.97,3.331,1.512,3.781-.44.434-2.275-.112-3.674-1.511,0,0-14.555-15.839-15.883-17.678-.064-.089-.193-.374-.095-.483Z"/>
          <path class="cls-1" d="M218.571,62.077c.086-.046.239.03.268.078,1.763,2.908,7.26,12.989,7.26,12.989.71,1.491.36,2.422-.072,2.624-.416.195-1.48-.464-2.011-1.58,0,0-5.16-12.415-5.519-13.793-.017-.067-.022-.267.074-.318Z"/>
          <path class="cls-1" d="M220.12,60.528c-.046.086.03.239.078.268,2.908,1.763,12.989,7.26,12.989,7.26,1.491.71,2.422.36,2.624-.072.195-.416-.464-1.48-1.58-2.011,0,0-12.415-5.16-13.793-5.519-.067-.017-.267-.022-.318.074Z"/>
          <path class="cls-1" d="M220.492,59.298c.005.083.086.166.117.168,1.875.128,8.189.116,8.189.116.903-.079,1.227-.719,1.19-1.124-.036-.389-.661-.914-1.337-.855,0,0-7.29,1.216-8.035,1.51-.036.014-.13.092-.125.185Z"/>
          <path class="cls-1" d="M217.408,62.382c.083.005.166.086.168.117.128,1.875.116,8.189.116,8.189-.079.903-.719,1.227-1.124,1.19-.389-.036-.914-.661-.855-1.337,0,0,1.216-7.29,1.51-8.035.014-.036.092-.13.185-.125Z"/>
          <circle class="cls-1" cx="217.635" cy="59.525" r="1.516"/>
        </g>
        <g>
          <path class="cls-1" d="M208.547,50.403c-.087.097-.34.045-.407-.011-4.155-3.504-17.732-15.879-17.732-15.879-1.869-1.869-1.97-3.331-1.512-3.781.44-.434,2.275.112,3.674,1.511,0,0,14.555,15.839,15.883,17.678.064.089.193.374.095.483Z"/>
          <path class="cls-1" d="M209.569,49.843c-.086.046-.239-.03-.268-.078-1.763-2.908-7.26-12.989-7.26-12.989-.71-1.491-.36-2.422.072-2.624.416-.195,1.48.464,2.011,1.58,0,0,5.16,12.415,5.519,13.793.017.067.022.267-.074.318Z"/>
          <path class="cls-1" d="M208.02,51.392c.046-.086-.03-.239-.078-.268-2.908-1.763-12.989-7.26-12.989-7.26-1.491-.71-2.422-.36-2.624.072-.195.416.464,1.48,1.58,2.011,0,0,12.415,5.16,13.793,5.519.067.017.267.022.318-.074Z"/>
          <path class="cls-1" d="M207.648,52.622c-.005-.083-.086-.166-.117-.168-1.875-.128-8.189-.116-8.189-.116-.903.079-1.227.719-1.19,1.124.036.389.661.914,1.337.855,0,0,7.29-1.216,8.035-1.51.036-.014.13-.092.125-.185Z"/>
          <path class="cls-1" d="M210.732,49.538c-.083-.005-.166-.086-.168-.117-.128-1.875-.116-8.189-.116-8.189.079-.903.719-1.227,1.124-1.19.389.036.914.661.855,1.337,0,0-1.216,7.29-1.51,8.035-.014.036-.092.13-.185.125Z"/>
          <circle class="cls-1" cx="210.504" cy="52.394" r="1.516"/>
        </g>
        <circle class="cls-1" cx="214.07" cy="55.96" r="2.716"/>
      </g>
    </g>
    <g>
      <polygon class="cls-1" points="183.485 55.487 176.724 55.487 171.942 50.704 150 28.762 123.276 55.487 116.515 55.487 150 22.002 178.706 50.704 183.485 55.487"/>
      <polygon class="cls-1" points="248 119.998 214.287 153.711 214.287 146.629 241.077 119.839 214.287 93.05 214.287 86.285 219.298 91.296 248 119.998"/>
      <polygon class="cls-1" points="183.709 184.289 150 217.998 121.298 189.296 116.291 184.289 123.373 184.289 150 210.916 171.62 189.296 176.627 184.289 183.709 184.289"/>
      <polygon class="cls-1" points="80.706 98.056 58.923 119.839 80.702 141.618 85.485 146.401 85.485 153.483 80.702 148.7 52 119.998 80.706 91.296 85.485 86.513 85.485 93.278 80.706 98.056"/>
    </g>
  </g>
</svg>