<?xml version="1.0" encoding="UTF-8"?>
<svg id="Layer_2" data-name="Layer 2" xmlns="http://www.w3.org/2000/svg" viewBox="0 0 199.589 284.813">
  <defs>
    <style>
      .cls-1 {
        fill: #a6917e;
      }

      .cls-2 {
        fill: #294759;
      }

      .cls-3 {
        fill: #486a80;
      }
    </style>
  </defs>
  <g id="Layer_1-2" data-name="Layer 1">
    <g>
      <path class="cls-2" d="M82.301,244.046l-16.838-22.316v16.522c0,1.37.067,2.271.202,2.704s.518.831,1.15,1.194,1.58.544,2.844.544v.808h-8.884v-.808c1.135-.082,2.002-.29,2.599-.623s.951-.694,1.062-1.08.167-1.299.167-2.739v-12.624c0-1.826-.085-3.049-.255-3.67s-.439-1.018-.808-1.194-1.191-.263-2.467-.263v-.808h7.023l14.099,18.629v-14.239c0-1.053-.108-1.791-.325-2.212s-.658-.755-1.326-1.001-1.469-.369-2.405-.369v-.808h8.638v.808c-1.007.082-1.8.275-2.379.579s-.948.67-1.106,1.097-.237,1.15-.237,2.168v19.7h-.755Z"/>
      <path class="cls-2" d="M102.396,238.315h.59l-.357,5.187h-13.802v-.566h.344c.828,0,1.362-.11,1.604-.332.241-.221.395-.502.461-.841.065-.34.098-1.206.098-2.6v-8.173c0-1.27-.035-2.105-.105-2.507-.069-.401-.229-.682-.479-.842-.25-.159-.776-.239-1.579-.239v-.566h11.91l.393,4.154h-.577c-.263-1.163-.584-1.988-.965-2.476-.381-.487-.834-.794-1.359-.922-.524-.127-1.368-.19-2.531-.19h-2.311v6.993h1.77c.811,0,1.379-.069,1.702-.209.324-.139.537-.35.639-.633.102-.282.154-.833.154-1.653h.577v5.703h-.577c0-.926-.078-1.547-.233-1.862-.156-.315-.383-.521-.683-.615-.299-.094-.805-.142-1.518-.142h-1.831v3.945c0,1.975.127,3.136.381,3.485s.938.522,2.053.522h1.241c.877,0,1.598-.113,2.163-.338s1.104-.688,1.616-1.389c.512-.701.916-1.666,1.211-2.895Z"/>
      <path class="cls-2" d="M114.826,243.895h-.762l-5.752-13.249c-.106-.238-.274-.647-.503-1.229-.32-.786-.656-1.315-1.008-1.585-.353-.271-.922-.414-1.708-.43v-.566h7.178v.566c-.893,0-1.493.066-1.8.197s-.461.38-.461.749c0,.238.192.795.577,1.672l4.793,11.061,3.847-9.205c.647-1.541.971-2.544.971-3.011,0-.942-.668-1.43-2.003-1.462v-.566h5.088v.566c-.516.016-.971.2-1.364.553-.394.352-.733.868-1.02,1.549l-1.119,2.618-4.954,11.774Z"/>
      <path class="cls-2" d="M132.471,237.357h-6.33l-.43,1.057c-.639,1.532-.958,2.531-.958,2.999,0,.5.17.879.51,1.137s.776.387,1.309.387v.566h-4.953v-.566c.737-.115,1.286-.375,1.647-.781.361-.405.794-1.26,1.303-2.563.041-.123.238-.598.59-1.425l4.842-11.566h.48l5.567,13.236.762,1.746c.172.394.403.702.694.928.29.226.727.367,1.309.424v.566h-6.551v-.566c.803,0,1.345-.059,1.628-.179.282-.119.424-.354.424-.707,0-.18-.189-.717-.566-1.609l-1.278-3.085ZM132.263,236.804l-2.95-7.104-2.938,7.104h5.888Z"/>
    </g>
    <g>
      <path class="cls-2" d="M15.978,274.572l8.674-19.7h7.304v.808h-.878c-1.171,0-1.937.097-2.3.29s-.606.553-.729,1.08-.184,1.779-.184,3.757v11.676c0,1.873.047,3.099.14,3.678s.331,1.01.711,1.291,1.109.421,2.186.421h1.053v.808h-11.378v-.808h.843c1.007,0,1.706-.129,2.098-.386s.644-.658.755-1.203.167-1.811.167-3.801v-15.152l-9.429,21.35h-.825l-9.499-21.35v13.941c0,1.908.059,3.207.176,3.898s.48,1.296,1.089,1.817,1.463.816,2.563.887v.808H0v-.808c1.018-.059,1.847-.337,2.484-.834s1.027-1.109,1.168-1.835.211-2.072.211-4.038v-10.359c0-1.896-.056-3.119-.167-3.67s-.345-.931-.702-1.141-1.138-.316-2.344-.316h-.65v-.808h7.251l8.726,19.7Z"/>
      <path class="cls-2" d="M45.302,272.535h-6.33l-.43,1.057c-.639,1.532-.958,2.531-.958,2.999,0,.5.17.879.51,1.137s.776.387,1.309.387v.566h-4.953v-.566c.737-.115,1.286-.375,1.647-.781.361-.405.794-1.26,1.303-2.563.041-.123.238-.598.59-1.425l4.842-11.566h.48l5.567,13.236.762,1.746c.172.394.403.702.694.928.29.226.727.367,1.309.424v.566h-6.551v-.566c.803,0,1.345-.059,1.628-.179.282-.119.424-.354.424-.707,0-.18-.189-.717-.566-1.609l-1.278-3.085ZM45.094,271.982l-2.95-7.104-2.938,7.104h5.888Z"/>
      <path class="cls-2" d="M54.193,278.508v-5.359h.615c.696,3.49,2.348,5.236,4.954,5.236,1.171,0,2.079-.334,2.722-1.002.643-.667.965-1.415.965-2.243,0-.835-.283-1.536-.848-2.101-.566-.557-1.598-1.156-3.098-1.795-1.336-.574-2.343-1.075-3.024-1.506s-1.211-.99-1.591-1.678c-.381-.688-.572-1.421-.572-2.201,0-1.187.412-2.177,1.236-2.968.823-.791,1.866-1.186,3.127-1.186.705,0,1.369.115,1.991.344.623.23,1.262.705,1.917,1.426.377-.451.59-.938.639-1.462h.541v4.363h-.541c-.311-1.27-.862-2.269-1.653-2.999s-1.707-1.094-2.747-1.094c-.991,0-1.718.268-2.182.805-.463.537-.694,1.124-.694,1.764,0,.77.29,1.421.873,1.954.573.541,1.609,1.147,3.109,1.819,1.434.639,2.476,1.154,3.128,1.543.651.389,1.173.928,1.567,1.616.393.688.59,1.483.59,2.384,0,1.426-.476,2.585-1.426,3.479-.95.893-2.22,1.34-3.81,1.34-1.827,0-3.351-.701-4.572-2.102-.271.386-.472.926-.603,1.623h-.615Z"/>
      <path class="cls-2" d="M79.259,278.926c-.386.041-.799.061-1.241.061-2.679,0-4.865-.797-6.557-2.391-1.692-1.593-2.538-3.713-2.538-6.36,0-2.564.858-4.627,2.575-6.188,1.716-1.56,3.865-2.341,6.446-2.341,1.59,0,3.126.346,4.609,1.039,1.483.692,2.606,1.716,3.367,3.073.762,1.356,1.143,2.858,1.143,4.504,0,1.917-.498,3.613-1.493,5.088-.996,1.475-2.436,2.507-4.321,3.098l-3.675,2.028c.254-.025.476-.037.664-.037,1.819,0,3.912.41,6.281,1.229,1.819.631,3.261.947,4.327.947,1.475,0,2.351-.557,2.63-1.672h.516c-.14,1.131-.611,2.048-1.413,2.753-.803.705-1.84,1.057-3.11,1.057-.835,0-1.596-.135-2.28-.405-.684-.271-1.575-.754-2.673-1.451-1.966-1.253-3.605-1.88-4.916-1.88-.786,0-1.549.311-2.286.934-.492.409-.832.615-1.02.615-.296,0-.443-.135-.443-.406,0-.205.176-.416.528-.633.353-.217,1.016-.563,1.991-1.039.205-.098.41-.205.615-.319l2.274-1.303ZM71.737,270.323c0,2.679.535,4.691,1.604,6.035,1.069,1.344,2.673,2.015,4.812,2.015,1.876,0,3.359-.672,4.449-2.015,1.09-1.344,1.635-3.348,1.635-6.011,0-2.589-.537-4.574-1.61-5.954s-2.63-2.071-4.67-2.071c-2.007,0-3.546.674-4.615,2.022-1.07,1.348-1.604,3.341-1.604,5.979Z"/>
      <path class="cls-2" d="M101.965,262.014h5.567v.566c-.737.049-1.288.215-1.653.497-.364.283-.587.601-.669.953-.082.353-.123,1.037-.123,2.053v5.543c0,1.417-.056,2.47-.166,3.158s-.43,1.364-.958,2.028c-.529.664-1.272,1.192-2.231,1.585-.958.394-2.065.59-3.318.59-1.483,0-2.738-.252-3.767-.756-1.028-.504-1.762-1.156-2.2-1.955s-.658-1.87-.658-3.214l.012-1.708v-5.187c0-1.327-.039-2.183-.117-2.569-.078-.385-.241-.651-.492-.799-.249-.147-.797-.221-1.64-.221h-.381v-.566h7.608v.566h-.332c-.819,0-1.356.067-1.609.203-.255.135-.424.387-.511.756-.086.369-.129,1.246-.129,2.63v5.248c0,1.819.084,3.109.252,3.872.168.762.642,1.428,1.42,1.997.778.57,1.814.854,3.109.854,1.016,0,1.94-.191,2.772-.572.831-.38,1.45-.856,1.855-1.425.406-.57.653-1.156.744-1.758.09-.602.135-1.55.135-2.845v-5.679c0-.942-.053-1.601-.16-1.978-.106-.377-.336-.676-.688-.898-.352-.221-.909-.356-1.671-.405v-.566Z"/>
      <path class="cls-2" d="M123.698,273.493h.59l-.357,5.187h-13.802v-.566h.344c.828,0,1.362-.11,1.604-.332.241-.221.395-.502.461-.841.065-.34.098-1.206.098-2.6v-8.173c0-1.27-.035-2.105-.105-2.507-.069-.401-.229-.682-.479-.842-.25-.159-.776-.239-1.579-.239v-.566h11.91l.393,4.154h-.577c-.263-1.163-.584-1.988-.965-2.476-.381-.487-.834-.794-1.359-.922-.524-.127-1.368-.19-2.531-.19h-2.311v6.993h1.77c.811,0,1.379-.069,1.702-.209.324-.139.537-.35.639-.633.102-.282.154-.833.154-1.653h.577v5.703h-.577c0-.926-.078-1.547-.233-1.862-.156-.315-.383-.521-.683-.615-.299-.094-.805-.142-1.518-.142h-1.831v3.945c0,1.975.127,3.136.381,3.485s.938.522,2.053.522h1.241c.877,0,1.598-.113,2.163-.338s1.104-.688,1.616-1.389c.512-.701.916-1.666,1.211-2.895Z"/>
      <path class="cls-2" d="M144.622,278.68h-4.486c-.794-.557-2.011-2.015-3.65-4.376-.525-.754-1.07-1.477-1.635-2.169-.566-.693-.955-1.114-1.168-1.266-.213-.151-.545-.227-.996-.227h-.664v3.699c0,1.311.031,2.17.092,2.575s.225.707.492.903.776.295,1.53.295h.799v.566h-7.976v-.566h.541c.713,0,1.206-.09,1.481-.271.274-.18.448-.461.522-.841.074-.381.11-1.268.11-2.661v-8.173c0-1.327-.037-2.183-.11-2.569-.074-.385-.238-.651-.492-.799-.254-.147-.803-.221-1.647-.221h-.282v-.566l2.384-.123c1.59-.074,2.851-.11,3.785-.11,1.59,0,2.882.147,3.878.443.995.295,1.8.778,2.415,1.45s.922,1.475.922,2.409c0,1.089-.402,2.02-1.205,2.79-.803.77-1.983,1.25-3.539,1.438.696.336,1.819,1.549,3.367,3.638,1.262,1.696,2.253,2.806,2.975,3.331.721.524,1.573.803,2.556.835v.566ZM132.024,270.077c.615-.017,1.25-.041,1.905-.074s1.225-.123,1.708-.271c.484-.147.875-.362,1.174-.645.299-.282.535-.653.707-1.112s.258-1.024.258-1.696c0-1.172-.293-2.11-.879-2.815-.585-.705-1.862-1.056-3.828-1.056-.303,0-.651.016-1.045.049v7.62Z"/>
      <path class="cls-2" d="M156.794,272.535h-6.33l-.43,1.057c-.639,1.532-.958,2.531-.958,2.999,0,.5.17.879.51,1.137s.776.387,1.309.387v.566h-4.953v-.566c.737-.115,1.286-.375,1.647-.781.361-.405.794-1.26,1.303-2.563.041-.123.238-.598.59-1.425l4.842-11.566h.48l5.567,13.236.762,1.746c.172.394.403.702.694.928.29.226.727.367,1.309.424v.566h-6.551v-.566c.803,0,1.345-.059,1.628-.179.282-.119.424-.354.424-.707,0-.18-.189-.717-.566-1.609l-1.278-3.085ZM156.586,271.982l-2.95-7.104-2.938,7.104h5.888Z"/>
      <path class="cls-2" d="M164.825,262.149l2.741-.135c2.286-.115,3.826-.172,4.621-.172,2.474,0,4.404.377,5.788,1.13,1.385.754,2.416,1.776,3.092,3.067s1.014,2.78,1.014,4.468c0,1.221-.184,2.337-.553,3.349s-.875,1.852-1.518,2.52c-.644.668-1.389,1.176-2.237,1.524s-1.653.566-2.415.651c-.762.086-1.836.129-3.22.129h-7.386v-.566h.688c.713,0,1.206-.09,1.481-.271.274-.18.451-.461.528-.841.078-.381.117-1.268.117-2.661v-8.038c0-1.327-.039-2.185-.117-2.574-.078-.389-.241-.655-.492-.799s-.797-.215-1.641-.215h-.492v-.566ZM169.963,262.493v11.135c0,1.647.031,2.708.092,3.183.061.476.246.809.553,1.002.307.193.956.289,1.948.289,1.45,0,2.642-.198,3.576-.596.934-.397,1.715-1.179,2.342-2.347s.94-2.657.94-4.468c0-1.409-.182-2.667-.547-3.773-.364-1.106-.887-2.005-1.567-2.697-.68-.693-1.434-1.164-2.261-1.413-.827-.25-1.888-.375-3.183-.375-.623,0-1.254.02-1.893.061Z"/>
      <path class="cls-2" d="M198.998,273.493h.59l-.357,5.187h-13.802v-.566h.344c.828,0,1.362-.11,1.604-.332.241-.221.395-.502.461-.841.065-.34.098-1.206.098-2.6v-8.173c0-1.27-.035-2.105-.105-2.507-.069-.401-.229-.682-.479-.842-.25-.159-.776-.239-1.579-.239v-.566h11.91l.393,4.154h-.577c-.263-1.163-.584-1.988-.965-2.476-.381-.487-.834-.794-1.359-.922-.524-.127-1.368-.19-2.531-.19h-2.311v6.993h1.77c.811,0,1.379-.069,1.702-.209.324-.139.537-.35.639-.633.102-.282.154-.833.154-1.653h.577v5.703h-.577c0-.926-.078-1.547-.233-1.862-.156-.315-.383-.521-.683-.615-.299-.094-.805-.142-1.518-.142h-1.831v3.945c0,1.975.127,3.136.381,3.485s.938.522,2.053.522h1.241c.877,0,1.598-.113,2.163-.338s1.104-.688,1.616-1.389c.512-.701.916-1.666,1.211-2.895Z"/>
    </g>
    <g>
      <g>
        <polygon class="cls-2" points="51.466 47.811 99.88 127.383 100.005 148.862 57.076 78.656 57.046 146.692 51.466 141.11 51.466 47.811"/>
        <polygon class="cls-2" points="83.672 47.811 116.329 101.751 148.127 47.134 148.127 141.087 142.614 146.602 142.436 78.361 116.295 123.394 83.672 70.013 83.672 47.811"/>
      </g>
      <g>
        <g>
          <g>
            <path class="cls-3" d="M30.135,28.273c-.087.097-.34.045-.407-.011-4.155-3.504-17.732-15.879-17.732-15.879-1.869-1.869-1.97-3.331-1.512-3.781.44-.434,2.275.112,3.674,1.511,0,0,14.555,15.839,15.883,17.678.064.089.193.374.095.483Z"/>
            <path class="cls-3" d="M31.157,27.712c-.086.046-.239-.03-.268-.078-1.763-2.908-7.26-12.989-7.26-12.989-.71-1.491-.36-2.422.072-2.624.416-.195,1.48.464,2.011,1.58,0,0,5.16,12.415,5.519,13.793.017.067.022.267-.074.318Z"/>
            <path class="cls-3" d="M29.608,29.261c.046-.086-.03-.239-.078-.268-2.908-1.763-12.989-7.26-12.989-7.26-1.491-.71-2.422-.36-2.624.072-.195.416.464,1.48,1.58,2.011,0,0,12.415,5.16,13.793,5.519.067.017.267.022.318-.074Z"/>
            <path class="cls-3" d="M29.236,30.492c-.005-.083-.086-.166-.117-.168-1.875-.128-8.189-.116-8.189-.116-.903.079-1.227.719-1.19,1.124.036.389.661.914,1.337.855,0,0,7.29-1.216,8.035-1.51.036-.014.13-.092.125-.185Z"/>
            <path class="cls-3" d="M32.32,27.408c-.083-.005-.166-.086-.168-.117-.128-1.875-.116-8.189-.116-8.189.079-.903.719-1.227,1.124-1.19.389.036.914.661.855,1.337,0,0-1.216,7.29-1.51,8.035-.014.036-.092.13-.185.125Z"/>
            <circle class="cls-3" cx="32.093" cy="30.264" r="1.516"/>
          </g>
          <g>
            <path class="cls-3" d="M41.314,28.405c-.097-.087-.045-.34.011-.407,3.504-4.155,15.879-17.732,15.879-17.732,1.869-1.869,3.331-1.97,3.781-1.512.434.44-.112,2.275-1.511,3.674,0,0-15.839,14.555-17.678,15.883-.089.064-.374.193-.483.095Z"/>
            <path class="cls-3" d="M41.874,29.427c-.046-.086.03-.239.078-.268,2.908-1.763,12.989-7.26,12.989-7.26,1.491-.71,2.422-.36,2.624.072.195.416-.464,1.48-1.58,2.011,0,0-12.415,5.16-13.793,5.519-.067.017-.267.022-.318-.074Z"/>
            <path class="cls-3" d="M40.325,27.878c.086.046.239-.03.268-.078,1.763-2.908,7.26-12.989,7.26-12.989.71-1.491.36-2.422-.072-2.624-.416-.195-1.48.464-2.011,1.58,0,0-5.16,12.415-5.519,13.793-.017.067-.022.267.074.318Z"/>
            <path class="cls-3" d="M39.094,27.506c.083-.005.166-.086.168-.117.128-1.875.116-8.189.116-8.189-.079-.903-.719-1.227-1.124-1.19-.389.036-.914.661-.855,1.337,0,0,1.216,7.29,1.51,8.035.014.036.092.13.185.125Z"/>
            <path class="cls-3" d="M42.178,30.59c.005-.083.086-.166.117-.168,1.875-.128,8.189-.116,8.189-.116.903.079,1.227.719,1.19,1.124-.036.389-.661.914-1.337.855,0,0-7.29-1.216-8.035-1.51-.036-.014-.13-.092-.125-.185Z"/>
            <circle class="cls-3" cx="39.322" cy="30.363" r="1.516"/>
          </g>
          <g>
            <path class="cls-3" d="M30.199,39.451c.097.087.045.34-.011.407-3.504,4.155-15.879,17.732-15.879,17.732-1.869,1.869-3.331,1.97-3.781,1.512-.434-.44.112-2.275,1.511-3.674,0,0,15.839-14.555,17.678-15.883.089-.064.374-.193.483-.095Z"/>
            <path class="cls-3" d="M29.639,38.429c.046.086-.03.239-.078.268-2.908,1.763-12.989,7.26-12.989,7.26-1.491.71-2.422.36-2.624-.072-.195-.416.464-1.48,1.58-2.011,0,0,12.415-5.16,13.793-5.519.067-.017.267-.022.318.074Z"/>
            <path class="cls-3" d="M31.188,39.978c-.086-.046-.239.03-.268.078-1.763,2.908-7.26,12.989-7.26,12.989-.71,1.491-.36,2.422.072,2.624.416.195,1.48-.464,2.011-1.58,0,0,5.16-12.415,5.519-13.793.017-.067.022-.267-.074-.318Z"/>
            <path class="cls-3" d="M32.419,40.35c-.083.005-.166.086-.168.117-.128,1.875-.116,8.189-.116,8.189.079.903.719,1.227,1.124,1.19.389-.036.914-.661.855-1.337,0,0-1.216-7.29-1.51-8.035-.014-.036-.092-.13-.185-.125Z"/>
            <path class="cls-3" d="M29.335,37.266c-.005.083-.086.166-.117.168-1.875.128-8.189.116-8.189.116-.903-.079-1.227-.719-1.19-1.124.036-.389.661-.914,1.337-.855,0,0,7.29,1.216,8.035,1.51.036.014.13.092.125.185Z"/>
            <circle class="cls-3" cx="32.191" cy="37.494" r="1.516"/>
          </g>
          <circle class="cls-3" cx="35.756" cy="33.928" r="2.716"/>
        </g>
        <g>
          <g>
            <path class="cls-3" d="M169.458,167.723c.087-.097.34-.045.407.011,4.155,3.504,17.732,15.879,17.732,15.879,1.869,1.869,1.97,3.331,1.512,3.781-.44.434-2.275-.112-3.674-1.511,0,0-14.555-15.839-15.883-17.678-.064-.089-.193-.374-.095-.483Z"/>
            <path class="cls-3" d="M168.436,168.284c.086-.046.239.03.268.078,1.763,2.908,7.26,12.989,7.26,12.989.71,1.491.36,2.422-.072,2.624-.416.195-1.48-.464-2.011-1.58,0,0-5.16-12.415-5.519-13.793-.017-.067-.022-.267.074-.318Z"/>
            <path class="cls-3" d="M169.985,166.735c-.046.086.03.239.078.268,2.908,1.763,12.989,7.26,12.989,7.26,1.491.71,2.422.36,2.624-.072.195-.416-.464-1.48-1.58-2.011,0,0-12.415-5.16-13.793-5.519-.067-.017-.267-.022-.318.074Z"/>
            <path class="cls-3" d="M170.356,165.504c.005.083.086.166.117.168,1.875.128,8.189.116,8.189.116.903-.079,1.227-.719,1.19-1.124-.036-.389-.661-.914-1.337-.855,0,0-7.29,1.216-8.035,1.51-.036.014-.13.092-.125.185Z"/>
            <path class="cls-3" d="M167.272,168.588c.083.005.166.086.168.117.128,1.875.116,8.189.116,8.189-.079.903-.719,1.227-1.124,1.19-.389-.036-.914-.661-.855-1.337,0,0,1.216-7.29,1.51-8.035.014-.036.092-.13.185-.125Z"/>
            <circle class="cls-3" cx="167.5" cy="165.732" r="1.516"/>
          </g>
          <g>
            <path class="cls-3" d="M169.394,156.545c-.097-.087-.045-.34.011-.407,3.504-4.155,15.879-17.732,15.879-17.732,1.869-1.869,3.331-1.97,3.781-1.512.434.44-.112,2.275-1.511,3.674,0,0-15.839,14.555-17.678,15.883-.089.064-.374.193-.483.095Z"/>
            <path class="cls-3" d="M169.954,157.567c-.046-.086.03-.239.078-.268,2.908-1.763,12.989-7.26,12.989-7.26,1.491-.71,2.422-.36,2.624.072.195.416-.464,1.48-1.58,2.011,0,0-12.415,5.16-13.793,5.519-.067.017-.267.022-.318-.074Z"/>
            <path class="cls-3" d="M168.405,156.018c.086.046.239-.03.268-.078,1.763-2.908,7.26-12.989,7.26-12.989.71-1.491.36-2.422-.072-2.624-.416-.195-1.48.464-2.011,1.58,0,0-5.16,12.415-5.519,13.793-.017.067-.022.267.074.318Z"/>
            <path class="cls-3" d="M167.174,155.646c.083-.005.166-.086.168-.117.128-1.875.116-8.189.116-8.189-.079-.903-.719-1.227-1.124-1.19-.389.036-.914.661-.855,1.337,0,0,1.216,7.29,1.51,8.035.014.036.092.13.185.125Z"/>
            <path class="cls-3" d="M170.258,158.73c.005-.083.086-.166.117-.168,1.875-.128,8.189-.116,8.189-.116.903.079,1.227.719,1.19,1.124-.036.389-.661.914-1.337.855,0,0-7.29-1.216-8.035-1.51-.036-.014-.13-.092-.125-.185Z"/>
            <circle class="cls-3" cx="167.402" cy="158.502" r="1.516"/>
          </g>
          <g>
            <path class="cls-3" d="M158.279,167.591c.097.087.045.34-.011.407-3.504,4.155-15.879,17.732-15.879,17.732-1.869,1.869-3.331,1.97-3.781,1.512-.434-.44.112-2.275,1.511-3.674,0,0,15.839-14.555,17.678-15.883.089-.064.374-.193.483-.095Z"/>
            <path class="cls-3" d="M157.719,166.569c.046.086-.03.239-.078.268-2.908,1.763-12.989,7.26-12.989,7.26-1.491.71-2.422.36-2.624-.072-.195-.416.464-1.48,1.58-2.011,0,0,12.415-5.16,13.793-5.519.067-.017.267-.022.318.074Z"/>
            <path class="cls-3" d="M159.268,168.118c-.086-.046-.239.03-.268.078-1.763,2.908-7.26,12.989-7.26,12.989-.71,1.491-.36,2.422.072,2.624.416.195,1.48-.464,2.011-1.58,0,0,5.16-12.415,5.519-13.793.017-.067.022-.267-.074-.318Z"/>
            <path class="cls-3" d="M160.499,168.49c-.083.005-.166.086-.168.117-.128,1.875-.116,8.189-.116,8.189.079.903.719,1.227,1.124,1.19.389-.036.914-.661.855-1.337,0,0-1.216-7.29-1.51-8.035-.014-.036-.092-.13-.185-.125Z"/>
            <path class="cls-3" d="M157.415,165.406c-.005.083-.086.166-.117.168-1.875.128-8.189.116-8.189.116-.903-.079-1.227-.719-1.19-1.124.036-.389.661-.914,1.337-.855,0,0,7.29,1.216,8.035,1.51.036.014.13.092.125.185Z"/>
            <circle class="cls-3" cx="160.271" cy="165.633" r="1.516"/>
          </g>
          <circle class="cls-3" cx="163.836" cy="162.068" r="2.716"/>
        </g>
        <g>
          <g>
            <path class="cls-3" d="M30.071,167.66c.097.087.045.34-.011.407-3.504,4.155-15.879,17.732-15.879,17.732-1.869,1.869-3.331,1.97-3.781,1.512-.434-.44.112-2.275,1.511-3.674,0,0,15.839-14.555,17.678-15.883.089-.064.374-.193.483-.095Z"/>
            <path class="cls-3" d="M29.511,166.638c.046.086-.03.239-.078.268-2.908,1.763-12.989,7.26-12.989,7.26-1.491.71-2.422.36-2.624-.072-.195-.416.464-1.48,1.58-2.011,0,0,12.415-5.16,13.793-5.519.067-.017.267-.022.318.074Z"/>
            <path class="cls-3" d="M31.06,168.187c-.086-.046-.239.03-.268.078-1.763,2.908-7.26,12.989-7.26,12.989-.71,1.491-.36,2.422.072,2.624.416.195,1.48-.464,2.011-1.58,0,0,5.16-12.415,5.519-13.793.017-.067.022-.267-.074-.318Z"/>
            <path class="cls-3" d="M32.29,168.558c-.083.005-.166.086-.168.117-.128,1.875-.116,8.189-.116,8.189.079.903.719,1.227,1.124,1.19.389-.036.914-.661.855-1.337,0,0-1.216-7.29-1.51-8.035-.014-.036-.092-.13-.185-.125Z"/>
            <path class="cls-3" d="M29.206,165.474c-.005.083-.086.166-.117.168-1.875.128-8.189.116-8.189.116-.903-.079-1.227-.719-1.19-1.124.036-.389.661-.914,1.337-.855,0,0,7.29,1.216,8.035,1.51.036.014.13.092.125.185Z"/>
            <circle class="cls-3" cx="32.063" cy="165.702" r="1.516"/>
          </g>
          <g>
            <path class="cls-3" d="M30.203,156.481c-.087.097-.34.045-.407-.011-4.155-3.504-17.732-15.879-17.732-15.879-1.869-1.869-1.97-3.331-1.512-3.781.44-.434,2.275.112,3.674,1.511,0,0,14.555,15.839,15.883,17.678.064.089.193.374.095.483Z"/>
            <path class="cls-3" d="M31.225,155.921c-.086.046-.239-.03-.268-.078-1.763-2.908-7.26-12.989-7.26-12.989-.71-1.491-.36-2.422.072-2.624.416-.195,1.48.464,2.011,1.58,0,0,5.16,12.415,5.519,13.793.017.067.022.267-.074.318Z"/>
            <path class="cls-3" d="M29.676,157.47c.046-.086-.03-.239-.078-.268-2.908-1.763-12.989-7.26-12.989-7.26-1.491-.71-2.422-.36-2.624.072-.195.416.464,1.48,1.58,2.011,0,0,12.415,5.16,13.793,5.519.067.017.267.022.318-.074Z"/>
            <path class="cls-3" d="M29.305,158.7c-.005-.083-.086-.166-.117-.168-1.875-.128-8.189-.116-8.189-.116-.903.079-1.227.719-1.19,1.124.036.389.661.914,1.337.855,0,0,7.29-1.216,8.035-1.51.036-.014.13-.092.125-.185Z"/>
            <path class="cls-3" d="M32.389,155.616c-.083-.005-.166-.086-.168-.117-.128-1.875-.116-8.189-.116-8.189.079-.903.719-1.227,1.124-1.19.389.036.914.661.855,1.337,0,0-1.216,7.29-1.51,8.035-.014.036-.092.13-.185.125Z"/>
            <circle class="cls-3" cx="32.161" cy="158.472" r="1.516"/>
          </g>
          <g>
            <path class="cls-3" d="M41.25,167.595c.087-.097.34-.045.407.011,4.155,3.504,17.732,15.879,17.732,15.879,1.869,1.869,1.97,3.331,1.512,3.781-.44.434-2.275-.112-3.674-1.511,0,0-14.555-15.839-15.883-17.678-.064-.089-.193-.374-.095-.483Z"/>
            <path class="cls-3" d="M40.228,168.155c.086-.046.239.03.268.078,1.763,2.908,7.26,12.989,7.26,12.989.71,1.491.36,2.422-.072,2.624-.416.195-1.48-.464-2.011-1.58,0,0-5.16-12.415-5.519-13.793-.017-.067-.022-.267.074-.318Z"/>
            <path class="cls-3" d="M41.777,166.606c-.046.086.03.239.078.268,2.908,1.763,12.989,7.26,12.989,7.26,1.491.71,2.422.36,2.624-.072.195-.416-.464-1.48-1.58-2.011,0,0-12.415-5.16-13.793-5.519-.067-.017-.267-.022-.318.074Z"/>
            <path class="cls-3" d="M42.148,165.376c.005.083.086.166.117.168,1.875.128,8.189.116,8.189.116.903-.079,1.227-.719,1.19-1.124-.036-.389-.661-.914-1.337-.855,0,0-7.29,1.216-8.035,1.51-.036.014-.13.092-.125.185Z"/>
            <path class="cls-3" d="M39.064,168.46c.083.005.166.086.168.117.128,1.875.116,8.189.116,8.189-.079.903-.719,1.227-1.124,1.19-.389-.036-.914-.661-.855-1.337,0,0,1.216-7.29,1.51-8.035.014-.036.092-.13.185-.125Z"/>
            <circle class="cls-3" cx="39.292" cy="165.603" r="1.516"/>
          </g>
          <circle class="cls-3" cx="35.726" cy="162.038" r="2.716"/>
        </g>
        <g>
          <g>
            <path class="cls-3" d="M169.522,28.336c-.097-.087-.045-.34.011-.407,3.504-4.155,15.879-17.732,15.879-17.732,1.869-1.869,3.331-1.97,3.781-1.512.434.44-.112,2.275-1.511,3.674,0,0-15.839,14.555-17.678,15.883-.089.064-.374.193-.483.095Z"/>
            <path class="cls-3" d="M170.082,29.358c-.046-.086.03-.239.078-.268,2.908-1.763,12.989-7.26,12.989-7.26,1.491-.71,2.422-.36,2.624.072.195.416-.464,1.48-1.58,2.011,0,0-12.415,5.16-13.793,5.519-.067.017-.267.022-.318-.074Z"/>
            <path class="cls-3" d="M168.533,27.809c.086.046.239-.03.268-.078,1.763-2.908,7.26-12.989,7.26-12.989.71-1.491.36-2.422-.072-2.624-.416-.195-1.48.464-2.011,1.58,0,0-5.16,12.415-5.519,13.793-.017.067-.022.267.074.318Z"/>
            <path class="cls-3" d="M167.302,27.438c.083-.005.166-.086.168-.117.128-1.875.116-8.189.116-8.189-.079-.903-.719-1.227-1.124-1.19-.389.036-.914.661-.855,1.337,0,0,1.216,7.29,1.51,8.035.014.036.092.13.185.125Z"/>
            <path class="cls-3" d="M170.386,30.522c.005-.083.086-.166.117-.168,1.875-.128,8.189-.116,8.189-.116.903.079,1.227.719,1.19,1.124-.036.389-.661.914-1.337.855,0,0-7.29-1.216-8.035-1.51-.036-.014-.13-.092-.125-.185Z"/>
            <circle class="cls-3" cx="167.53" cy="30.294" r="1.516"/>
          </g>
          <g>
            <path class="cls-3" d="M169.39,39.515c.087-.097.34-.045.407.011,4.155,3.504,17.732,15.879,17.732,15.879,1.869,1.869,1.97,3.331,1.512,3.781-.44.434-2.275-.112-3.674-1.511,0,0-14.555-15.839-15.883-17.678-.064-.089-.193-.374-.095-.483Z"/>
            <path class="cls-3" d="M168.368,40.075c.086-.046.239.03.268.078,1.763,2.908,7.26,12.989,7.26,12.989.71,1.491.36,2.422-.072,2.624-.416.195-1.48-.464-2.011-1.58,0,0-5.16-12.415-5.519-13.793-.017-.067-.022-.267.074-.318Z"/>
            <path class="cls-3" d="M169.917,38.526c-.046.086.03.239.078.268,2.908,1.763,12.989,7.26,12.989,7.26,1.491.71,2.422.36,2.624-.072.195-.416-.464-1.48-1.58-2.011,0,0-12.415-5.16-13.793-5.519-.067-.017-.267-.022-.318.074Z"/>
            <path class="cls-3" d="M170.288,37.296c.005.083.086.166.117.168,1.875.128,8.189.116,8.189.116.903-.079,1.227-.719,1.19-1.124-.036-.389-.661-.914-1.337-.855,0,0-7.29,1.216-8.035,1.51-.036.014-.13.092-.125.185Z"/>
            <path class="cls-3" d="M167.204,40.38c.083.005.166.086.168.117.128,1.875.116,8.189.116,8.189-.079.903-.719,1.227-1.124,1.19-.389-.036-.914-.661-.855-1.337,0,0,1.216-7.29,1.51-8.035.014-.036.092-.13.185-.125Z"/>
            <circle class="cls-3" cx="167.432" cy="37.523" r="1.516"/>
          </g>
          <g>
            <path class="cls-3" d="M158.343,28.401c-.087.097-.34.045-.407-.011-4.155-3.504-17.732-15.879-17.732-15.879-1.869-1.869-1.97-3.331-1.512-3.781.44-.434,2.275.112,3.674,1.511,0,0,14.555,15.839,15.883,17.678.064.089.193.374.095.483Z"/>
            <path class="cls-3" d="M159.365,27.841c-.086.046-.239-.03-.268-.078-1.763-2.908-7.26-12.989-7.26-12.989-.71-1.491-.36-2.422.072-2.624.416-.195,1.48.464,2.011,1.58,0,0,5.16,12.415,5.519,13.793.017.067.022.267-.074.318Z"/>
            <path class="cls-3" d="M157.816,29.39c.046-.086-.03-.239-.078-.268-2.908-1.763-12.989-7.26-12.989-7.26-1.491-.71-2.422-.36-2.624.072-.195.416.464,1.48,1.58,2.011,0,0,12.415,5.16,13.793,5.519.067.017.267.022.318-.074Z"/>
            <path class="cls-3" d="M157.445,30.62c-.005-.083-.086-.166-.117-.168-1.875-.128-8.189-.116-8.189-.116-.903.079-1.227.719-1.19,1.124.036.389.661.914,1.337.855,0,0,7.29-1.216,8.035-1.51.036-.014.13-.092.125-.185Z"/>
            <path class="cls-3" d="M160.529,27.536c-.083-.005-.166-.086-.168-.117-.128-1.875-.116-8.189-.116-8.189.079-.903.719-1.227,1.124-1.19.389.036.914.661.855,1.337,0,0-1.216,7.29-1.51,8.035-.014.036-.092.13-.185.125Z"/>
            <circle class="cls-3" cx="160.301" cy="30.392" r="1.516"/>
          </g>
          <circle class="cls-3" cx="163.866" cy="33.958" r="2.716"/>
        </g>
      </g>
      <g>
        <polygon class="cls-1" points="133.281 33.485 126.521 33.485 121.738 28.702 99.796 6.76 73.072 33.485 66.312 33.485 99.796 0 128.503 28.702 133.281 33.485"/>
        <polygon class="cls-1" points="197.796 97.996 164.084 131.709 164.084 124.627 190.873 97.837 164.084 71.048 164.084 64.283 169.094 69.294 197.796 97.996"/>
        <polygon class="cls-1" points="133.505 162.287 99.796 195.996 71.094 167.294 66.088 162.287 73.17 162.287 99.796 188.914 121.417 167.294 126.423 162.287 133.505 162.287"/>
        <polygon class="cls-1" points="30.503 76.054 8.72 97.837 30.499 119.616 35.281 124.399 35.281 131.481 30.499 126.698 1.796 97.996 30.503 69.294 35.281 64.511 35.281 71.276 30.503 76.054"/>
      </g>
    </g>
  </g>
</svg>