<svg width="210" height="28" fill="none" xmlns="http://www.w3.org/2000/svg"><g clip-path="url(#a)" fill="#FAFBFC"><path d="M28.796 0c-3.405 0-8.534 6.22-8.534 6.22l-4.264 5.185L13.863 14l1.065 1.295-4.265 5.185-4.054-4.925a2.43 2.43 0 0 1 0-3.11l8.024-9.75C15.528 1.61 14.733 0 13.298 0H3.2C1.435 0 0 1.395 0 3.11v21.78C0 26.61 1.525 28 3.2 28c3.404 0 8.533-6.22 8.533-6.22l4.264-5.185L18.133 14l-1.065-1.295 4.265-5.185 4.054 4.925c.75.91.75 2.2 0 3.11l-8.019 9.75c-.895 1.085-.1 2.695 1.335 2.695H28.8c1.765 0 3.2-1.395 3.2-3.11V3.11C32 1.39 30.475 0 28.8 0h-.005ZM50.495 27.75c-3.745 0-6.595-1.04-8.555-3.125-1.96-2.08-2.94-5.035-2.94-8.87 0-1.905.3-3.605.895-5.1.6-1.495 1.415-2.76 2.46-3.79 1.04-1.03 2.28-1.81 3.72-2.345 1.44-.53 3-.795 4.685-.795.975 0 1.86.07 2.66.215.795.145 1.495.31 2.095.5.6.19 1.095.38 1.495.58.4.2.685.355.865.465L56.38 9.67c-.71-.375-1.535-.7-2.475-.965-.94-.265-2.01-.4-3.205-.4-.795 0-1.58.135-2.345.4a5.286 5.286 0 0 0-2.025 1.28c-.585.585-1.06 1.345-1.41 2.275-.355.93-.53 2.06-.53 3.39 0 1.065.115 2.055.35 2.975.23.92.61 1.71 1.13 2.375.52.665 1.2 1.19 2.045 1.58.84.39 1.86.58 3.055.58.755 0 1.43-.045 2.025-.135.6-.09 1.13-.195 1.595-.315a8.21 8.21 0 0 0 1.23-.415c.355-.155.675-.3.965-.43l1.43 4.155c-.73.445-1.76.84-3.09 1.195-1.33.355-2.87.53-4.62.53l-.01.005ZM77.145 18.515c0 1.375-.2 2.63-.6 3.77-.4 1.14-.975 2.115-1.73 2.925a7.71 7.71 0 0 1-2.71 1.875c-1.05.445-2.23.665-3.54.665s-2.455-.22-3.505-.665a7.843 7.843 0 0 1-2.71-1.875c-.755-.81-1.34-1.785-1.76-2.925-.42-1.14-.63-2.395-.63-3.77s.215-2.625.65-3.755c.43-1.13 1.03-2.095 1.795-2.89a8.101 8.101 0 0 1 2.725-1.86c1.05-.445 2.2-.665 3.44-.665 1.24 0 2.42.22 3.475.665a7.99 7.99 0 0 1 2.71 1.86c.755.795 1.34 1.76 1.76 2.89.42 1.13.63 2.38.63 3.755Zm-5.05 0c0-1.53-.305-2.73-.915-3.605-.61-.875-1.48-1.31-2.61-1.31s-2.005.435-2.625 1.31c-.62.875-.93 2.075-.93 3.605 0 1.53.31 2.74.93 3.64.62.895 1.495 1.345 2.625 1.345s2-.45 2.61-1.345c.61-.895.915-2.11.915-3.64ZM96.385 26.72c-.445.135-.95.26-1.53.38-.575.12-1.18.225-1.81.315-.63.09-1.275.16-1.925.215-.655.055-1.28.085-1.88.085-1.44 0-2.725-.21-3.855-.63-1.13-.42-2.08-1.025-2.855-1.81-.775-.785-1.37-1.74-1.78-2.86-.41-1.12-.615-2.375-.615-3.77s.175-2.695.53-3.84c.355-1.14.865-2.11 1.53-2.91a6.578 6.578 0 0 1 2.44-1.825c.965-.42 2.065-.63 3.305-.63.685 0 1.3.065 1.845.2.54.135 1.09.32 1.645.565v-7.91l4.95-.795v25.22h.005ZM85.19 18.415c0 1.53.345 2.76 1.03 3.69.685.93 1.705 1.395 3.055 1.395a13.342 13.342 0 0 0 2.16-.165v-9.01c-.31-.2-.715-.365-1.21-.5-.5-.135-1.005-.2-1.51-.2-2.35 0-3.52 1.595-3.52 4.785l-.005.005ZM100.205 18.68c0-1.55.24-2.91.715-4.07.475-1.165 1.1-2.13 1.88-2.91a7.807 7.807 0 0 1 2.675-1.76c1.01-.4 2.045-.6 3.105-.6 2.48 0 4.44.76 5.88 2.275 1.44 1.52 2.16 3.75 2.16 6.695 0 .29-.01.605-.035.945-.02.345-.045.65-.065.915h-11.23c.11 1.02.585 1.825 1.43 2.425.84.6 1.97.895 3.39.895.91 0 1.8-.085 2.675-.25.875-.165 1.59-.37 2.145-.615l.665 4.02c-.265.135-.62.265-1.065.4-.445.135-.935.25-1.48.35-.545.1-1.125.185-1.745.25-.62.065-1.24.1-1.86.1-1.575 0-2.94-.235-4.105-.7-1.165-.465-2.125-1.1-2.89-1.91a7.564 7.564 0 0 1-1.695-2.875c-.365-1.105-.55-2.305-.55-3.59v.01Zm11.63-1.895c-.02-.42-.095-.83-.215-1.23s-.31-.755-.565-1.065a3.003 3.003 0 0 0-.965-.765c-.39-.2-.87-.3-1.445-.3-.575 0-1.03.095-1.43.28-.4.19-.73.44-.995.75s-.47.67-.615 1.08c-.145.41-.25.825-.315 1.245h6.545v.005ZM127.055 23.33c.73 0 1.335-.06 1.81-.185.475-.12.86-.29 1.145-.5.29-.21.485-.46.6-.75.11-.29.165-.61.165-.965 0-.755-.355-1.38-1.065-1.875-.71-.5-1.93-1.035-3.655-1.61a26.735 26.735 0 0 1-2.26-.915 8.286 8.286 0 0 1-2.025-1.295 6.103 6.103 0 0 1-1.46-1.895c-.375-.74-.565-1.645-.565-2.71s.2-2.02.6-2.875c.4-.855.965-1.58 1.695-2.175.73-.6 1.615-1.055 2.66-1.38 1.04-.32 2.215-.48 3.52-.48 1.55 0 2.89.165 4.02.5 1.13.33 2.06.7 2.79 1.095L133.535 9.4a14.407 14.407 0 0 0-2.145-.88c-.785-.255-1.735-.38-2.84-.38-1.24 0-2.13.17-2.675.515-.545.345-.815.87-.815 1.58 0 .42.1.775.3 1.065.2.29.48.55.845.78a7.05 7.05 0 0 0 1.26.63c.475.19 1 .38 1.58.58 1.195.445 2.235.88 3.125 1.315.885.43 1.62.935 2.21 1.51a5.446 5.446 0 0 1 1.31 2.025c.29.775.43 1.715.43 2.825 0 2.15-.755 3.815-2.26 5s-3.775 1.78-6.81 1.78c-1.02 0-1.94-.06-2.76-.185-.82-.12-1.545-.27-2.175-.45a12.215 12.215 0 0 1-2.775-1.13l1.46-4.12c.685.375 1.535.715 2.54 1.015 1.005.3 2.245.45 3.705.45l.01.005ZM139.615 5.455l4.95-.795v5.15h5.95v4.12h-5.95v6.145c0 1.04.185 1.87.55 2.49.365.62 1.1.93 2.21.93.53 0 1.08-.05 1.645-.15.565-.1 1.08-.24 1.545-.415l.7 3.855c-.6.245-1.265.455-1.995.63-.73.175-1.63.265-2.69.265-1.35 0-2.47-.185-3.355-.55-.885-.365-1.595-.875-2.125-1.53s-.905-1.445-1.115-2.375c-.21-.93-.315-1.96-.315-3.09V5.455h-.005ZM159.95 4.755c0 .91-.295 1.625-.88 2.145s-1.28.78-2.075.78c-.795 0-1.49-.26-2.075-.78-.585-.52-.88-1.235-.88-2.145 0-.91.295-1.62.88-2.145.585-.52 1.28-.78 2.075-.78.795 0 1.49.26 2.075.78.585.52.88 1.235.88 2.145Zm-.465 22.53h-4.95V9.805h4.95v17.48ZM163.97 5.455l4.95-.795v5.15h5.95v4.12h-5.95v6.145c0 1.04.185 1.87.55 2.49.365.62 1.1.93 2.21.93.53 0 1.08-.05 1.645-.15.565-.1 1.08-.24 1.545-.415l.7 3.855c-.6.245-1.265.455-1.995.63-.73.175-1.63.265-2.69.265-1.35 0-2.47-.185-3.355-.55-.885-.365-1.595-.875-2.125-1.53s-.905-1.445-1.115-2.375c-.21-.93-.315-1.96-.315-3.09V5.455h-.005ZM177.39 18.545c0-1.265.205-2.455.615-3.57.41-1.12 1-2.095 1.78-2.925a8.43 8.43 0 0 1 2.825-1.975c1.11-.485 2.37-.73 3.79-.73.93 0 1.785.085 2.56.25.775.165 1.53.405 2.26.715l-1.03 3.955c-.465-.175-.975-.33-1.53-.465a7.887 7.887 0 0 0-1.86-.2c-1.46 0-2.555.455-3.275 1.36-.72.91-1.08 2.105-1.08 3.59 0 1.575.34 2.79 1.015 3.655.675.865 1.855 1.295 3.54 1.295.6 0 1.24-.055 1.925-.165a8.36 8.36 0 0 0 1.895-.53l.7 4.055c-.575.245-1.295.455-2.16.63-.865.175-1.815.265-2.855.265-1.595 0-2.97-.24-4.12-.715s-2.1-1.125-2.84-1.945c-.745-.82-1.285-1.79-1.63-2.905-.345-1.12-.515-2.33-.515-3.64l-.01-.005ZM194.835 27.285V2.295l4.95-.795v8.375c.335-.11.76-.215 1.28-.315s1.025-.15 1.51-.15c1.42 0 2.595.195 3.54.58.94.39 1.695.935 2.26 1.645.565.71.965 1.55 1.195 2.525.235.975.35 2.06.35 3.255v9.87h-4.95v-9.27c0-1.595-.205-2.725-.615-3.39-.41-.665-1.17-.995-2.275-.995-.445 0-.86.04-1.245.115-.39.08-.735.16-1.045.25v13.29h-4.955Z"/></g><defs><clipPath id="a"><path fill="#fff" d="M0 0h210v28H0z"/></clipPath></defs></svg>