<?xml version="1.0" encoding="UTF-8"?>
<svg id="Layer_1" data-name="Layer 1" xmlns="http://www.w3.org/2000/svg" viewBox="0 0 693.75 150">
  <defs>
    <style>
      .cls-1 {
        fill: #a6917e;
      }

      .cls-2 {
        fill: #294759;
      }
    </style>
  </defs>
  <g>
    <path class="cls-2" d="M155.1,99.39l-32.953-43.673v32.334c0,2.68.132,4.444.395,5.292s1.014,1.626,2.251,2.337,3.093,1.065,5.567,1.065v1.581h-17.387v-1.581c2.222-.16,3.917-.567,5.085-1.22s1.861-1.357,2.079-2.113.326-2.543.326-5.36v-24.706c0-3.574-.166-5.967-.498-7.182s-.859-1.993-1.581-2.337-2.331-.515-4.828-.515v-1.581h13.745l27.592,36.458v-27.867c0-2.062-.212-3.505-.636-4.33s-1.289-1.478-2.594-1.959-2.875-.722-4.708-.722v-1.581h16.906v1.581c-1.97.16-3.522.538-4.656,1.134s-1.856,1.311-2.165,2.148-.464,2.251-.464,4.244v38.554h-1.478Z"/>
    <path class="cls-2" d="M194.427,88.174h1.155l-.699,10.151h-27.011v-1.107h.673c1.621,0,2.666-.216,3.14-.65.472-.432.773-.982.902-1.646.127-.666.192-2.361.192-5.088v-15.995c0-2.485-.069-4.121-.205-4.907-.136-.785-.448-1.334-.938-1.648-.49-.312-1.519-.468-3.091-.468v-1.107h23.309l.769,8.129h-1.13c-.514-2.276-1.143-3.891-1.888-4.846-.746-.954-1.632-1.555-2.659-1.804-1.025-.248-2.677-.372-4.954-.372h-4.523v13.686h3.463c1.588,0,2.699-.136,3.332-.409.634-.272,1.051-.684,1.251-1.238.2-.553.301-1.631.301-3.234h1.13v11.16h-1.13c0-1.813-.153-3.027-.457-3.644-.305-.617-.75-1.019-1.336-1.203-.586-.185-1.575-.278-2.971-.278h-3.584v7.721c0,3.864.249,6.138.746,6.819s1.835,1.022,4.017,1.022h2.428c1.717,0,3.127-.22,4.234-.661s2.16-1.347,3.163-2.717c1.002-1.372,1.793-3.26,2.37-5.665Z"/>
    <path class="cls-2" d="M218.753,99.094h-1.49l-11.258-25.929c-.208-.465-.537-1.267-.985-2.405-.626-1.539-1.284-2.574-1.973-3.103-.69-.53-1.804-.81-3.343-.842v-1.107h14.047v1.107c-1.748,0-2.922.129-3.523.385s-.902.744-.902,1.466c0,.465.377,1.556,1.13,3.271l9.381,21.648,7.529-18.015c1.266-3.015,1.9-4.98,1.9-5.893,0-1.844-1.307-2.798-3.92-2.862v-1.107h9.958v1.107c-1.011.031-1.9.392-2.67,1.082-.77.689-1.435,1.699-1.996,3.031l-2.189,5.123-9.694,23.042Z"/>
    <path class="cls-2" d="M253.285,86.299h-12.387l-.842,2.069c-1.25,2.998-1.876,4.954-1.876,5.869,0,.978.332,1.72.998,2.225s1.519.757,2.561.757v1.107h-9.693v-1.107c1.443-.225,2.517-.733,3.223-1.528.706-.793,1.555-2.465,2.55-5.015.08-.241.465-1.17,1.154-2.789l9.477-22.634h.939l10.895,25.904,1.492,3.416c.336.77.789,1.374,1.359,1.815.568.442,1.423.719,2.561.83v1.107h-12.82v-1.107c1.571,0,2.633-.116,3.187-.349.553-.232.829-.693.829-1.383,0-.352-.369-1.403-1.107-3.15l-2.501-6.038ZM252.877,85.216l-5.773-13.904-5.75,13.904h11.523Z"/>
    <path class="cls-2" d="M321.603,90.285l16.975-38.554h14.294v1.581h-1.718c-2.291,0-3.791.189-4.501.567s-1.185,1.082-1.426,2.113-.361,3.482-.361,7.353v22.85c0,3.665.092,6.065.275,7.199s.647,1.976,1.392,2.526,2.17.825,4.278.825h2.062v1.581h-22.266v-1.581h1.649c1.97,0,3.339-.252,4.106-.756s1.26-1.289,1.478-2.354c.218-1.065.326-3.545.326-7.439v-29.654l-18.452,41.784h-1.615l-18.59-41.784v27.283c0,3.734.115,6.277.344,7.628.229,1.352.939,2.537,2.13,3.556s2.863,1.598,5.017,1.735v1.581h-16.665v-1.581c1.993-.115,3.614-.659,4.862-1.632s2.01-2.17,2.285-3.591.412-4.055.412-7.903v-20.273c0-3.711-.109-6.105-.326-7.182s-.676-1.821-1.374-2.233-2.228-.619-4.587-.619h-1.271v-1.581h14.191l17.078,38.554Z"/>
    <path class="cls-2" d="M378.993,86.299h-12.387l-.842,2.069c-1.25,2.998-1.876,4.954-1.876,5.869,0,.978.332,1.72.998,2.225s1.519.757,2.561.757v1.107h-9.693v-1.107c1.443-.225,2.517-.733,3.223-1.528.706-.793,1.555-2.465,2.55-5.015.08-.241.465-1.17,1.154-2.789l9.477-22.634h.939l10.895,25.904,1.492,3.416c.336.77.789,1.374,1.359,1.815.568.442,1.423.719,2.561.83v1.107h-12.82v-1.107c1.571,0,2.633-.116,3.187-.349.553-.232.829-.693.829-1.383,0-.352-.369-1.403-1.107-3.15l-2.501-6.038ZM378.584,85.216l-5.773-13.904-5.75,13.904h11.523Z"/>
    <path class="cls-2" d="M396.392,97.989v-10.487h1.203c1.363,6.831,4.594,10.247,9.694,10.247,2.292,0,4.069-.654,5.327-1.961,1.258-1.306,1.888-2.769,1.888-4.39,0-1.635-.554-3.007-1.659-4.112-1.107-1.091-3.127-2.262-6.062-3.512-2.614-1.122-4.586-2.105-5.917-2.946-1.332-.842-2.37-1.937-3.114-3.283-.746-1.347-1.12-2.782-1.12-4.307,0-2.324.806-4.261,2.418-5.809,1.611-1.548,3.652-2.321,6.121-2.321,1.38,0,2.679.225,3.897.673,1.218.45,2.47,1.38,3.753,2.79.737-.882,1.154-1.835,1.25-2.862h1.059v8.539h-1.059c-.608-2.485-1.687-4.441-3.234-5.869s-3.34-2.14-5.376-2.14c-1.94,0-3.363.525-4.269,1.575-.906,1.051-1.359,2.201-1.359,3.452,0,1.508.568,2.782,1.708,3.824,1.121,1.058,3.15,2.245,6.085,3.559,2.806,1.251,4.846,2.258,6.122,3.02,1.274.762,2.296,1.815,3.067,3.163.769,1.347,1.154,2.902,1.154,4.666,0,2.79-.931,5.06-2.79,6.808-1.86,1.747-4.345,2.621-7.456,2.621-3.575,0-6.559-1.372-8.947-4.113-.53.755-.923,1.813-1.18,3.176h-1.203Z"/>
    <path class="cls-2" d="M445.448,98.806c-.755.08-1.563.12-2.43.12-5.243,0-9.521-1.559-12.833-4.679-3.312-3.118-4.967-7.267-4.967-12.447,0-5.018,1.679-9.056,5.04-12.111,3.359-3.054,7.564-4.582,12.615-4.582,3.111,0,6.118.677,9.02,2.033,2.902,1.354,5.1,3.359,6.59,6.013,1.492,2.653,2.238,5.592,2.238,8.815,0,3.753-.975,7.071-2.922,9.958-1.949,2.886-4.768,4.907-8.456,6.062l-7.192,3.969c.497-.049.931-.073,1.299-.073,3.561,0,7.657.802,12.291,2.405,3.561,1.234,6.383,1.853,8.467,1.853,2.886,0,4.602-1.091,5.147-3.271h1.011c-.273,2.213-1.195,4.009-2.766,5.388-1.572,1.379-3.601,2.069-6.086,2.069-1.635,0-3.123-.265-4.461-.793-1.339-.53-3.083-1.476-5.232-2.839-3.848-2.453-7.056-3.68-9.621-3.68-1.539,0-3.031.608-4.474,1.828-.962.8-1.628,1.203-1.996,1.203-.578,0-.866-.265-.866-.795,0-.401.345-.813,1.034-1.238.69-.425,1.989-1.102,3.897-2.033.401-.192.802-.401,1.203-.624l4.45-2.55ZM430.727,81.969c0,5.243,1.047,9.18,3.14,11.81,2.092,2.63,5.232,3.944,9.416,3.944,3.671,0,6.574-1.314,8.706-3.944,2.133-2.63,3.2-6.552,3.2-11.763,0-5.067-1.051-8.951-3.151-11.653-2.1-2.702-5.147-4.053-9.14-4.053-3.929,0-6.94,1.319-9.031,3.957-2.093,2.637-3.14,6.539-3.14,11.702Z"/>
    <path class="cls-2" d="M489.883,65.709h10.895v1.107c-1.443.096-2.521.421-3.236.974-.713.554-1.15,1.175-1.31,1.864-.16.69-.241,2.029-.241,4.017v10.848c0,2.773-.109,4.834-.325,6.181s-.842,2.67-1.876,3.969c-1.035,1.299-2.49,2.334-4.367,3.103-1.876.77-4.04,1.155-6.494,1.155-2.902,0-5.359-.494-7.372-1.479-2.012-.986-3.448-2.262-4.305-3.826-.858-1.563-1.287-3.659-1.287-6.29l.024-3.343v-10.151c0-2.597-.076-4.272-.229-5.027-.152-.753-.472-1.274-.962-1.563-.488-.288-1.559-.432-3.21-.432h-.746v-1.107h14.889v1.107h-.65c-1.604,0-2.653.132-3.15.397-.498.265-.83.757-.999,1.479-.168.722-.252,2.438-.252,5.147v10.271c0,3.559.165,6.085.493,7.577.329,1.492,1.256,2.795,2.779,3.909,1.523,1.115,3.551,1.672,6.085,1.672,1.989,0,3.797-.374,5.425-1.12,1.626-.744,2.838-1.675,3.631-2.789.795-1.115,1.279-2.262,1.456-3.44.176-1.178.265-3.034.265-5.568v-11.113c0-1.843-.105-3.134-.314-3.871-.208-.737-.657-1.323-1.347-1.757-.689-.432-1.78-.697-3.27-.793v-1.107Z"/>
    <path class="cls-2" d="M532.416,88.174h1.155l-.699,10.151h-27.011v-1.107h.673c1.621,0,2.666-.216,3.14-.65.472-.432.773-.982.902-1.646.127-.666.192-2.361.192-5.088v-15.995c0-2.485-.069-4.121-.205-4.907-.136-.785-.448-1.334-.938-1.648-.49-.312-1.519-.468-3.091-.468v-1.107h23.309l.769,8.129h-1.13c-.514-2.276-1.143-3.891-1.888-4.846-.746-.954-1.632-1.555-2.659-1.804-1.025-.248-2.677-.372-4.954-.372h-4.523v13.686h3.463c1.588,0,2.699-.136,3.332-.409.634-.272,1.051-.684,1.251-1.238.2-.553.301-1.631.301-3.234h1.13v11.16h-1.13c0-1.813-.153-3.027-.457-3.644-.305-.617-.75-1.019-1.336-1.203-.586-.185-1.575-.278-2.971-.278h-3.584v7.721c0,3.864.249,6.138.746,6.819s1.835,1.022,4.017,1.022h2.428c1.717,0,3.127-.22,4.234-.661s2.16-1.347,3.163-2.717c1.002-1.372,1.793-3.26,2.37-5.665Z"/>
    <path class="cls-2" d="M573.365,98.325h-8.779c-1.555-1.091-3.936-3.944-7.143-8.563-1.027-1.475-2.093-2.891-3.2-4.245-1.107-1.356-1.868-2.181-2.285-2.478-.417-.296-1.067-.444-1.949-.444h-1.299v7.239c0,2.566.06,4.247.18,5.04s.441,1.383.962,1.768,1.519.577,2.995.577h1.563v1.107h-15.61v-1.107h1.058c1.395,0,2.361-.176,2.898-.53.537-.352.878-.902,1.022-1.646.145-.746.216-2.481.216-5.209v-15.995c0-2.597-.072-4.272-.216-5.027-.145-.753-.465-1.274-.962-1.563-.497-.288-1.572-.432-3.223-.432h-.553v-1.107l4.666-.241c3.111-.145,5.579-.216,7.408-.216,3.111,0,5.641.288,7.59.866,1.947.577,3.523,1.523,4.726,2.838s1.804,2.886,1.804,4.715c0,2.132-.786,3.953-2.358,5.459-1.571,1.508-3.88,2.445-6.927,2.815,1.363.657,3.559,3.031,6.59,7.12,2.47,3.319,4.41,5.492,5.821,6.519,1.41,1.025,3.078,1.571,5.002,1.635v1.107ZM548.711,81.488c1.203-.033,2.445-.08,3.728-.145s2.397-.241,3.343-.53c.946-.288,1.712-.709,2.298-1.263.586-.553,1.047-1.279,1.383-2.176.336-.898.505-2.004.505-3.319,0-2.294-.574-4.129-1.721-5.509-1.145-1.379-3.644-2.067-7.492-2.067-.593,0-1.274.031-2.045.096v14.913Z"/>
    <path class="cls-2" d="M597.186,86.299h-12.387l-.842,2.069c-1.25,2.998-1.876,4.954-1.876,5.869,0,.978.332,1.72.998,2.225s1.519.757,2.561.757v1.107h-9.693v-1.107c1.443-.225,2.517-.733,3.223-1.528.706-.793,1.555-2.465,2.55-5.015.08-.241.465-1.17,1.154-2.789l9.477-22.634h.939l10.895,25.904,1.492,3.416c.336.77.789,1.374,1.359,1.815.568.442,1.423.719,2.561.83v1.107h-12.82v-1.107c1.571,0,2.633-.116,3.187-.349.553-.232.829-.693.829-1.383,0-.352-.369-1.403-1.107-3.15l-2.501-6.038ZM596.778,85.216l-5.773-13.904-5.75,13.904h11.523Z"/>
    <path class="cls-2" d="M612.903,65.974l5.365-.265c4.474-.225,7.488-.336,9.044-.336,4.842,0,8.619.737,11.328,2.212,2.71,1.476,4.728,3.476,6.05,6.002s1.984,5.441,1.984,8.744c0,2.39-.361,4.574-1.082,6.554-.722,1.98-1.712,3.624-2.971,4.931-1.26,1.307-2.719,2.301-4.378,2.982s-3.234,1.107-4.726,1.274c-1.492.169-3.592.253-6.302.253h-14.455v-1.107h1.346c1.396,0,2.361-.176,2.899-.53.537-.352.882-.902,1.034-1.646.153-.746.229-2.481.229-5.209v-15.73c0-2.597-.076-4.277-.229-5.038-.152-.762-.472-1.283-.962-1.563s-1.559-.421-3.211-.421h-.962v-1.107ZM622.958,66.647v21.792c0,3.223.06,5.3.18,6.229.12.931.481,1.583,1.082,1.96.601.378,1.871.566,3.813.566,2.838,0,5.171-.388,6.998-1.167,1.828-.777,3.356-2.308,4.583-4.593,1.227-2.285,1.84-5.2,1.84-8.744,0-2.758-.357-5.22-1.071-7.385-.713-2.165-1.735-3.924-3.067-5.279-1.33-1.356-2.806-2.278-4.425-2.766-1.619-.49-3.695-.734-6.229-.734-1.218,0-2.454.04-3.704.12Z"/>
    <path class="cls-2" d="M679.781,88.174h1.155l-.699,10.151h-27.011v-1.107h.673c1.621,0,2.666-.216,3.14-.65.472-.432.773-.982.902-1.646.127-.666.192-2.361.192-5.088v-15.995c0-2.485-.069-4.121-.205-4.907-.136-.785-.448-1.334-.938-1.648-.49-.312-1.519-.468-3.091-.468v-1.107h23.309l.769,8.129h-1.13c-.514-2.276-1.143-3.891-1.888-4.846-.746-.954-1.632-1.555-2.659-1.804-1.025-.248-2.677-.372-4.954-.372h-4.523v13.686h3.463c1.588,0,2.699-.136,3.332-.409.634-.272,1.051-.684,1.251-1.238.2-.553.301-1.631.301-3.234h1.13v11.16h-1.13c0-1.813-.153-3.027-.457-3.644-.305-.617-.75-1.019-1.336-1.203-.586-.185-1.575-.278-2.971-.278h-3.584v7.721c0,3.864.249,6.138.746,6.819s1.835,1.022,4.017,1.022h2.428c1.717,0,3.127-.22,4.234-.661s2.16-1.347,3.163-2.717c1.002-1.372,1.793-3.26,2.37-5.665Z"/>
  </g>
  <g>
    <g>
      <polygon class="cls-2" points="33.009 55.214 52.77 87.692 52.821 96.459 35.299 67.804 35.286 95.573 33.009 93.295 33.009 55.214"/>
      <polygon class="cls-2" points="46.154 55.214 59.483 77.23 72.462 54.937 72.462 93.286 70.212 95.537 70.139 67.683 59.47 86.064 46.154 64.276 46.154 55.214"/>
    </g>
    <g>
      <polygon class="cls-1" points="66.403 49.367 63.643 49.367 61.691 47.415 52.735 38.459 41.828 49.367 39.068 49.367 52.735 35.699 64.452 47.415 66.403 49.367"/>
      <polygon class="cls-1" points="92.735 75.698 78.975 89.458 78.975 86.567 89.91 75.633 78.975 64.698 78.975 61.937 81.02 63.982 92.735 75.698"/>
      <polygon class="cls-1" points="66.494 101.939 52.735 115.698 41.02 103.982 38.977 101.939 41.867 101.939 52.735 112.807 61.56 103.982 63.604 101.939 66.494 101.939"/>
      <polygon class="cls-1" points="24.452 66.742 15.561 75.633 24.451 84.522 26.403 86.474 26.403 89.365 24.451 87.413 12.735 75.698 24.452 63.982 26.403 62.03 26.403 64.791 24.452 66.742"/>
    </g>
    <g>
      <g>
        <path class="cls-2" d="M19.52,47.346c.82.596,2.83.722,4.111-.704,1.448-1.612,1.127-3.267.853-3.916-.898-2.129-8.372-4.394-8.681-3.914-.37.575,2.028,7.305,3.716,8.533Z"/>
        <path class="cls-2" d="M28.801,42.536c-.596.82-.722,2.83.704,4.111,1.612,1.448,3.267,1.127,3.916.853,2.129-.898,4.394-8.372,3.914-8.681-.575-.37-7.305,2.028-8.533,3.716Z"/>
        <path class="cls-2" d="M24.383,56.574c.596-.82.722-2.83-.704-4.111-1.612-1.448-3.267-1.127-3.916-.853-2.129.898-4.394,8.372-3.914,8.681.575.37,7.305-2.028,8.533-3.716Z"/>
        <circle class="cls-2" cx="26.597" cy="49.547" r="2.077"/>
      </g>
      <g>
        <path class="cls-2" d="M81.903,42.304c-.596.82-.722,2.83.704,4.111,1.612,1.448,3.267,1.127,3.916.853,2.129-.898,4.394-8.372,3.914-8.681-.575-.37-7.305,2.028-8.533,3.716Z"/>
        <path class="cls-2" d="M86.713,51.585c-.82-.596-2.83-.722-4.111.704-1.448,1.612-1.127,3.267-.853,3.916.898,2.129,8.372,4.394,8.681,3.914.37-.575-2.028-7.305-3.716-8.533Z"/>
        <path class="cls-2" d="M72.675,47.167c.82.596,2.83.722,4.111-.704,1.448-1.612,1.127-3.267.853-3.916-.898-2.129-8.372-4.394-8.681-3.914-.37.575,2.028,7.305,3.716,8.533Z"/>
        <circle class="cls-2" cx="79.702" cy="49.381" r="2.077"/>
      </g>
      <g>
        <path class="cls-2" d="M86.037,103.505c-.82-.596-2.83-.722-4.111.704-1.448,1.612-1.127,3.267-.853,3.916.898,2.129,8.372,4.394,8.681,3.914.37-.575-2.028-7.305-3.716-8.533Z"/>
        <path class="cls-2" d="M76.757,108.315c.596-.82.722-2.83-.704-4.111-1.612-1.448-3.267-1.127-3.916-.853-2.129.898-4.394,8.372-3.914,8.681.575.37,7.305-2.028,8.533-3.716Z"/>
        <path class="cls-2" d="M81.174,94.277c-.596.82-.722,2.83.704,4.111,1.612,1.448,3.267,1.127,3.916.853,2.129-.898,4.394-8.372,3.914-8.681-.575-.37-7.305,2.028-8.533,3.716Z"/>
        <circle class="cls-2" cx="78.961" cy="101.304" r="2.077"/>
      </g>
      <g>
        <path class="cls-2" d="M24.806,108.663c.596-.82.722-2.83-.704-4.111-1.612-1.448-3.267-1.127-3.916-.853-2.129.898-4.394,8.372-3.914,8.681.575.37,7.305-2.028,8.533-3.716Z"/>
        <path class="cls-2" d="M19.996,99.383c.82.596,2.83.722,4.111-.704,1.448-1.612,1.127-3.267.853-3.916-.898-2.129-8.372-4.394-8.681-3.914-.37.575,2.028,7.305,3.716,8.533Z"/>
        <path class="cls-2" d="M34.034,103.8c-.82-.596-2.83-.722-4.111.704-1.448,1.612-1.127,3.267-.853,3.916.898,2.129,8.372,4.394,8.681,3.914.37-.575-2.028-7.305-3.716-8.533Z"/>
        <circle class="cls-2" cx="27.007" cy="101.587" r="2.077"/>
      </g>
    </g>
  </g>
</svg>