<?xml version="1.0" encoding="UTF-8"?>
<svg id="Layer_1" data-name="Layer 1" xmlns="http://www.w3.org/2000/svg" viewBox="0 0 150 150">
  <defs>
    <style>
      .cls-1 {
        fill: none;
        stroke: #ccb7a5;
        stroke-linecap: round;
        stroke-linejoin: round;
        stroke-width: 5.435px;
      }
    </style>
  </defs>
  <path class="cls-1" d="M34.649,52.557l-9.608-15.987,11.529-11.529,15.987,9.608-.003.025c3.043-1.739,6.304-3.098,9.783-4.076l4.511-18.098h16.304l4.511,18.098c3.478.978,6.739,2.337,9.783,4.076l-.003-.025,15.987-9.608,11.529,11.529-9.608,15.987-.025-.003c1.739,3.043,3.098,6.304,4.076,9.783l18.098,4.511v16.304l-18.098,4.511c-.978,3.478-2.337,6.739-4.076,9.783l.025-.003,9.608,15.987-11.529,11.529-15.987-9.608.003-.025c-3.043,1.739-6.304,3.098-9.783,4.076l-4.511,18.098h-16.304l-4.511-18.098c-3.478-.978-6.739-2.337-9.783-4.076l.003.025-15.987,9.608-11.529-11.529,9.608-15.987.025.003c-1.739-3.043-3.098-6.304-4.076-9.783l-18.098-4.511v-16.304l18.098-4.511c.978-3.478,2.337-6.739,4.076-9.783l-.025.003Z"/>
  <circle class="cls-1" cx="75" cy="75" r="27.174"/>
</svg>