<?xml version="1.0" encoding="UTF-8"?>
<svg id="Layer_1" data-name="Layer 1" xmlns="http://www.w3.org/2000/svg" viewBox="0 0 693.75 150">
  <defs>
    <style>
      .cls-1 {
        fill: #a6917e;
      }

      .cls-2 {
        fill: #ccb7a5;
      }

      .cls-3 {
        fill: #294759;
      }
    </style>
  </defs>
  <g>
    <path class="cls-3" d="M185.955,97.992l-31.019-41.111v30.437c0,2.523.124,4.183.372,4.981s.954,1.531,2.119,2.199,2.911,1.003,5.24,1.003v1.488h-16.367v-1.488c2.092-.151,3.687-.534,4.787-1.148s1.752-1.278,1.957-1.989.307-2.394.307-5.046v-23.256c0-3.364-.156-5.617-.469-6.76s-.809-1.876-1.488-2.199-2.194-.485-4.545-.485v-1.488h12.938l25.973,34.318v-26.232c0-1.941-.199-3.299-.598-4.076s-1.213-1.391-2.442-1.844-2.706-.679-4.431-.679v-1.488h15.914v1.488c-1.854.151-3.315.507-4.383,1.067s-1.747,1.235-2.038,2.022-.437,2.119-.437,3.995v36.291h-1.391Z"/>
    <path class="cls-3" d="M222.974,87.434h1.088l-.658,9.555h-25.426v-1.042h.633c1.526,0,2.509-.204,2.956-.612.445-.407.728-.925.849-1.55.12-.627.181-2.222.181-4.79v-15.057c0-2.34-.065-3.879-.193-4.619-.128-.739-.422-1.256-.883-1.551-.461-.294-1.43-.441-2.91-.441v-1.042h21.941l.724,7.652h-1.063c-.484-2.143-1.075-3.663-1.778-4.562-.702-.898-1.536-1.464-2.503-1.698-.965-.233-2.52-.35-4.663-.35h-4.257v12.883h3.26c1.495,0,2.54-.128,3.136-.385.597-.256.989-.644,1.178-1.166.189-.52.283-1.535.283-3.044h1.063v10.505h-1.063c0-1.706-.144-2.849-.43-3.43-.287-.581-.706-.96-1.257-1.132-.551-.174-1.482-.261-2.797-.261h-3.373v7.268c0,3.637.235,5.778.702,6.419s1.728.962,3.782.962h2.286c1.616,0,2.943-.208,3.985-.623s2.034-1.268,2.977-2.558c.943-1.291,1.687-3.069,2.23-5.333Z"/>
    <path class="cls-3" d="M245.873,97.713h-1.403l-10.597-24.407c-.195-.438-.505-1.193-.927-2.264-.589-1.449-1.209-2.423-1.857-2.921-.65-.499-1.698-.763-3.147-.792v-1.042h13.222v1.042c-1.646,0-2.751.121-3.317.363s-.849.701-.849,1.38c0,.438.354,1.465,1.063,3.08l8.83,20.378,7.088-16.958c1.191-2.838,1.788-4.687,1.788-5.547,0-1.736-1.23-2.633-3.69-2.694v-1.042h9.373v1.042c-.951.03-1.788.369-2.513,1.019-.725.648-1.35,1.6-1.879,2.853l-2.061,4.822-9.125,21.69Z"/>
    <path class="cls-3" d="M278.379,85.669h-11.66l-.792,1.947c-1.177,2.822-1.766,4.663-1.766,5.524,0,.92.313,1.619.939,2.094s1.43.713,2.411.713v1.042h-9.124v-1.042c1.359-.212,2.369-.69,3.034-1.438.664-.747,1.464-2.321,2.4-4.721.075-.226.438-1.101,1.086-2.625l8.921-21.306h.884l10.256,24.384,1.404,3.216c.317.725.743,1.294,1.279,1.709.535.416,1.34.677,2.411.782v1.042h-12.067v-1.042c1.478,0,2.478-.109,3-.329.52-.218.78-.652.78-1.302,0-.332-.348-1.321-1.042-2.965l-2.354-5.683ZM277.994,84.65l-5.434-13.088-5.412,13.088h10.846Z"/>
    <path class="cls-3" d="M342.688,89.421l15.979-36.291h13.456v1.488h-1.617c-2.156,0-3.569.178-4.237.534s-1.116,1.019-1.342,1.989-.34,3.278-.34,6.922v21.51c0,3.45.086,5.709.259,6.776s.609,1.86,1.31,2.377,2.043.776,4.027.776h1.941v1.488h-20.96v-1.488h1.553c1.854,0,3.143-.237,3.865-.712s1.186-1.213,1.391-2.216c.205-1.003.307-3.337.307-7.003v-27.914l-17.369,39.332h-1.52l-17.499-39.332v25.682c0,3.515.108,5.908.323,7.181.216,1.272.884,2.388,2.005,3.348s2.695,1.504,4.722,1.633v1.488h-15.687v-1.488c1.876-.108,3.402-.62,4.577-1.536s1.892-2.043,2.151-3.38.388-3.817.388-7.439v-19.084c0-3.493-.102-5.747-.307-6.76s-.636-1.714-1.294-2.102-2.097-.582-4.318-.582h-1.197v-1.488h13.359l16.076,36.291Z"/>
    <path class="cls-3" d="M396.71,85.669h-11.66l-.792,1.947c-1.177,2.822-1.766,4.663-1.766,5.524,0,.92.313,1.619.939,2.094s1.43.713,2.411.713v1.042h-9.124v-1.042c1.359-.212,2.369-.69,3.034-1.438.664-.747,1.464-2.321,2.4-4.721.075-.226.438-1.101,1.086-2.625l8.921-21.306h.884l10.256,24.384,1.404,3.216c.317.725.743,1.294,1.279,1.709.535.416,1.34.677,2.411.782v1.042h-12.067v-1.042c1.478,0,2.478-.109,3-.329.52-.218.78-.652.78-1.302,0-.332-.348-1.321-1.042-2.965l-2.354-5.683ZM396.325,84.65l-5.434-13.088-5.412,13.088h10.846Z"/>
    <path class="cls-3" d="M413.088,96.673v-9.872h1.132c1.283,6.43,4.325,9.646,9.125,9.646,2.158,0,3.83-.616,5.015-1.846,1.185-1.229,1.778-2.606,1.778-4.132,0-1.539-.522-2.83-1.562-3.871-1.042-1.027-2.943-2.129-5.706-3.306-2.461-1.057-4.317-1.981-5.57-2.774-1.253-.792-2.23-1.823-2.931-3.09-.702-1.268-1.054-2.619-1.054-4.054,0-2.187.759-4.011,2.276-5.468,1.516-1.457,3.438-2.185,5.761-2.185,1.299,0,2.522.212,3.668.633,1.147.423,2.325,1.299,3.532,2.627.694-.83,1.086-1.728,1.177-2.694h.997v8.038h-.997c-.573-2.34-1.588-4.181-3.044-5.524s-3.144-2.015-5.061-2.015c-1.826,0-3.166.495-4.019,1.482-.853.989-1.279,2.071-1.279,3.249,0,1.419.535,2.619,1.608,3.6,1.055.996,2.965,2.113,5.728,3.35,2.642,1.178,4.562,2.125,5.763,2.842,1.199.717,2.162,1.709,2.887,2.977.724,1.268,1.086,2.732,1.086,4.392,0,2.627-.876,4.763-2.627,6.408-1.751,1.644-4.09,2.468-7.019,2.468-3.365,0-6.174-1.291-8.422-3.872-.499.71-.869,1.706-1.111,2.989h-1.132Z"/>
    <path class="cls-3" d="M459.265,97.442c-.71.075-1.472.113-2.287.113-4.935,0-8.962-1.468-12.08-4.404-3.117-2.935-4.675-6.841-4.675-11.717,0-4.724,1.581-8.524,4.744-11.4,3.162-2.875,7.12-4.313,11.875-4.313,2.929,0,5.759.637,8.491,1.914,2.732,1.275,4.801,3.162,6.204,5.66,1.404,2.497,2.106,5.264,2.106,8.298,0,3.532-.918,6.656-2.751,9.373-1.834,2.717-4.488,4.619-7.96,5.706l-6.77,3.736c.468-.046.876-.069,1.222-.069,3.352,0,7.208.755,11.57,2.264,3.352,1.162,6.008,1.744,7.97,1.744,2.717,0,4.332-1.027,4.845-3.08h.951c-.257,2.084-1.125,3.774-2.604,5.071-1.48,1.298-3.39,1.947-5.729,1.947-1.539,0-2.939-.249-4.199-.747-1.26-.499-2.902-1.389-4.925-2.673-3.623-2.309-6.642-3.464-9.057-3.464-1.449,0-2.853.573-4.212,1.721-.906.753-1.532,1.132-1.879,1.132-.544,0-.815-.249-.815-.748,0-.377.325-.766.973-1.166.65-.4,1.872-1.038,3.668-1.914.377-.181.755-.377,1.132-.588l4.189-2.4ZM445.408,81.593c0,4.935.985,8.642,2.956,11.117,1.969,2.476,4.925,3.713,8.864,3.713,3.456,0,6.189-1.237,8.195-3.713,2.008-2.476,3.012-6.167,3.012-11.073,0-4.77-.989-8.426-2.966-10.969s-4.845-3.815-8.604-3.815c-3.698,0-6.532,1.241-8.501,3.725-1.97,2.482-2.956,6.155-2.956,11.015Z"/>
    <path class="cls-3" d="M501.093,66.287h10.256v1.042c-1.359.09-2.373.396-3.046.916-.671.522-1.082,1.106-1.233,1.755-.151.65-.226,1.91-.226,3.782v10.212c0,2.611-.102,4.55-.306,5.818s-.792,2.513-1.766,3.736c-.974,1.222-2.344,2.197-4.111,2.921-1.766.725-3.803,1.088-6.113,1.088-2.732,0-5.045-.465-6.939-1.392-1.894-.929-3.245-2.129-4.053-3.601-.807-1.472-1.212-3.445-1.212-5.921l.023-3.147v-9.555c0-2.445-.071-4.022-.216-4.732-.143-.709-.445-1.199-.906-1.472-.46-.271-1.468-.407-3.022-.407h-.702v-1.042h14.015v1.042h-.612c-1.509,0-2.497.124-2.965.373-.469.249-.782.713-.941,1.392-.158.679-.237,2.295-.237,4.845v9.669c0,3.35.155,5.728.464,7.132.31,1.404,1.182,2.631,2.616,3.679,1.434,1.05,3.342,1.574,5.728,1.574,1.872,0,3.574-.352,5.107-1.054,1.531-.701,2.671-1.577,3.418-2.625.748-1.05,1.204-2.129,1.371-3.239.166-1.109.249-2.856.249-5.241v-10.461c0-1.735-.098-2.95-.295-3.644-.195-.694-.619-1.245-1.268-1.654-.648-.407-1.675-.656-3.078-.747v-1.042Z"/>
    <path class="cls-3" d="M541.131,87.434h1.088l-.658,9.555h-25.426v-1.042h.633c1.526,0,2.509-.204,2.956-.612.445-.407.728-.925.849-1.55.12-.627.181-2.222.181-4.79v-15.057c0-2.34-.065-3.879-.193-4.619-.128-.739-.422-1.256-.883-1.551-.461-.294-1.43-.441-2.91-.441v-1.042h21.941l.724,7.652h-1.063c-.484-2.143-1.075-3.663-1.778-4.562-.702-.898-1.536-1.464-2.503-1.698-.965-.233-2.52-.35-4.663-.35h-4.257v12.883h3.26c1.495,0,2.54-.128,3.136-.385.597-.256.989-.644,1.178-1.166.189-.52.283-1.535.283-3.044h1.063v10.505h-1.063c0-1.706-.144-2.849-.43-3.43-.287-.581-.706-.96-1.257-1.132-.551-.174-1.482-.261-2.797-.261h-3.373v7.268c0,3.637.235,5.778.702,6.419s1.728.962,3.782.962h2.286c1.616,0,2.943-.208,3.985-.623s2.034-1.268,2.977-2.558c.943-1.291,1.687-3.069,2.23-5.333Z"/>
    <path class="cls-3" d="M579.677,96.99h-8.264c-1.464-1.027-3.705-3.713-6.724-8.061-.966-1.388-1.97-2.721-3.012-3.996-1.042-1.276-1.759-2.053-2.151-2.333-.392-.279-1.004-.418-1.834-.418h-1.222v6.814c0,2.415.057,3.997.17,4.744s.415,1.302.906,1.664,1.43.543,2.819.543h1.472v1.042h-14.694v-1.042h.996c1.313,0,2.222-.166,2.728-.499.505-.332.826-.849.962-1.55.136-.702.204-2.336.204-4.903v-15.057c0-2.445-.067-4.022-.204-4.732-.136-.709-.438-1.199-.906-1.472-.468-.271-1.48-.407-3.034-.407h-.52v-1.042l4.392-.226c2.929-.136,5.252-.204,6.973-.204,2.929,0,5.31.271,7.144.815,1.833.543,3.317,1.434,4.449,2.671s1.698,2.717,1.698,4.438c0,2.007-.74,3.721-2.22,5.139-1.478,1.419-3.652,2.302-6.52,2.65,1.283.619,3.35,2.853,6.204,6.702,2.325,3.124,4.151,5.17,5.48,6.136,1.328.965,2.898,1.478,4.709,1.539v1.042ZM556.47,81.14c1.132-.031,2.302-.075,3.509-.136s2.256-.226,3.147-.499c.891-.271,1.612-.667,2.163-1.189.551-.52.985-1.204,1.302-2.049s.476-1.887.476-3.124c0-2.159-.54-3.887-1.62-5.186-1.078-1.298-3.43-1.946-7.053-1.946-.558,0-1.199.03-1.925.09v14.038Z"/>
    <path class="cls-3" d="M602.101,85.669h-11.66l-.792,1.947c-1.177,2.822-1.766,4.663-1.766,5.524,0,.92.313,1.619.939,2.094s1.43.713,2.411.713v1.042h-9.124v-1.042c1.359-.212,2.369-.69,3.034-1.438.664-.747,1.464-2.321,2.4-4.721.075-.226.438-1.101,1.086-2.625l8.921-21.306h.884l10.256,24.384,1.404,3.216c.317.725.743,1.294,1.279,1.709.535.416,1.34.677,2.411.782v1.042h-12.067v-1.042c1.478,0,2.478-.109,3-.329.52-.218.78-.652.78-1.302,0-.332-.348-1.321-1.042-2.965l-2.354-5.683ZM601.717,84.65l-5.434-13.088-5.412,13.088h10.846Z"/>
    <path class="cls-3" d="M616.895,66.536l5.05-.249c4.212-.212,7.049-.317,8.514-.317,4.558,0,8.113.694,10.663,2.082,2.551,1.389,4.45,3.272,5.695,5.65s1.868,5.121,1.868,8.231c0,2.249-.34,4.306-1.019,6.17-.679,1.864-1.612,3.411-2.797,4.642-1.186,1.23-2.559,2.166-4.121,2.807s-3.044,1.042-4.449,1.199c-1.404.159-3.381.239-5.933.239h-13.607v-1.042h1.267c1.314,0,2.222-.166,2.729-.499.505-.332.83-.849.973-1.55.144-.702.216-2.336.216-4.903v-14.807c0-2.445-.071-4.026-.216-4.743-.143-.717-.445-1.208-.906-1.472s-1.468-.396-3.023-.396h-.906v-1.042ZM626.36,67.17v20.514c0,3.034.057,4.989.17,5.864.113.876.453,1.491,1.019,1.845.566.356,1.761.532,3.589.532,2.671,0,4.868-.365,6.588-1.098,1.721-.732,3.159-2.173,4.314-4.323s1.732-4.895,1.732-8.231c0-2.596-.336-4.914-1.008-6.952-.671-2.038-1.633-3.694-2.887-4.969-1.252-1.276-2.642-2.144-4.166-2.604-1.524-.461-3.478-.691-5.864-.691-1.147,0-2.31.038-3.487.113Z"/>
    <path class="cls-3" d="M679.849,87.434h1.088l-.658,9.555h-25.426v-1.042h.633c1.526,0,2.509-.204,2.956-.612.445-.407.728-.925.849-1.55.12-.627.181-2.222.181-4.79v-15.057c0-2.34-.065-3.879-.193-4.619-.128-.739-.422-1.256-.883-1.551-.461-.294-1.43-.441-2.91-.441v-1.042h21.941l.724,7.652h-1.063c-.484-2.143-1.075-3.663-1.778-4.562-.702-.898-1.536-1.464-2.503-1.698-.965-.233-2.52-.35-4.663-.35h-4.257v12.883h3.26c1.495,0,2.54-.128,3.136-.385.597-.256.989-.644,1.178-1.166.189-.52.283-1.535.283-3.044h1.063v10.505h-1.063c0-1.706-.144-2.849-.43-3.43-.287-.581-.706-.96-1.257-1.132-.551-.174-1.482-.261-2.797-.261h-3.373v7.268c0,3.637.235,5.778.702,6.419s1.728.962,3.782.962h2.286c1.616,0,2.943-.208,3.985-.623s2.034-1.268,2.977-2.558c.943-1.291,1.687-3.069,2.23-5.333Z"/>
  </g>
  <g>
    <g>
      <polygon class="cls-3" points="45.069 50.858 69.503 91.017 69.566 101.858 47.9 66.425 47.885 100.762 45.069 97.945 45.069 50.858"/>
      <polygon class="cls-3" points="61.323 50.858 77.805 78.081 93.853 50.516 93.853 97.934 91.071 100.717 90.981 66.276 77.788 89.004 61.323 62.063 61.323 50.858"/>
    </g>
    <g>
      <polygon class="cls-1" points="109.516 95.801 109.516 115.057 29.403 115.057 29.403 95.779 32.37 98.746 32.37 112.089 106.549 112.089 106.549 98.766 109.516 95.801"/>
      <polygon class="cls-1" points="109.516 34.949 109.516 54.203 106.549 51.239 106.549 37.916 32.37 37.916 32.37 51.24 29.403 54.207 29.403 34.949 109.516 34.949"/>
      <polygon class="cls-1" points="109.516 66.827 109.516 83.197 106.549 86.164 106.549 63.851 109.516 66.827"/>
      <polygon class="cls-1" points="32.37 63.838 32.37 86.156 29.403 83.191 29.403 66.806 32.37 63.838"/>
    </g>
    <g>
      <polygon class="cls-2" points="126.109 75 109.516 91.592 106.549 94.56 91.986 109.122 87.791 109.122 106.549 90.364 109.516 87.397 121.913 75 87.787 40.874 91.984 40.875 126.109 75"/>
      <polygon class="cls-2" points="51.131 109.122 46.935 109.122 12.813 75 29.406 58.408 32.373 55.44 46.936 40.878 51.133 40.876 32.373 59.636 29.406 62.603 17.009 75 51.131 109.122"/>
      <polygon class="cls-2" points="83.085 118.024 69.46 131.649 55.835 118.024 60.031 118.024 69.46 127.453 78.89 118.023 83.085 118.024"/>
      <polygon class="cls-2" points="83.084 31.975 78.889 31.976 69.46 22.547 60.03 31.977 55.841 31.97 69.46 18.351 83.084 31.975"/>
    </g>
  </g>
</svg>