<svg width="52" height="52" fill="none" xmlns="http://www.w3.org/2000/svg"><path d="M36.833 34.667a2.173 2.173 0 0 1-2.166-2.167H17.333a2.173 2.173 0 0 1-2.166 2.167A2.173 2.173 0 0 1 13 32.5H4.333V39a4.346 4.346 0 0 0 4.334 4.333h34.666A4.346 4.346 0 0 0 47.667 39v-6.5H39a2.173 2.173 0 0 1-2.167 2.167ZM43.333 17.333h-6.5V13A4.346 4.346 0 0 0 32.5 8.667h-13A4.346 4.346 0 0 0 15.167 13v4.333h-6.5a4.346 4.346 0 0 0-4.334 4.334v8.666H13v-2.166c0-1.192.975-2.167 2.167-2.167 1.191 0 2.166.975 2.166 2.167v2.166h17.334v-2.166c0-1.192.975-2.167 2.166-2.167 1.192 0 2.167.975 2.167 2.167v2.166h8.667v-8.666a4.346 4.346 0 0 0-4.334-4.334Zm-10.833 0h-13V13h13v4.333Z" fill="#fff"/></svg>