<svg width="52" height="52" fill="none" xmlns="http://www.w3.org/2000/svg"><path d="M43.333 6.5H26a2.173 2.173 0 0 0-2.167 2.167v3.488l.022.022 10.833 9.75c1.365 1.213 2.145 2.99 2.145 4.831v1.409h4.334V32.5h-4.334v4.333h4.334v4.334h-4.334V45.5h6.5a2.173 2.173 0 0 0 2.167-2.167V8.667A2.173 2.173 0 0 0 43.333 6.5ZM32.5 15.167h-4.333v-4.334H32.5v4.334Zm8.667 8.666h-4.334V19.5h4.334v4.333Zm0-8.666h-4.334v-4.334h4.334v4.334Z" fill="#fff"/><path d="M32.5 43.333V26.758c0-.606-.26-1.191-.715-1.603l-10.833-9.75a2.082 2.082 0 0 0-1.452-.563c-.52 0-1.04.195-1.452.563l-10.833 9.75a2.1 2.1 0 0 0-.715 1.603v16.575c0 1.192.975 2.167 2.167 2.167H13a2.173 2.173 0 0 0 2.167-2.167v-8.666h8.666v8.666c0 1.192.975 2.167 2.167 2.167h4.333a2.173 2.173 0 0 0 2.167-2.167Z" fill="#fff"/></svg>