<svg width="52" height="52" fill="none" xmlns="http://www.w3.org/2000/svg"><path d="M42.098 28.123c.087-.693.152-1.386.152-2.123 0-.737-.065-1.43-.152-2.123l4.572-3.575c.412-.325.52-.91.26-1.387l-4.333-7.497c-.26-.476-.845-.65-1.322-.476l-5.395 2.166a15.833 15.833 0 0 0-3.662-2.123l-.823-5.742c-.065-.52-.52-.91-1.062-.91h-8.666c-.542 0-.997.39-1.062.91l-.823 5.742c-1.322.542-2.535 1.278-3.662 2.123l-5.395-2.166a1.057 1.057 0 0 0-1.322.476L5.07 18.915a1.068 1.068 0 0 0 .26 1.387l4.572 3.575A17.181 17.181 0 0 0 9.75 26c0 .715.065 1.43.152 2.123L5.33 31.698c-.412.325-.52.91-.26 1.387l4.333 7.497c.26.476.845.65 1.322.476l5.395-2.166a15.834 15.834 0 0 0 3.662 2.123l.823 5.742c.065.52.52.91 1.062.91h8.666c.542 0 .997-.39 1.062-.91l.823-5.742c1.322-.542 2.535-1.278 3.662-2.123l5.395 2.166c.498.195 1.062 0 1.322-.476l4.333-7.497c.26-.477.152-1.062-.26-1.387l-4.572-3.575ZM26 33.583c-4.182 0-7.583-3.401-7.583-7.583s3.401-7.583 7.583-7.583 7.583 3.401 7.583 7.583-3.401 7.583-7.583 7.583Z" fill="#fff"/></svg>