<?xml version="1.0" encoding="UTF-8"?>
<svg id="Layer_1" data-name="Layer 1" xmlns="http://www.w3.org/2000/svg" viewBox="0 0 150 150">
  <defs>
    <style>
      .cls-1 {
        fill: none;
        stroke: #fffaf0;
        stroke-linecap: round;
        stroke-linejoin: round;
        stroke-width: 5.435px;
      }
    </style>
  </defs>
  <line class="cls-1" x1="12.5" y1="58.696" x2="77.717" y2="58.696"/>
  <line class="cls-1" x1="61.413" y1="75" x2="121.196" y2="75"/>
  <line class="cls-1" x1="12.5" y1="75" x2="41.032" y2="75"/>
  <line class="cls-1" x1="41.033" y1="91.304" x2="99.457" y2="91.304"/>
  <line class="cls-1" x1="12.5" y1="91.304" x2="24.728" y2="91.304"/>
  <path class="cls-1" d="M104.891,58.696c0-9.005,7.299-16.304,16.304-16.304s16.304,7.299,16.304,16.304-7.299,16.304-16.304,16.304"/>
  <path class="cls-1" d="M66.848,47.826c0-6.003,4.866-10.87,10.87-10.87s10.87,4.866,10.87,10.87-4.866,10.87-10.87,10.87"/>
  <path class="cls-1" d="M99.457,91.304c6.003,0,10.87,4.866,10.87,10.87s-4.866,10.87-10.87,10.87-10.87-4.866-10.87-10.87"/>
</svg>