<svg width="112" height="20" fill="none" xmlns="http://www.w3.org/2000/svg"><path d="M20 7.24a.811.811 0 0 0-.81-.811h-6.333L10.763.539a.81.81 0 0 0-1.526 0l-2.094 5.89H.81a.811.811 0 0 0-.52 1.433L5 11.786l-2.11 7.189a.8.8 0 0 0 1.254.86L10 15.357l5.856 4.478a.801.801 0 0 0 1.254-.86L15 11.785l4.709-3.923A.812.812 0 0 0 20 7.24ZM43 7.24a.811.811 0 0 0-.81-.811h-6.333L33.763.539a.81.81 0 0 0-1.526 0l-2.094 5.89H23.81a.811.811 0 0 0-.52 1.433L28 11.786l-2.11 7.189a.8.8 0 0 0 1.254.86L33 15.357l5.856 4.478a.801.801 0 0 0 1.254-.86L38 11.785l4.709-3.923A.812.812 0 0 0 43 7.24ZM66 7.24a.811.811 0 0 0-.81-.811h-6.333L56.763.539a.81.81 0 0 0-1.526 0l-2.094 5.89H46.81a.811.811 0 0 0-.52 1.433L51 11.786l-2.11 7.189a.8.8 0 0 0 1.254.86L56 15.357l5.856 4.478a.801.801 0 0 0 1.254-.86L61 11.785l4.709-3.923A.812.812 0 0 0 66 7.24ZM89 7.24a.811.811 0 0 0-.81-.811h-6.333L79.763.539a.81.81 0 0 0-1.526 0l-2.094 5.89H69.81a.811.811 0 0 0-.52 1.433L74 11.786l-2.11 7.189a.8.8 0 0 0 1.254.86L79 15.357l5.856 4.478a.801.801 0 0 0 1.254-.86L84 11.785l4.709-3.923A.812.812 0 0 0 89 7.24ZM112 7.24a.811.811 0 0 0-.811-.811h-6.332l-2.094-5.89a.81.81 0 0 0-1.526 0l-2.094 5.89H92.81a.811.811 0 0 0-.52 1.433L97 11.786l-2.11 7.189a.8.8 0 0 0 1.254.86L102 15.357l5.856 4.478a.8.8 0 0 0 1.254-.86l-2.11-7.19 4.709-3.923A.813.813 0 0 0 112 7.24Z" fill="#FFBA43"/></svg>