<?xml version="1.0" encoding="UTF-8"?>
<svg id="Capa_1" xmlns="http://www.w3.org/2000/svg" version="1.1" viewBox="0 0 512 512">
  <!-- Generator: Adobe Illustrator 29.1.0, SVG Export Plug-In . SVG Version: 2.1.0 Build 142)  -->
  <defs>
    <style>
      .st0 {
        fill: #fffaf0;
      }
    </style>
  </defs>
  <path class="st0" d="M404,195.8c-16.1-39.5-46.6-70.4-85.9-87-39.3-16.6-82.7-16.8-122.3-.7-3.1,1.2-6.1,2.6-9.3,4.1-5,2.4-7.1,8.4-4.7,13.4,2.4,5,8.4,7.1,13.4,4.7,2.8-1.4,5.5-2.5,8.1-3.6,34.6-14.1,72.6-13.8,107,.7,34.4,14.5,61.1,41.5,75.2,76.1,14.1,34.6,13.8,72.6-.7,107-14.5,34.4-41.5,61.1-76.1,75.2-34.6,14.1-72.6,13.8-107-.7-34.4-14.5-61.1-41.5-75.2-76.1-15.6-38.3-13.5-81.3,5.8-117.9,2.6-4.9.7-10.9-4.2-13.5-4.9-2.6-10.9-.7-13.5,4.2-22.1,41.9-24.5,91-6.7,134.8,16.1,39.5,46.6,70.4,85.9,87,20,8.4,41,12.6,62,12.6,20.4,0,40.8-4,60.2-11.9,39.5-16.1,70.4-46.6,87-85.9s16.8-82.7.7-122.3h0Z"/>
  <path class="st0" d="M325.1,328.9c1.9,1.6,4.2,2.4,6.5,2.4s5.6-1.2,7.6-3.5c27.1-31.4,34.3-74.9,18.6-113.3-2.1-5.1-7.9-7.6-13-5.5-5.1,2.1-7.6,7.9-5.5,13,12.8,31.4,7,67-15.2,92.7-3.6,4.2-3.1,10.5,1,14.1h0Z"/>
  <path class="st0" d="M285,353.2c3,4.6,9.4,5.7,13.9,2.8,4.5-3,5.8-9.3,2.8-13.9-3-4.5-9.3-5.8-13.9-2.8-4.5,3-5.8,9.3-2.8,13.9h0Z"/>
  <path class="st0" d="M498.2,146.6l-70,28.5c-5.1,2.1-7.6,7.9-5.5,13,1.6,3.9,5.3,6.2,9.3,6.2s2.5-.2,3.8-.7l70-28.5c5.1-2.1,7.6-7.9,5.5-13-2.1-5.1-7.9-7.6-13-5.5Z"/>
  <path class="st0" d="M89.3,323.9c-2.1-5.1-7.9-7.6-13-5.5l-70,28.5c-5.1,2.1-7.6,7.9-5.5,13,1.6,3.9,5.3,6.2,9.3,6.2s2.5-.2,3.8-.7l70-28.5c5.1-2.1,7.6-7.9,5.5-13Z"/>
  <path class="st0" d="M504.6,349.9l-69.7-29.4c-5.1-2.1-11,.2-13.1,5.3-2.1,5.1.2,11,5.3,13.1l69.7,29.4c5,2.1,11-.3,13.1-5.3,2.1-5.1-.2-11-5.3-13.1Z"/>
  <path class="st0" d="M80.9,192.2c3.9,0,7.6-2.3,9.2-6.1,2.1-5.1-.2-11-5.3-13.1l-69.7-29.4c-5.1-2.1-11,.2-13.1,5.3-2.1,5.1.2,11,5.3,13.1l69.7,29.4c1.3.5,2.6.8,3.9.8h0Z"/>
  <path class="st0" d="M336.9,428.2c-2.1-5.1-7.9-7.6-13-5.5-5.1,2.1-7.6,7.9-5.5,13l28.5,70c2.1,5,8,7.5,13,5.5,5.1-2.1,7.6-7.9,5.5-13l-28.5-70Z"/>
  <path class="st0" d="M184.4,90.1c1.3,0,2.5-.2,3.8-.7,5.1-2.1,7.6-7.9,5.5-13L165.1,6.2c-2.1-5.1-7.9-7.6-13-5.5-5.1,2.1-7.6,7.9-5.5,13l28.5,70c1.6,3.9,5.3,6.2,9.3,6.2Z"/>
  <path class="st0" d="M186.1,421.9c-5.1-2.1-11,.2-13.1,5.3l-29.4,69.7c-2.1,5.1.2,11,5.3,13.1,5,2.1,11-.3,13.1-5.3l29.4-69.7c2.1-5.1-.2-11-5.3-13.1Z"/>
  <path class="st0" d="M349.9,7.4l-29.4,69.7c-2.1,5.1.2,11,5.3,13.1,1.3.5,2.6.8,3.9.8,3.9,0,7.6-2.3,9.2-6.1l29.4-69.7c2.1-5.1-.2-11-5.3-13.1-5.1-2.1-11,.2-13.1,5.3Z"/>
  <path class="st0" d="M481,267.7c5.5,0,10-4.5,10-10s-4.5-10-10-10h-35c-5.5,0-10,4.5-10,10s4.5,10,10,10h35Z"/>
  <path class="st0" d="M31,244.3c-5.5,0-10,4.5-10,10s4.5,10,10,10h35c5.5,0,10-4.5,10-10s-4.5-10-10-10H31Z"/>
  <path class="st0" d="M396.5,384.3c-3.9-3.9-10.2-4-14.1-.1-3.9,3.9-4,10.2-.1,14.1l24.6,25c2,2,4.5,3,7.1,3s5.1-1,7-2.9c3.9-3.9,4-10.2.1-14.1l-24.6-25Z"/>
  <path class="st0" d="M115.5,127.7c3.8,3.9,10.3,3.9,14.1.1,3.9-3.9,4-10.2.1-14.1l-24.6-25c-3.9-3.9-10.2-4-14.1-.1-3.9,3.9-4,10.2-.1,14.1l24.6,25Z"/>
  <path class="st0" d="M256,436h0c-5.5,0-10,4.5-10,10v35c-.1,5.5,4.3,10,9.8,10h0c5.5,0,10-4.5,10-10v-35c.1-5.5-4.3-10-9.8-10Z"/>
  <path class="st0" d="M246.1,31v37c0,5.5,4.5,10,10,10s10-4.5,10-10V31c0-5.5-4.5-10-10-10s-10,4.5-10,10Z"/>
  <path class="st0" d="M113.7,382.2l-25,24.6c-3.9,3.9-4,10.2-.1,14.1,3.8,3.9,10.3,3.9,14.1.1l25-24.6c3.9-3.9,4-10.2.1-14.1-3.9-3.9-10.2-4-14.1-.1Z"/>
  <path class="st0" d="M391.3,132.7c2.5,0,5.1-1,7-2.9l25-24.6c3.9-3.9,4-10.2.1-14.1-3.9-3.9-10.2-4-14.1-.1l-25,24.6c-3.9,3.9-4,10.2-.1,14.1,2,2,4.5,3,7.1,3h0Z"/>
  <path class="st0" d="M161.4,141.6c-5-7.4-16.8-4.8-18.2,4.1-1.4,8.9,9.4,14.9,16.3,9.1,3.9-3.2,4.6-9,1.9-13.2Z"/>
</svg>