<svg id="Capa_1" enable-background="new 0 0 512.003 512.003" height="512" viewBox="0 0 512.003 512.003" width="512" xmlns="http://www.w3.org/2000/svg"><path d="m403.971 195.78c-16.089-39.523-46.606-70.417-85.93-86.988s-82.749-16.837-122.272-.748c-3.054 1.242-6.092 2.597-9.29 4.139-4.975 2.398-7.063 8.376-4.664 13.351s8.377 7.066 13.351 4.663c2.817-1.357 5.48-2.545 8.142-3.629 34.578-14.074 72.564-13.843 106.965.655 34.401 14.497 61.098 41.522 75.172 76.099 14.075 34.576 13.842 72.563-.655 106.965-14.497 34.401-41.522 61.099-76.098 75.173-34.577 14.074-72.564 13.842-106.965-.654-34.401-14.497-61.098-41.522-75.172-76.1-15.589-38.296-13.46-81.27 5.84-117.902 2.574-4.886.7-10.934-4.186-13.508-4.884-2.577-10.934-.701-13.508 4.186-22.059 41.867-24.49 90.987-6.67 134.766 16.089 39.524 46.606 70.417 85.93 86.988 19.969 8.415 40.989 12.626 62.025 12.625 20.389-.001 40.793-3.958 60.247-11.877 39.524-16.088 70.417-46.605 86.989-85.93s16.838-82.749.749-122.274z"/><path d="m325.102 328.917c1.889 1.629 4.213 2.427 6.526 2.427 2.808 0 5.6-1.176 7.577-3.469 27.123-31.45 34.252-74.865 18.605-113.305-2.083-5.115-7.917-7.575-13.032-5.491-5.115 2.082-7.574 7.917-5.492 13.032 12.801 31.447 6.966 66.968-15.227 92.701-3.606 4.183-3.14 10.498 1.043 14.105z"/><path d="m284.991 353.212c2.99 4.568 9.363 5.746 13.87 2.76 4.548-3.013 5.762-9.336 2.76-13.86-3.016-4.545-9.335-5.762-13.86-2.76-4.538 3.011-5.787 9.332-2.77 13.86z"/><path d="m498.23 146.615-70.041 28.512c-5.115 2.082-7.574 7.917-5.492 13.032 1.58 3.881 5.319 6.232 9.266 6.232 1.255 0 2.532-.238 3.767-.741l70.041-28.512c5.115-2.082 7.574-7.917 5.492-13.032-2.083-5.115-7.916-7.576-13.033-5.491z"/><path d="m89.306 323.868c-2.083-5.115-7.917-7.575-13.032-5.491l-70.041 28.511c-5.115 2.082-7.574 7.917-5.492 13.032 1.58 3.881 5.319 6.232 9.266 6.232 1.255 0 2.532-.238 3.767-.741l70.041-28.511c5.114-2.081 7.573-7.916 5.491-13.032z"/><path d="m504.639 349.94-69.688-29.366c-5.091-2.148-10.954.242-13.099 5.332-2.145 5.089.243 10.953 5.332 13.098l69.688 29.366c5.026 2.12 10.983-.313 13.099-5.332 2.145-5.09-.242-10.954-5.332-13.098z"/><path d="m80.927 192.243c3.901 0 7.609-2.299 9.22-6.119 2.145-5.09-.243-10.954-5.332-13.099l-69.687-29.367c-5.088-2.148-10.954.243-13.099 5.331-2.145 5.09.243 10.954 5.332 13.099l69.687 29.367c1.268.535 2.584.788 3.879.788z"/><path d="m336.887 428.199c-2.083-5.116-7.916-7.576-13.033-5.491-5.115 2.082-7.574 7.917-5.492 13.032l28.512 70.042c2.054 5.045 7.982 7.548 13.033 5.491 5.115-2.082 7.574-7.917 5.492-13.032z"/><path d="m184.376 90.057c1.255 0 2.532-.238 3.767-.741 5.115-2.082 7.574-7.917 5.492-13.032l-28.511-70.043c-2.083-5.115-7.917-7.575-13.032-5.491-5.115 2.082-7.574 7.917-5.492 13.032l28.511 70.042c1.579 3.881 5.318 6.233 9.265 6.233z"/><path d="m186.106 421.861c-5.091-2.147-10.954.243-13.099 5.332l-29.365 69.688c-2.145 5.089.243 10.953 5.332 13.098 5.026 2.121 10.984-.313 13.099-5.332l29.365-69.688c2.144-5.089-.243-10.953-5.332-13.098z"/><path d="m349.922 7.369-29.367 69.687c-2.145 5.09.243 10.954 5.332 13.099 1.268.535 2.584.788 3.879.788 3.901 0 7.609-2.299 9.22-6.119l29.367-69.687c2.145-5.09-.243-10.954-5.332-13.099-5.089-2.148-10.954.243-13.099 5.331z"/><path d="m481.019 267.682c5.523 0 10-4.478 10-10s-4.477-10-10-10h-35.047c-5.523 0-10 4.478-10 10s4.477 10 10 10z"/><path d="m30.982 244.345c-5.523 0-10 4.478-10 10s4.477 10 10 10h35.046c5.523 0 10-4.478 10-10s-4.477-10-10-10z"/><path d="m396.457 384.321c-3.876-3.935-10.208-3.981-14.142-.104-3.934 3.876-3.981 10.208-.104 14.142l24.599 24.966c1.957 1.986 4.539 2.981 7.124 2.981 2.534 0 5.07-.958 7.018-2.877 3.934-3.876 3.981-10.208.104-14.142z"/><path d="m115.54 127.706c3.824 3.881 10.262 3.928 14.142.104 3.934-3.876 3.981-10.207.105-14.142l-24.598-24.966c-3.876-3.935-10.208-3.982-14.142-.104-3.934 3.876-3.981 10.207-.105 14.142z"/><path d="m256.04 435.984c-.013 0-.025 0-.038 0-5.505 0-9.979 4.453-9.999 9.963l-.129 35.048c-.021 5.523 4.44 10.017 9.963 10.037h.038c5.505 0 9.979-4.453 9.999-9.963l.129-35.048c.021-5.524-4.44-10.017-9.963-10.037z"/><path d="m246.134 30.992v37.046c0 5.522 4.477 10 10 10s10-4.478 10-10v-37.046c0-5.522-4.477-10-10-10s-10 4.478-10 10z"/><path d="m113.653 382.219-24.964 24.601c-3.934 3.877-3.98 10.208-.104 14.142 3.824 3.882 10.261 3.927 14.142.104l24.964-24.601c3.934-3.877 3.98-10.208.104-14.142-3.876-3.933-10.208-3.978-14.142-.104z"/><path d="m391.324 132.671c2.534 0 5.07-.957 7.018-2.876l24.967-24.596c3.934-3.876 3.981-10.208.106-14.142-3.876-3.936-10.208-3.983-14.142-.106l-24.967 24.596c-3.934 3.876-3.981 10.208-.106 14.142 1.957 1.987 4.54 2.982 7.124 2.982z"/><path d="m161.422 141.602c-5.045-7.361-16.847-4.845-18.206 4.088-1.36 8.939 9.439 14.878 16.31 9.133 3.878-3.243 4.646-9.019 1.896-13.221z"/></svg>