<svg xmlns="http://www.w3.org/2000/svg" viewBox="0 0 512 512" style="enable-background:new 0 0 512 512" xml:space="preserve"><path style="fill:#ffa600" d="m507.834 301.608-54.769-48.312 52.832-50.399a7.46 7.46 0 0 0 2.099-7.189 7.505 7.505 0 0 0-5.211-5.401l-70.316-20.292 25.988-68.056a7.454 7.454 0 0 0-1.204-7.389 7.55 7.55 0 0 0-7.038-2.657l-72.274 11.652-5.878-72.561a7.485 7.485 0 0 0-4.275-6.161 7.569 7.569 0 0 0-7.504.601l-60.266 41.342-36.609-63.044A7.536 7.536 0 0 0 256.889 0a7.534 7.534 0 0 0-6.519 3.742L208.347 76.11l-72.69-41.953a7.566 7.566 0 0 0-7.528-.018 7.477 7.477 0 0 0-3.78 6.473l-.176 72.795-72.965-6.014a7.55 7.55 0 0 0-6.807 3.194 7.444 7.444 0 0 0-.622 7.459l31.242 65.835-68.513 25.681a7.499 7.499 0 0 0-4.773 5.789 7.456 7.456 0 0 0 2.656 7.003l56.619 46.152-50.813 52.41a7.457 7.457 0 0 0-1.816 7.264 7.508 7.508 0 0 0 5.419 5.194l71.055 17.551-23.295 69.011a7.453 7.453 0 0 0 1.494 7.336 7.554 7.554 0 0 0 7.137 2.382l71.76-14.443 8.721 72.278a7.488 7.488 0 0 0 4.513 5.99 7.565 7.565 0 0 0 7.475-.891l58.596-43.647 39.055 59.566a7.538 7.538 0 0 0 6.662 3.486 7.533 7.533 0 0 0 6.368-3.992l34.107-62.405 61.839 38.974a7.566 7.566 0 0 0 7.522.31 7.482 7.482 0 0 0 4.03-6.322l3.031-72.734 72.674 8.84a7.555 7.555 0 0 0 6.928-2.927 7.45 7.45 0 0 0 .914-7.43L435.75 337.31l69.465-23.003a7.502 7.502 0 0 0 4.997-5.599 7.46 7.46 0 0 0-2.378-7.1z"/><ellipse style="fill:#ffdb2d" cx="254.35" cy="254.691" rx="155.069" ry="154.949"/><path style="fill:#ffca00" d="M254.354 99.743c-3.884 0-7.732.147-11.543.428 80.25 5.901 143.525 72.825 143.525 154.521 0 81.695-63.275 148.619-143.525 154.521 3.811.28 7.66.428 11.543.428 85.641 0 155.068-69.373 155.068-154.948 0-85.577-69.427-154.95-155.068-154.95z"/></svg>