<?xml version="1.0" encoding="UTF-8"?>
<svg id="Layer_1" data-name="Layer 1" xmlns="http://www.w3.org/2000/svg" viewBox="0 0 150 150">
  <defs>
    <style>
      .cls-1 {
        fill: none;
        stroke: #fffaf0;
        stroke-linecap: round;
        stroke-linejoin: round;
        stroke-width: 5.435px;
      }
    </style>
  </defs>
  <path class="cls-1" d="M28.804,55.978h10.87v48.913h-10.87c-8.999,0-16.304-7.306-16.304-16.304v-16.304c0-8.999,7.306-16.304,16.304-16.304Z"/>
  <path class="cls-1" d="M110.326,55.978h10.87c8.999,0,16.304,7.306,16.304,16.304v16.304c0,8.999-7.306,16.304-16.304,16.304h-10.87v-48.913h0Z"/>
  <path class="cls-1" d="M24.728,56.522c5.326-25.217,25.815-44.022,50.272-44.022s44.946,18.804,50.272,44.022"/>
  <path class="cls-1" d="M126.63,110.326c0,21.739-21.739,27.174-54.348,27.174"/>
  <path class="cls-1" d="M83.152,137.5h-21.739c0-6.003,4.866-10.87,10.87-10.87h0c6.003,0,10.87,4.866,10.87,10.87h0Z"/>
</svg>