<?xml version="1.0" encoding="UTF-8"?>
<svg id="Layer_1" data-name="Layer 1" xmlns="http://www.w3.org/2000/svg" viewBox="0 0 146.087 140">
  <defs>
    <style>
      .cls-1 {
        stroke-miterlimit: 10;
      }

      .cls-1, .cls-2 {
        fill: none;
        stroke: #ccb7a5;
        stroke-linecap: round;
        stroke-width: 6.087px;
      }

      .cls-3 {
        fill: #ccb7a5;
      }

      .cls-2 {
        stroke-linejoin: round;
      }
    </style>
  </defs>
  <path class="cls-2" d="M15.217,60.87C15.217,28.933,41.107,3.043,73.043,3.043h0c31.936,0,57.826,25.89,57.826,57.826v15.217c0,33.617-27.253,60.87-60.87,60.87"/>
  <path class="cls-2" d="M15.217,51.739h0c-6.724,0-12.174,5.45-12.174,12.174v6.087c0,6.724,5.45,12.174,12.174,12.174h0v-30.435Z"/>
  <path class="cls-2" d="M130.87,51.739h0c6.724,0,12.174,5.45,12.174,12.174v6.087c0,6.724-5.45,12.174-12.174,12.174h0v-30.435Z"/>
  <path class="cls-2" d="M70,136.957h-6.087c-3.362,0-6.087-2.725-6.087-6.087h0c0-3.362,2.725-6.087,6.087-6.087h6.087c3.362,0,6.087,2.725,6.087,6.087h0c0,3.362-2.725,6.087-6.087,6.087Z"/>
  <circle class="cls-3" cx="48.696" cy="48.696" r="6.087"/>
  <circle class="cls-3" cx="97.391" cy="48.696" r="6.087"/>
  <path class="cls-2" d="M73.043,57.826v18.261c0,3.362,2.725,6.087,6.087,6.087"/>
  <path class="cls-1" d="M51.744,100.436c13.638,5.649,28.961,5.649,42.598,0"/>
</svg>