<?xml version="1.0" encoding="UTF-8"?>
<svg id="Layer_1" data-name="Layer 1" xmlns="http://www.w3.org/2000/svg" viewBox="0 0 146.087 146.087">
  <defs>
    <style>
      .cls-1 {
        stroke-miterlimit: 10;
      }

      .cls-1, .cls-2 {
        fill: none;
        stroke: #fffaf0;
        stroke-linecap: round;
        stroke-width: 6.087px;
      }

      .cls-2 {
        stroke-linejoin: round;
      }
    </style>
  </defs>
  <line class="cls-1" x1="70" y1="76.087" x2="100.435" y2="45.652"/>
  <polygon class="cls-2" points="143.043 21.304 118.696 45.652 100.435 45.652 100.435 27.391 124.783 3.043 124.783 21.304 143.043 21.304"/>
  <path class="cls-2" d="M136.957,76.087c0,36.979-29.978,66.957-66.957,66.957S3.043,113.066,3.043,76.087,33.021,9.13,70,9.13"/>
  <path class="cls-2" d="M131.695,50.024c3.388,8.01,5.262,16.818,5.262,26.063s-1.874,18.052-5.262,26.063c-3.389,8.01-8.291,15.225-14.349,21.283-6.058,6.058-13.273,10.961-21.283,14.349-8.01,3.388-16.818,5.262-26.063,5.262s-18.052-1.874-26.063-5.262c-8.01-3.389-15.225-8.291-21.283-14.349-6.058-6.058-10.961-13.273-14.349-21.283-3.388-8.01-5.262-16.818-5.262-26.063s1.874-18.052,5.262-26.063c3.389-8.01,8.291-15.225,14.349-21.283,6.058-6.058,13.273-10.961,21.283-14.349,8.01-3.388,16.818-5.262,26.063-5.262s18.052,1.874,26.063,5.262"/>
  <path class="cls-2" d="M100.847,63.056c1.694,4.005,2.631,8.409,2.631,13.031s-.937,9.026-2.631,13.031c-1.694,4.006-4.146,7.612-7.175,10.642-3.029,3.029-6.636,5.481-10.642,7.175-4.005,1.694-8.409,2.631-13.031,2.631s-9.026-.937-13.031-2.631c-4.006-1.694-7.612-4.146-10.642-7.175-3.029-3.029-5.481-6.636-7.175-10.642-1.694-4.005-2.631-8.409-2.631-13.031s.937-9.026,2.631-13.031c1.694-4.006,4.146-7.612,7.175-10.642,3.029-3.029,6.636-5.481,10.642-7.175,4.005-1.694,8.409-2.631,13.031-2.631s9.026.937,13.031,2.631"/>
</svg>