<?xml version="1.0" encoding="UTF-8"?>
<svg id="Layer_1" data-name="Layer 1" xmlns="http://www.w3.org/2000/svg" viewBox="0 0 150 150">
  <defs>
    <style>
      .cls-1 {
        fill: none;
        stroke: #ccb7a5;
        stroke-miterlimit: 10;
        stroke-width: 2px;
      }
    </style>
  </defs>
  <path class="cls-1" d="M145.62,38.44v48.14l-.55.31c-1.54-.79-3.14-1.48-4.81-2.01l-2.53-9.96h-14.77l-2.85,9.9c-1.75.55-3.43,1.28-5.02,2.12l-8.55-5.09-10.44,10.45,4.99,9.03c-.7,1.44-1.31,2.94-1.79,4.49l-10.29,2.61v14.77l10.62,3.05c.26.74.54,1.47.85,2.19H5.62V38.44h140Z"/>
  <rect class="cls-1" x="5.617" y="23.44" width="140" height="15"/>
  <circle class="cls-1" cx="14.626" cy="30.94" r="3"/>
  <circle class="cls-1" cx="37.792" cy="30.94" r="3"/>
  <circle class="cls-1" cx="26.209" cy="30.94" r="3"/>
  <path class="cls-1" d="M87.611,97.674v-12.094l-8.375-2.404c-.408-1.345-.922-2.63-1.557-3.87l4.278-7.166-8.556-8.556-7.196,3.991c-1.255-.65-2.57-1.209-3.93-1.648l-2.071-8.148h-12.094l-2.328,8.103c-1.436.454-2.812,1.043-4.112,1.739l-6.999-4.172-8.541,8.556,4.082,7.392c-.574,1.179-1.073,2.404-1.466,3.673l-8.42,2.132v12.094l8.692,2.494c.363,1.043.786,2.071,1.285,3.039l-4.308,7.241,8.556,8.556,7.332-4.067c1.24.65,2.54,1.194,3.9,1.633l2.328,8.088h12.094l2.071-8.133c1.088-.348,2.131-.771,3.144-1.255l7.846,4.671,8.556-8.556-4.339-7.831c.544-1.058,1.028-2.162,1.421-3.296l8.707-2.207ZM53.975,109.934c-10.446,0-18.896-8.466-18.896-18.896s8.45-18.896,18.896-18.896,18.896,8.466,18.896,18.896-8.466,18.896-18.896,18.896Z"/>
  <path class="cls-1" d="M117.67,63.881v-6.253l-4.33-1.243c-.211-.696-.477-1.36-.805-2.001l2.212-3.705-4.424-4.424-3.721,2.064c-.649-.336-1.329-.625-2.032-.852l-1.071-4.213h-6.253l-1.204,4.19c-.743.235-1.454.539-2.126.899l-3.619-2.157-4.416,4.424,2.11,3.822c-.297.61-.555,1.243-.758,1.899l-4.354,1.102v6.253l4.494,1.29c.188.539.406,1.071.664,1.571l-2.228,3.744,4.424,4.424,3.791-2.103c.641.336,1.313.617,2.017.844l1.204,4.182h6.253l1.071-4.205c.563-.18,1.102-.399,1.626-.649l4.057,2.415,4.424-4.424-2.243-4.049c.281-.547.532-1.118.735-1.704l4.502-1.141ZM100.279,70.22c-5.401,0-9.771-4.377-9.771-9.771s4.369-9.771,9.771-9.771,9.771,4.377,9.771,9.771-4.377,9.771-9.771,9.771Z"/>
  <g>
    <path class="cls-1" d="M145.62,98.44v30h-34.65c-2.48-3.68-3.93-8.11-3.93-12.88,0-12.75,10.32-23.09,23.08-23.09,5.97,0,11.4,2.27,15.5,5.97Z"/>
    <path class="cls-1" d="M145.62,86.58v11.86c-4.1-3.7-9.53-5.97-15.5-5.97-12.76,0-23.08,10.34-23.08,23.09,0,4.77,1.45,9.2,3.93,12.88h-10.49c-.31-.72-.59-1.45-.85-2.19l-10.62-3.05v-14.77l10.29-2.61c.48-1.55,1.09-3.05,1.79-4.49l-4.99-9.03,10.44-10.45,8.55,5.09c1.59-.84,3.27-1.57,5.02-2.12l2.85-9.9h14.77l2.53,9.96c1.67.53,3.27,1.22,4.81,2.01l.55-.31Z"/>
  </g>
</svg>