<?xml version="1.0" encoding="UTF-8"?>
<svg id="Layer_1" data-name="Layer 1" xmlns="http://www.w3.org/2000/svg" viewBox="0 0 150 150">
  <defs>
    <style>
      .cls-1 {
        fill: none;
        stroke: #ccb7a5;
        stroke-miterlimit: 10;
        stroke-width: 2px;
      }
    </style>
  </defs>
  <rect class="cls-1" x="4.226" y="23.44" width="140" height="90"/>
  <rect class="cls-1" x="4.226" y="23.44" width="140" height="15"/>
  <rect class="cls-1" x="69.126" y="56.098" width="60" height="40"/>
  <circle class="cls-1" cx="13.236" cy="30.94" r="3"/>
  <circle class="cls-1" cx="36.401" cy="30.94" r="3"/>
  <circle class="cls-1" cx="24.818" cy="30.94" r="3"/>
  <rect class="cls-1" x="10.813" y="56.098" width="50" height="8"/>
  <line class="cls-1" x1="10.236" y1="71.166" x2="61.39" y2="71.166"/>
  <line class="cls-1" x1="10.236" y1="77.399" x2="61.39" y2="77.399"/>
  <line class="cls-1" x1="61.39" y1="83.632" x2="10.236" y2="83.632"/>
  <line class="cls-1" x1="10.236" y1="89.865" x2="61.39" y2="89.865"/>
  <line class="cls-1" x1="10.236" y1="96.098" x2="33.401" y2="96.098"/>
  <polyline class="cls-1" points="69.126 77.399 87.771 64.098 114.74 96.098"/>
  <polyline class="cls-1" points="129.126 82.724 116.795 68.44 101.256 80.098"/>
  <circle class="cls-1" cx="108.055" cy="65.897" r="2.5"/>
</svg>